G04 #@! TF.GenerationSoftware,KiCad,Pcbnew,(5.1.6)-1*
G04 #@! TF.CreationDate,2021-11-06T14:38:14-07:00*
G04 #@! TF.ProjectId,High current 4x1 LED mux,48696768-2063-4757-9272-656e74203478,rev?*
G04 #@! TF.SameCoordinates,Original*
G04 #@! TF.FileFunction,Legend,Top*
G04 #@! TF.FilePolarity,Positive*
%FSLAX46Y46*%
G04 Gerber Fmt 4.6, Leading zero omitted, Abs format (unit mm)*
G04 Created by KiCad (PCBNEW (5.1.6)-1) date 2021-11-06 14:38:14*
%MOMM*%
%LPD*%
G01*
G04 APERTURE LIST*
%ADD10C,0.300000*%
%ADD11C,0.150000*%
%ADD12C,0.600000*%
%ADD13C,0.120000*%
%ADD14C,0.100000*%
%ADD15C,0.152400*%
%ADD16C,0.127000*%
%ADD17C,0.010000*%
G04 APERTURE END LIST*
D10*
X166997619Y-40307142D02*
X165473809Y-40307142D01*
X166235714Y-39545238D02*
X166235714Y-41069047D01*
X158426190Y-40307142D02*
X156902380Y-40307142D01*
X164950000Y-36245238D02*
X165902380Y-36245238D01*
X165902380Y-38245238D01*
X164283333Y-37292857D02*
X163616666Y-37292857D01*
X163330952Y-36245238D02*
X164283333Y-36245238D01*
X164283333Y-38245238D01*
X163330952Y-38245238D01*
X162473809Y-36245238D02*
X162473809Y-38245238D01*
X161997619Y-38245238D01*
X161711904Y-38150000D01*
X161521428Y-37959523D01*
X161426190Y-37769047D01*
X161330952Y-37388095D01*
X161330952Y-37102380D01*
X161426190Y-36721428D01*
X161521428Y-36530952D01*
X161711904Y-36340476D01*
X161997619Y-36245238D01*
X162473809Y-36245238D01*
X157902380Y-36245238D02*
X159045238Y-36245238D01*
X158473809Y-36245238D02*
X158473809Y-38245238D01*
X158664285Y-37959523D01*
X158854761Y-37769047D01*
X159045238Y-37673809D01*
X150617619Y-40357142D02*
X149093809Y-40357142D01*
X149855714Y-39595238D02*
X149855714Y-41119047D01*
X142046190Y-40357142D02*
X140522380Y-40357142D01*
X148570000Y-36295238D02*
X149522380Y-36295238D01*
X149522380Y-38295238D01*
X147903333Y-37342857D02*
X147236666Y-37342857D01*
X146950952Y-36295238D02*
X147903333Y-36295238D01*
X147903333Y-38295238D01*
X146950952Y-38295238D01*
X146093809Y-36295238D02*
X146093809Y-38295238D01*
X145617619Y-38295238D01*
X145331904Y-38200000D01*
X145141428Y-38009523D01*
X145046190Y-37819047D01*
X144950952Y-37438095D01*
X144950952Y-37152380D01*
X145046190Y-36771428D01*
X145141428Y-36580952D01*
X145331904Y-36390476D01*
X145617619Y-36295238D01*
X146093809Y-36295238D01*
X142665238Y-38104761D02*
X142570000Y-38200000D01*
X142379523Y-38295238D01*
X141903333Y-38295238D01*
X141712857Y-38200000D01*
X141617619Y-38104761D01*
X141522380Y-37914285D01*
X141522380Y-37723809D01*
X141617619Y-37438095D01*
X142760476Y-36295238D01*
X141522380Y-36295238D01*
X134217619Y-40347142D02*
X132693809Y-40347142D01*
X133455714Y-39585238D02*
X133455714Y-41109047D01*
X125646190Y-40347142D02*
X124122380Y-40347142D01*
X132170000Y-36285238D02*
X133122380Y-36285238D01*
X133122380Y-38285238D01*
X131503333Y-37332857D02*
X130836666Y-37332857D01*
X130550952Y-36285238D02*
X131503333Y-36285238D01*
X131503333Y-38285238D01*
X130550952Y-38285238D01*
X129693809Y-36285238D02*
X129693809Y-38285238D01*
X129217619Y-38285238D01*
X128931904Y-38190000D01*
X128741428Y-37999523D01*
X128646190Y-37809047D01*
X128550952Y-37428095D01*
X128550952Y-37142380D01*
X128646190Y-36761428D01*
X128741428Y-36570952D01*
X128931904Y-36380476D01*
X129217619Y-36285238D01*
X129693809Y-36285238D01*
X126360476Y-38285238D02*
X125122380Y-38285238D01*
X125789047Y-37523333D01*
X125503333Y-37523333D01*
X125312857Y-37428095D01*
X125217619Y-37332857D01*
X125122380Y-37142380D01*
X125122380Y-36666190D01*
X125217619Y-36475714D01*
X125312857Y-36380476D01*
X125503333Y-36285238D01*
X126074761Y-36285238D01*
X126265238Y-36380476D01*
X126360476Y-36475714D01*
X117777619Y-40357142D02*
X116253809Y-40357142D01*
X117015714Y-39595238D02*
X117015714Y-41119047D01*
X109206190Y-40357142D02*
X107682380Y-40357142D01*
X115730000Y-36295238D02*
X116682380Y-36295238D01*
X116682380Y-38295238D01*
X115063333Y-37342857D02*
X114396666Y-37342857D01*
X114110952Y-36295238D02*
X115063333Y-36295238D01*
X115063333Y-38295238D01*
X114110952Y-38295238D01*
X113253809Y-36295238D02*
X113253809Y-38295238D01*
X112777619Y-38295238D01*
X112491904Y-38200000D01*
X112301428Y-38009523D01*
X112206190Y-37819047D01*
X112110952Y-37438095D01*
X112110952Y-37152380D01*
X112206190Y-36771428D01*
X112301428Y-36580952D01*
X112491904Y-36390476D01*
X112777619Y-36295238D01*
X113253809Y-36295238D01*
X108872857Y-37628571D02*
X108872857Y-36295238D01*
X109349047Y-38390476D02*
X109825238Y-36961904D01*
X108587142Y-36961904D01*
X142598095Y-119702857D02*
X144121904Y-119702857D01*
X142588095Y-126502857D02*
X144111904Y-126502857D01*
X143350000Y-127264761D02*
X143350000Y-125740952D01*
X132540476Y-114304761D02*
X131588095Y-114304761D01*
X131588095Y-112304761D01*
X133207142Y-113257142D02*
X133873809Y-113257142D01*
X134159523Y-114304761D02*
X133207142Y-114304761D01*
X133207142Y-112304761D01*
X134159523Y-112304761D01*
X135016666Y-114304761D02*
X135016666Y-112304761D01*
X135492857Y-112304761D01*
X135778571Y-112400000D01*
X135969047Y-112590476D01*
X136064285Y-112780952D01*
X136159523Y-113161904D01*
X136159523Y-113447619D01*
X136064285Y-113828571D01*
X135969047Y-114019047D01*
X135778571Y-114209523D01*
X135492857Y-114304761D01*
X135016666Y-114304761D01*
X138540476Y-114304761D02*
X138540476Y-112304761D01*
X139492857Y-112971428D02*
X139492857Y-114304761D01*
X139492857Y-113161904D02*
X139588095Y-113066666D01*
X139778571Y-112971428D01*
X140064285Y-112971428D01*
X140254761Y-113066666D01*
X140350000Y-113257142D01*
X140350000Y-114304761D01*
X141302380Y-112971428D02*
X141302380Y-114971428D01*
X141302380Y-113066666D02*
X141492857Y-112971428D01*
X141873809Y-112971428D01*
X142064285Y-113066666D01*
X142159523Y-113161904D01*
X142254761Y-113352380D01*
X142254761Y-113923809D01*
X142159523Y-114114285D01*
X142064285Y-114209523D01*
X141873809Y-114304761D01*
X141492857Y-114304761D01*
X141302380Y-114209523D01*
X143969047Y-112971428D02*
X143969047Y-114304761D01*
X143111904Y-112971428D02*
X143111904Y-114019047D01*
X143207142Y-114209523D01*
X143397619Y-114304761D01*
X143683333Y-114304761D01*
X143873809Y-114209523D01*
X143969047Y-114114285D01*
X144635714Y-112971428D02*
X145397619Y-112971428D01*
X144921428Y-112304761D02*
X144921428Y-114019047D01*
X145016666Y-114209523D01*
X145207142Y-114304761D01*
X145397619Y-114304761D01*
D11*
X163082380Y-142734404D02*
X162082380Y-142734404D01*
X163082380Y-142162976D01*
X162082380Y-142162976D01*
X162034761Y-140972500D02*
X163320476Y-141829642D01*
X162987142Y-140067738D02*
X163034761Y-140115357D01*
X163082380Y-140258214D01*
X163082380Y-140353452D01*
X163034761Y-140496309D01*
X162939523Y-140591547D01*
X162844285Y-140639166D01*
X162653809Y-140686785D01*
X162510952Y-140686785D01*
X162320476Y-140639166D01*
X162225238Y-140591547D01*
X162130000Y-140496309D01*
X162082380Y-140353452D01*
X162082380Y-140258214D01*
X162130000Y-140115357D01*
X162177619Y-140067738D01*
X165382380Y-142543928D02*
X165382380Y-142353452D01*
X165430000Y-142258214D01*
X165525238Y-142162976D01*
X165715714Y-142115357D01*
X166049047Y-142115357D01*
X166239523Y-142162976D01*
X166334761Y-142258214D01*
X166382380Y-142353452D01*
X166382380Y-142543928D01*
X166334761Y-142639166D01*
X166239523Y-142734404D01*
X166049047Y-142782023D01*
X165715714Y-142782023D01*
X165525238Y-142734404D01*
X165430000Y-142639166D01*
X165382380Y-142543928D01*
X165382380Y-141686785D02*
X166191904Y-141686785D01*
X166287142Y-141639166D01*
X166334761Y-141591547D01*
X166382380Y-141496309D01*
X166382380Y-141305833D01*
X166334761Y-141210595D01*
X166287142Y-141162976D01*
X166191904Y-141115357D01*
X165382380Y-141115357D01*
X165382380Y-140782023D02*
X165382380Y-140210595D01*
X166382380Y-140496309D02*
X165382380Y-140496309D01*
X165382380Y-139972500D02*
X165382380Y-139353452D01*
X165763333Y-139686785D01*
X165763333Y-139543928D01*
X165810952Y-139448690D01*
X165858571Y-139401071D01*
X165953809Y-139353452D01*
X166191904Y-139353452D01*
X166287142Y-139401071D01*
X166334761Y-139448690D01*
X166382380Y-139543928D01*
X166382380Y-139829642D01*
X166334761Y-139924880D01*
X166287142Y-139972500D01*
X168682380Y-142543928D02*
X168682380Y-142353452D01*
X168730000Y-142258214D01*
X168825238Y-142162976D01*
X169015714Y-142115357D01*
X169349047Y-142115357D01*
X169539523Y-142162976D01*
X169634761Y-142258214D01*
X169682380Y-142353452D01*
X169682380Y-142543928D01*
X169634761Y-142639166D01*
X169539523Y-142734404D01*
X169349047Y-142782023D01*
X169015714Y-142782023D01*
X168825238Y-142734404D01*
X168730000Y-142639166D01*
X168682380Y-142543928D01*
X168682380Y-141686785D02*
X169491904Y-141686785D01*
X169587142Y-141639166D01*
X169634761Y-141591547D01*
X169682380Y-141496309D01*
X169682380Y-141305833D01*
X169634761Y-141210595D01*
X169587142Y-141162976D01*
X169491904Y-141115357D01*
X168682380Y-141115357D01*
X168682380Y-140782023D02*
X168682380Y-140210595D01*
X169682380Y-140496309D02*
X168682380Y-140496309D01*
X168777619Y-139924880D02*
X168730000Y-139877261D01*
X168682380Y-139782023D01*
X168682380Y-139543928D01*
X168730000Y-139448690D01*
X168777619Y-139401071D01*
X168872857Y-139353452D01*
X168968095Y-139353452D01*
X169110952Y-139401071D01*
X169682380Y-139972500D01*
X169682380Y-139353452D01*
X172982380Y-142734404D02*
X171982380Y-142734404D01*
X172982380Y-142162976D01*
X171982380Y-142162976D01*
X171934761Y-140972500D02*
X173220476Y-141829642D01*
X172887142Y-140067738D02*
X172934761Y-140115357D01*
X172982380Y-140258214D01*
X172982380Y-140353452D01*
X172934761Y-140496309D01*
X172839523Y-140591547D01*
X172744285Y-140639166D01*
X172553809Y-140686785D01*
X172410952Y-140686785D01*
X172220476Y-140639166D01*
X172125238Y-140591547D01*
X172030000Y-140496309D01*
X171982380Y-140353452D01*
X171982380Y-140258214D01*
X172030000Y-140115357D01*
X172077619Y-140067738D01*
X146382380Y-142977261D02*
X146382380Y-142405833D01*
X147382380Y-142691547D02*
X146382380Y-142691547D01*
X147382380Y-142072500D02*
X146382380Y-142072500D01*
X147382380Y-141643928D02*
X146858571Y-141643928D01*
X146763333Y-141691547D01*
X146715714Y-141786785D01*
X146715714Y-141929642D01*
X146763333Y-142024880D01*
X146810952Y-142072500D01*
X147334761Y-140786785D02*
X147382380Y-140882023D01*
X147382380Y-141072500D01*
X147334761Y-141167738D01*
X147239523Y-141215357D01*
X146858571Y-141215357D01*
X146763333Y-141167738D01*
X146715714Y-141072500D01*
X146715714Y-140882023D01*
X146763333Y-140786785D01*
X146858571Y-140739166D01*
X146953809Y-140739166D01*
X147049047Y-141215357D01*
X147382380Y-140310595D02*
X146715714Y-140310595D01*
X146906190Y-140310595D02*
X146810952Y-140262976D01*
X146763333Y-140215357D01*
X146715714Y-140120119D01*
X146715714Y-140024880D01*
X147382380Y-139691547D02*
X146715714Y-139691547D01*
X146810952Y-139691547D02*
X146763333Y-139643928D01*
X146715714Y-139548690D01*
X146715714Y-139405833D01*
X146763333Y-139310595D01*
X146858571Y-139262976D01*
X147382380Y-139262976D01*
X146858571Y-139262976D02*
X146763333Y-139215357D01*
X146715714Y-139120119D01*
X146715714Y-138977261D01*
X146763333Y-138882023D01*
X146858571Y-138834404D01*
X147382380Y-138834404D01*
X149682380Y-142643928D02*
X149682380Y-142453452D01*
X149730000Y-142358214D01*
X149825238Y-142262976D01*
X150015714Y-142215357D01*
X150349047Y-142215357D01*
X150539523Y-142262976D01*
X150634761Y-142358214D01*
X150682380Y-142453452D01*
X150682380Y-142643928D01*
X150634761Y-142739166D01*
X150539523Y-142834404D01*
X150349047Y-142882023D01*
X150015714Y-142882023D01*
X149825238Y-142834404D01*
X149730000Y-142739166D01*
X149682380Y-142643928D01*
X149682380Y-141786785D02*
X150491904Y-141786785D01*
X150587142Y-141739166D01*
X150634761Y-141691547D01*
X150682380Y-141596309D01*
X150682380Y-141405833D01*
X150634761Y-141310595D01*
X150587142Y-141262976D01*
X150491904Y-141215357D01*
X149682380Y-141215357D01*
X149682380Y-140882023D02*
X149682380Y-140310595D01*
X150682380Y-140596309D02*
X149682380Y-140596309D01*
X149682380Y-140072500D02*
X149682380Y-139453452D01*
X150063333Y-139786785D01*
X150063333Y-139643928D01*
X150110952Y-139548690D01*
X150158571Y-139501071D01*
X150253809Y-139453452D01*
X150491904Y-139453452D01*
X150587142Y-139501071D01*
X150634761Y-139548690D01*
X150682380Y-139643928D01*
X150682380Y-139929642D01*
X150634761Y-140024880D01*
X150587142Y-140072500D01*
X152982380Y-142643928D02*
X152982380Y-142453452D01*
X153030000Y-142358214D01*
X153125238Y-142262976D01*
X153315714Y-142215357D01*
X153649047Y-142215357D01*
X153839523Y-142262976D01*
X153934761Y-142358214D01*
X153982380Y-142453452D01*
X153982380Y-142643928D01*
X153934761Y-142739166D01*
X153839523Y-142834404D01*
X153649047Y-142882023D01*
X153315714Y-142882023D01*
X153125238Y-142834404D01*
X153030000Y-142739166D01*
X152982380Y-142643928D01*
X152982380Y-141786785D02*
X153791904Y-141786785D01*
X153887142Y-141739166D01*
X153934761Y-141691547D01*
X153982380Y-141596309D01*
X153982380Y-141405833D01*
X153934761Y-141310595D01*
X153887142Y-141262976D01*
X153791904Y-141215357D01*
X152982380Y-141215357D01*
X152982380Y-140882023D02*
X152982380Y-140310595D01*
X153982380Y-140596309D02*
X152982380Y-140596309D01*
X153077619Y-140024880D02*
X153030000Y-139977261D01*
X152982380Y-139882023D01*
X152982380Y-139643928D01*
X153030000Y-139548690D01*
X153077619Y-139501071D01*
X153172857Y-139453452D01*
X153268095Y-139453452D01*
X153410952Y-139501071D01*
X153982380Y-140072500D01*
X153982380Y-139453452D01*
X156758571Y-142501071D02*
X156758571Y-142834404D01*
X157282380Y-142834404D02*
X156282380Y-142834404D01*
X156282380Y-142358214D01*
X157282380Y-141548690D02*
X156758571Y-141548690D01*
X156663333Y-141596309D01*
X156615714Y-141691547D01*
X156615714Y-141882023D01*
X156663333Y-141977261D01*
X157234761Y-141548690D02*
X157282380Y-141643928D01*
X157282380Y-141882023D01*
X157234761Y-141977261D01*
X157139523Y-142024880D01*
X157044285Y-142024880D01*
X156949047Y-141977261D01*
X156901428Y-141882023D01*
X156901428Y-141643928D01*
X156853809Y-141548690D01*
X156615714Y-141072500D02*
X157282380Y-141072500D01*
X156710952Y-141072500D02*
X156663333Y-141024880D01*
X156615714Y-140929642D01*
X156615714Y-140786785D01*
X156663333Y-140691547D01*
X156758571Y-140643928D01*
X157282380Y-140643928D01*
X157282380Y-139405833D02*
X156282380Y-139405833D01*
X156282380Y-139024880D01*
X156330000Y-138929642D01*
X156377619Y-138882023D01*
X156472857Y-138834404D01*
X156615714Y-138834404D01*
X156710952Y-138882023D01*
X156758571Y-138929642D01*
X156806190Y-139024880D01*
X156806190Y-139405833D01*
X156282380Y-138501071D02*
X157282380Y-138262976D01*
X156568095Y-138072500D01*
X157282380Y-137882023D01*
X156282380Y-137643928D01*
X157282380Y-137262976D02*
X156282380Y-137262976D01*
X156996666Y-136929642D01*
X156282380Y-136596309D01*
X157282380Y-136596309D01*
X131109047Y-140992142D02*
X131061428Y-141039761D01*
X130918571Y-141087380D01*
X130823333Y-141087380D01*
X130680476Y-141039761D01*
X130585238Y-140944523D01*
X130537619Y-140849285D01*
X130490000Y-140658809D01*
X130490000Y-140515952D01*
X130537619Y-140325476D01*
X130585238Y-140230238D01*
X130680476Y-140135000D01*
X130823333Y-140087380D01*
X130918571Y-140087380D01*
X131061428Y-140135000D01*
X131109047Y-140182619D01*
X131537619Y-141087380D02*
X131537619Y-140087380D01*
X131966190Y-141087380D02*
X131966190Y-140563571D01*
X131918571Y-140468333D01*
X131823333Y-140420714D01*
X131680476Y-140420714D01*
X131585238Y-140468333D01*
X131537619Y-140515952D01*
X132870952Y-141087380D02*
X132870952Y-140563571D01*
X132823333Y-140468333D01*
X132728095Y-140420714D01*
X132537619Y-140420714D01*
X132442380Y-140468333D01*
X132870952Y-141039761D02*
X132775714Y-141087380D01*
X132537619Y-141087380D01*
X132442380Y-141039761D01*
X132394761Y-140944523D01*
X132394761Y-140849285D01*
X132442380Y-140754047D01*
X132537619Y-140706428D01*
X132775714Y-140706428D01*
X132870952Y-140658809D01*
X133347142Y-140420714D02*
X133347142Y-141087380D01*
X133347142Y-140515952D02*
X133394761Y-140468333D01*
X133490000Y-140420714D01*
X133632857Y-140420714D01*
X133728095Y-140468333D01*
X133775714Y-140563571D01*
X133775714Y-141087380D01*
X134251904Y-140420714D02*
X134251904Y-141087380D01*
X134251904Y-140515952D02*
X134299523Y-140468333D01*
X134394761Y-140420714D01*
X134537619Y-140420714D01*
X134632857Y-140468333D01*
X134680476Y-140563571D01*
X134680476Y-141087380D01*
X135537619Y-141039761D02*
X135442380Y-141087380D01*
X135251904Y-141087380D01*
X135156666Y-141039761D01*
X135109047Y-140944523D01*
X135109047Y-140563571D01*
X135156666Y-140468333D01*
X135251904Y-140420714D01*
X135442380Y-140420714D01*
X135537619Y-140468333D01*
X135585238Y-140563571D01*
X135585238Y-140658809D01*
X135109047Y-140754047D01*
X136156666Y-141087380D02*
X136061428Y-141039761D01*
X136013809Y-140944523D01*
X136013809Y-140087380D01*
X137251904Y-141039761D02*
X137394761Y-141087380D01*
X137632857Y-141087380D01*
X137728095Y-141039761D01*
X137775714Y-140992142D01*
X137823333Y-140896904D01*
X137823333Y-140801666D01*
X137775714Y-140706428D01*
X137728095Y-140658809D01*
X137632857Y-140611190D01*
X137442380Y-140563571D01*
X137347142Y-140515952D01*
X137299523Y-140468333D01*
X137251904Y-140373095D01*
X137251904Y-140277857D01*
X137299523Y-140182619D01*
X137347142Y-140135000D01*
X137442380Y-140087380D01*
X137680476Y-140087380D01*
X137823333Y-140135000D01*
X138632857Y-141039761D02*
X138537619Y-141087380D01*
X138347142Y-141087380D01*
X138251904Y-141039761D01*
X138204285Y-140944523D01*
X138204285Y-140563571D01*
X138251904Y-140468333D01*
X138347142Y-140420714D01*
X138537619Y-140420714D01*
X138632857Y-140468333D01*
X138680476Y-140563571D01*
X138680476Y-140658809D01*
X138204285Y-140754047D01*
X139251904Y-141087380D02*
X139156666Y-141039761D01*
X139109047Y-140944523D01*
X139109047Y-140087380D01*
X140013809Y-141039761D02*
X139918571Y-141087380D01*
X139728095Y-141087380D01*
X139632857Y-141039761D01*
X139585238Y-140944523D01*
X139585238Y-140563571D01*
X139632857Y-140468333D01*
X139728095Y-140420714D01*
X139918571Y-140420714D01*
X140013809Y-140468333D01*
X140061428Y-140563571D01*
X140061428Y-140658809D01*
X139585238Y-140754047D01*
X140918571Y-141039761D02*
X140823333Y-141087380D01*
X140632857Y-141087380D01*
X140537619Y-141039761D01*
X140490000Y-140992142D01*
X140442380Y-140896904D01*
X140442380Y-140611190D01*
X140490000Y-140515952D01*
X140537619Y-140468333D01*
X140632857Y-140420714D01*
X140823333Y-140420714D01*
X140918571Y-140468333D01*
X141204285Y-140420714D02*
X141585238Y-140420714D01*
X141347142Y-140087380D02*
X141347142Y-140944523D01*
X141394761Y-141039761D01*
X141490000Y-141087380D01*
X141585238Y-141087380D01*
X132466190Y-142070714D02*
X132466190Y-142737380D01*
X132228095Y-141689761D02*
X131990000Y-142404047D01*
X132609047Y-142404047D01*
X134418571Y-141737380D02*
X135037619Y-141737380D01*
X134704285Y-142118333D01*
X134847142Y-142118333D01*
X134942380Y-142165952D01*
X134990000Y-142213571D01*
X135037619Y-142308809D01*
X135037619Y-142546904D01*
X134990000Y-142642142D01*
X134942380Y-142689761D01*
X134847142Y-142737380D01*
X134561428Y-142737380D01*
X134466190Y-142689761D01*
X134418571Y-142642142D01*
X136942380Y-141832619D02*
X136990000Y-141785000D01*
X137085238Y-141737380D01*
X137323333Y-141737380D01*
X137418571Y-141785000D01*
X137466190Y-141832619D01*
X137513809Y-141927857D01*
X137513809Y-142023095D01*
X137466190Y-142165952D01*
X136894761Y-142737380D01*
X137513809Y-142737380D01*
X139990000Y-142737380D02*
X139418571Y-142737380D01*
X139704285Y-142737380D02*
X139704285Y-141737380D01*
X139609047Y-141880238D01*
X139513809Y-141975476D01*
X139418571Y-142023095D01*
X115357619Y-141097380D02*
X114881428Y-141097380D01*
X114881428Y-140097380D01*
X115690952Y-140573571D02*
X116024285Y-140573571D01*
X116167142Y-141097380D02*
X115690952Y-141097380D01*
X115690952Y-140097380D01*
X116167142Y-140097380D01*
X116595714Y-141097380D02*
X116595714Y-140097380D01*
X116833809Y-140097380D01*
X116976666Y-140145000D01*
X117071904Y-140240238D01*
X117119523Y-140335476D01*
X117167142Y-140525952D01*
X117167142Y-140668809D01*
X117119523Y-140859285D01*
X117071904Y-140954523D01*
X116976666Y-141049761D01*
X116833809Y-141097380D01*
X116595714Y-141097380D01*
X118214761Y-140097380D02*
X118786190Y-140097380D01*
X118500476Y-141097380D02*
X118500476Y-140097380D01*
X119119523Y-141097380D02*
X119119523Y-140097380D01*
X119548095Y-141097380D02*
X119548095Y-140573571D01*
X119500476Y-140478333D01*
X119405238Y-140430714D01*
X119262380Y-140430714D01*
X119167142Y-140478333D01*
X119119523Y-140525952D01*
X120405238Y-141049761D02*
X120310000Y-141097380D01*
X120119523Y-141097380D01*
X120024285Y-141049761D01*
X119976666Y-140954523D01*
X119976666Y-140573571D01*
X120024285Y-140478333D01*
X120119523Y-140430714D01*
X120310000Y-140430714D01*
X120405238Y-140478333D01*
X120452857Y-140573571D01*
X120452857Y-140668809D01*
X119976666Y-140764047D01*
X120881428Y-141097380D02*
X120881428Y-140430714D01*
X120881428Y-140621190D02*
X120929047Y-140525952D01*
X120976666Y-140478333D01*
X121071904Y-140430714D01*
X121167142Y-140430714D01*
X121500476Y-141097380D02*
X121500476Y-140430714D01*
X121500476Y-140525952D02*
X121548095Y-140478333D01*
X121643333Y-140430714D01*
X121786190Y-140430714D01*
X121881428Y-140478333D01*
X121929047Y-140573571D01*
X121929047Y-141097380D01*
X121929047Y-140573571D02*
X121976666Y-140478333D01*
X122071904Y-140430714D01*
X122214761Y-140430714D01*
X122310000Y-140478333D01*
X122357619Y-140573571D01*
X122357619Y-141097380D01*
X122833809Y-141097380D02*
X122833809Y-140430714D01*
X122833809Y-140097380D02*
X122786190Y-140145000D01*
X122833809Y-140192619D01*
X122881428Y-140145000D01*
X122833809Y-140097380D01*
X122833809Y-140192619D01*
X123262380Y-141049761D02*
X123357619Y-141097380D01*
X123548095Y-141097380D01*
X123643333Y-141049761D01*
X123690952Y-140954523D01*
X123690952Y-140906904D01*
X123643333Y-140811666D01*
X123548095Y-140764047D01*
X123405238Y-140764047D01*
X123310000Y-140716428D01*
X123262380Y-140621190D01*
X123262380Y-140573571D01*
X123310000Y-140478333D01*
X123405238Y-140430714D01*
X123548095Y-140430714D01*
X123643333Y-140478333D01*
X123976666Y-140430714D02*
X124357619Y-140430714D01*
X124119523Y-140097380D02*
X124119523Y-140954523D01*
X124167142Y-141049761D01*
X124262380Y-141097380D01*
X124357619Y-141097380D01*
X124833809Y-141097380D02*
X124738571Y-141049761D01*
X124690952Y-141002142D01*
X124643333Y-140906904D01*
X124643333Y-140621190D01*
X124690952Y-140525952D01*
X124738571Y-140478333D01*
X124833809Y-140430714D01*
X124976666Y-140430714D01*
X125071904Y-140478333D01*
X125119523Y-140525952D01*
X125167142Y-140621190D01*
X125167142Y-140906904D01*
X125119523Y-141002142D01*
X125071904Y-141049761D01*
X124976666Y-141097380D01*
X124833809Y-141097380D01*
X125595714Y-141097380D02*
X125595714Y-140430714D01*
X125595714Y-140621190D02*
X125643333Y-140525952D01*
X125690952Y-140478333D01*
X125786190Y-140430714D01*
X125881428Y-140430714D01*
X116786190Y-142080714D02*
X116786190Y-142747380D01*
X116548095Y-141699761D02*
X116310000Y-142414047D01*
X116929047Y-142414047D01*
X118738571Y-141747380D02*
X119357619Y-141747380D01*
X119024285Y-142128333D01*
X119167142Y-142128333D01*
X119262380Y-142175952D01*
X119310000Y-142223571D01*
X119357619Y-142318809D01*
X119357619Y-142556904D01*
X119310000Y-142652142D01*
X119262380Y-142699761D01*
X119167142Y-142747380D01*
X118881428Y-142747380D01*
X118786190Y-142699761D01*
X118738571Y-142652142D01*
X121262380Y-141842619D02*
X121310000Y-141795000D01*
X121405238Y-141747380D01*
X121643333Y-141747380D01*
X121738571Y-141795000D01*
X121786190Y-141842619D01*
X121833809Y-141937857D01*
X121833809Y-142033095D01*
X121786190Y-142175952D01*
X121214761Y-142747380D01*
X121833809Y-142747380D01*
X124310000Y-142747380D02*
X123738571Y-142747380D01*
X124024285Y-142747380D02*
X124024285Y-141747380D01*
X123929047Y-141890238D01*
X123833809Y-141985476D01*
X123738571Y-142033095D01*
X85870000Y-138112380D02*
X85870000Y-138350476D01*
X85631904Y-138255238D02*
X85870000Y-138350476D01*
X86108095Y-138255238D01*
X85727142Y-138540952D02*
X85870000Y-138350476D01*
X86012857Y-138540952D01*
X93982380Y-138669047D02*
X93982380Y-139240476D01*
X93982380Y-138954761D02*
X92982380Y-138954761D01*
X93125238Y-139050000D01*
X93220476Y-139145238D01*
X93268095Y-139240476D01*
X93410952Y-138097619D02*
X93363333Y-138192857D01*
X93315714Y-138240476D01*
X93220476Y-138288095D01*
X93172857Y-138288095D01*
X93077619Y-138240476D01*
X93030000Y-138192857D01*
X92982380Y-138097619D01*
X92982380Y-137907142D01*
X93030000Y-137811904D01*
X93077619Y-137764285D01*
X93172857Y-137716666D01*
X93220476Y-137716666D01*
X93315714Y-137764285D01*
X93363333Y-137811904D01*
X93410952Y-137907142D01*
X93410952Y-138097619D01*
X93458571Y-138192857D01*
X93506190Y-138240476D01*
X93601428Y-138288095D01*
X93791904Y-138288095D01*
X93887142Y-138240476D01*
X93934761Y-138192857D01*
X93982380Y-138097619D01*
X93982380Y-137907142D01*
X93934761Y-137811904D01*
X93887142Y-137764285D01*
X93791904Y-137716666D01*
X93601428Y-137716666D01*
X93506190Y-137764285D01*
X93458571Y-137811904D01*
X93410952Y-137907142D01*
X92982380Y-137430952D02*
X93982380Y-137097619D01*
X92982380Y-136764285D01*
X88852380Y-138689047D02*
X88852380Y-139260476D01*
X88852380Y-138974761D02*
X87852380Y-138974761D01*
X87995238Y-139070000D01*
X88090476Y-139165238D01*
X88138095Y-139260476D01*
X87947619Y-138308095D02*
X87900000Y-138260476D01*
X87852380Y-138165238D01*
X87852380Y-137927142D01*
X87900000Y-137831904D01*
X87947619Y-137784285D01*
X88042857Y-137736666D01*
X88138095Y-137736666D01*
X88280952Y-137784285D01*
X88852380Y-138355714D01*
X88852380Y-137736666D01*
X87852380Y-137450952D02*
X88852380Y-137117619D01*
X87852380Y-136784285D01*
X90460000Y-132591904D02*
X90412380Y-132687142D01*
X90412380Y-132830000D01*
X90460000Y-132972857D01*
X90555238Y-133068095D01*
X90650476Y-133115714D01*
X90840952Y-133163333D01*
X90983809Y-133163333D01*
X91174285Y-133115714D01*
X91269523Y-133068095D01*
X91364761Y-132972857D01*
X91412380Y-132830000D01*
X91412380Y-132734761D01*
X91364761Y-132591904D01*
X91317142Y-132544285D01*
X90983809Y-132544285D01*
X90983809Y-132734761D01*
X91412380Y-132115714D02*
X90412380Y-132115714D01*
X91412380Y-131544285D01*
X90412380Y-131544285D01*
X91412380Y-131068095D02*
X90412380Y-131068095D01*
X90412380Y-130830000D01*
X90460000Y-130687142D01*
X90555238Y-130591904D01*
X90650476Y-130544285D01*
X90840952Y-130496666D01*
X90983809Y-130496666D01*
X91174285Y-130544285D01*
X91269523Y-130591904D01*
X91364761Y-130687142D01*
X91412380Y-130830000D01*
X91412380Y-131068095D01*
X85350000Y-132631904D02*
X85302380Y-132727142D01*
X85302380Y-132870000D01*
X85350000Y-133012857D01*
X85445238Y-133108095D01*
X85540476Y-133155714D01*
X85730952Y-133203333D01*
X85873809Y-133203333D01*
X86064285Y-133155714D01*
X86159523Y-133108095D01*
X86254761Y-133012857D01*
X86302380Y-132870000D01*
X86302380Y-132774761D01*
X86254761Y-132631904D01*
X86207142Y-132584285D01*
X85873809Y-132584285D01*
X85873809Y-132774761D01*
X86302380Y-132155714D02*
X85302380Y-132155714D01*
X86302380Y-131584285D01*
X85302380Y-131584285D01*
X86302380Y-131108095D02*
X85302380Y-131108095D01*
X85302380Y-130870000D01*
X85350000Y-130727142D01*
X85445238Y-130631904D01*
X85540476Y-130584285D01*
X85730952Y-130536666D01*
X85873809Y-130536666D01*
X86064285Y-130584285D01*
X86159523Y-130631904D01*
X86254761Y-130727142D01*
X86302380Y-130870000D01*
X86302380Y-131108095D01*
X86064285Y-113838571D02*
X85350000Y-113838571D01*
X85350000Y-112338571D01*
X86564285Y-113052857D02*
X87064285Y-113052857D01*
X87278571Y-113838571D02*
X86564285Y-113838571D01*
X86564285Y-112338571D01*
X87278571Y-112338571D01*
X87921428Y-113838571D02*
X87921428Y-112338571D01*
X88278571Y-112338571D01*
X88492857Y-112410000D01*
X88635714Y-112552857D01*
X88707142Y-112695714D01*
X88778571Y-112981428D01*
X88778571Y-113195714D01*
X88707142Y-113481428D01*
X88635714Y-113624285D01*
X88492857Y-113767142D01*
X88278571Y-113838571D01*
X87921428Y-113838571D01*
X91064285Y-113052857D02*
X90564285Y-113052857D01*
X90564285Y-113838571D02*
X90564285Y-112338571D01*
X91278571Y-112338571D01*
X92492857Y-113838571D02*
X92492857Y-113052857D01*
X92421428Y-112910000D01*
X92278571Y-112838571D01*
X91992857Y-112838571D01*
X91850000Y-112910000D01*
X92492857Y-113767142D02*
X92350000Y-113838571D01*
X91992857Y-113838571D01*
X91850000Y-113767142D01*
X91778571Y-113624285D01*
X91778571Y-113481428D01*
X91850000Y-113338571D01*
X91992857Y-113267142D01*
X92350000Y-113267142D01*
X92492857Y-113195714D01*
X93207142Y-112838571D02*
X93207142Y-113838571D01*
X93207142Y-112981428D02*
X93278571Y-112910000D01*
X93421428Y-112838571D01*
X93635714Y-112838571D01*
X93778571Y-112910000D01*
X93850000Y-113052857D01*
X93850000Y-113838571D01*
X86064285Y-96188571D02*
X85350000Y-96188571D01*
X85350000Y-94688571D01*
X86564285Y-95402857D02*
X87064285Y-95402857D01*
X87278571Y-96188571D02*
X86564285Y-96188571D01*
X86564285Y-94688571D01*
X87278571Y-94688571D01*
X87921428Y-96188571D02*
X87921428Y-94688571D01*
X88278571Y-94688571D01*
X88492857Y-94760000D01*
X88635714Y-94902857D01*
X88707142Y-95045714D01*
X88778571Y-95331428D01*
X88778571Y-95545714D01*
X88707142Y-95831428D01*
X88635714Y-95974285D01*
X88492857Y-96117142D01*
X88278571Y-96188571D01*
X87921428Y-96188571D01*
X91064285Y-95402857D02*
X90564285Y-95402857D01*
X90564285Y-96188571D02*
X90564285Y-94688571D01*
X91278571Y-94688571D01*
X92492857Y-96188571D02*
X92492857Y-95402857D01*
X92421428Y-95260000D01*
X92278571Y-95188571D01*
X91992857Y-95188571D01*
X91850000Y-95260000D01*
X92492857Y-96117142D02*
X92350000Y-96188571D01*
X91992857Y-96188571D01*
X91850000Y-96117142D01*
X91778571Y-95974285D01*
X91778571Y-95831428D01*
X91850000Y-95688571D01*
X91992857Y-95617142D01*
X92350000Y-95617142D01*
X92492857Y-95545714D01*
X93207142Y-95188571D02*
X93207142Y-96188571D01*
X93207142Y-95331428D02*
X93278571Y-95260000D01*
X93421428Y-95188571D01*
X93635714Y-95188571D01*
X93778571Y-95260000D01*
X93850000Y-95402857D01*
X93850000Y-96188571D01*
X86044285Y-78468571D02*
X85330000Y-78468571D01*
X85330000Y-76968571D01*
X86544285Y-77682857D02*
X87044285Y-77682857D01*
X87258571Y-78468571D02*
X86544285Y-78468571D01*
X86544285Y-76968571D01*
X87258571Y-76968571D01*
X87901428Y-78468571D02*
X87901428Y-76968571D01*
X88258571Y-76968571D01*
X88472857Y-77040000D01*
X88615714Y-77182857D01*
X88687142Y-77325714D01*
X88758571Y-77611428D01*
X88758571Y-77825714D01*
X88687142Y-78111428D01*
X88615714Y-78254285D01*
X88472857Y-78397142D01*
X88258571Y-78468571D01*
X87901428Y-78468571D01*
X91044285Y-77682857D02*
X90544285Y-77682857D01*
X90544285Y-78468571D02*
X90544285Y-76968571D01*
X91258571Y-76968571D01*
X92472857Y-78468571D02*
X92472857Y-77682857D01*
X92401428Y-77540000D01*
X92258571Y-77468571D01*
X91972857Y-77468571D01*
X91830000Y-77540000D01*
X92472857Y-78397142D02*
X92330000Y-78468571D01*
X91972857Y-78468571D01*
X91830000Y-78397142D01*
X91758571Y-78254285D01*
X91758571Y-78111428D01*
X91830000Y-77968571D01*
X91972857Y-77897142D01*
X92330000Y-77897142D01*
X92472857Y-77825714D01*
X93187142Y-77468571D02*
X93187142Y-78468571D01*
X93187142Y-77611428D02*
X93258571Y-77540000D01*
X93401428Y-77468571D01*
X93615714Y-77468571D01*
X93758571Y-77540000D01*
X93830000Y-77682857D01*
X93830000Y-78468571D01*
X86024285Y-60688571D02*
X85310000Y-60688571D01*
X85310000Y-59188571D01*
X86524285Y-59902857D02*
X87024285Y-59902857D01*
X87238571Y-60688571D02*
X86524285Y-60688571D01*
X86524285Y-59188571D01*
X87238571Y-59188571D01*
X87881428Y-60688571D02*
X87881428Y-59188571D01*
X88238571Y-59188571D01*
X88452857Y-59260000D01*
X88595714Y-59402857D01*
X88667142Y-59545714D01*
X88738571Y-59831428D01*
X88738571Y-60045714D01*
X88667142Y-60331428D01*
X88595714Y-60474285D01*
X88452857Y-60617142D01*
X88238571Y-60688571D01*
X87881428Y-60688571D01*
X91024285Y-59902857D02*
X90524285Y-59902857D01*
X90524285Y-60688571D02*
X90524285Y-59188571D01*
X91238571Y-59188571D01*
X92452857Y-60688571D02*
X92452857Y-59902857D01*
X92381428Y-59760000D01*
X92238571Y-59688571D01*
X91952857Y-59688571D01*
X91810000Y-59760000D01*
X92452857Y-60617142D02*
X92310000Y-60688571D01*
X91952857Y-60688571D01*
X91810000Y-60617142D01*
X91738571Y-60474285D01*
X91738571Y-60331428D01*
X91810000Y-60188571D01*
X91952857Y-60117142D01*
X92310000Y-60117142D01*
X92452857Y-60045714D01*
X93167142Y-59688571D02*
X93167142Y-60688571D01*
X93167142Y-59831428D02*
X93238571Y-59760000D01*
X93381428Y-59688571D01*
X93595714Y-59688571D01*
X93738571Y-59760000D01*
X93810000Y-59902857D01*
X93810000Y-60688571D01*
D10*
X188938571Y-127937857D02*
X187438571Y-127937857D01*
X187438571Y-127580714D01*
X187510000Y-127366428D01*
X187652857Y-127223571D01*
X187795714Y-127152142D01*
X188081428Y-127080714D01*
X188295714Y-127080714D01*
X188581428Y-127152142D01*
X188724285Y-127223571D01*
X188867142Y-127366428D01*
X188938571Y-127580714D01*
X188938571Y-127937857D01*
X188867142Y-125866428D02*
X188938571Y-126009285D01*
X188938571Y-126295000D01*
X188867142Y-126437857D01*
X188724285Y-126509285D01*
X188152857Y-126509285D01*
X188010000Y-126437857D01*
X187938571Y-126295000D01*
X187938571Y-126009285D01*
X188010000Y-125866428D01*
X188152857Y-125795000D01*
X188295714Y-125795000D01*
X188438571Y-126509285D01*
X188867142Y-125223571D02*
X188938571Y-125080714D01*
X188938571Y-124795000D01*
X188867142Y-124652142D01*
X188724285Y-124580714D01*
X188652857Y-124580714D01*
X188510000Y-124652142D01*
X188438571Y-124795000D01*
X188438571Y-125009285D01*
X188367142Y-125152142D01*
X188224285Y-125223571D01*
X188152857Y-125223571D01*
X188010000Y-125152142D01*
X187938571Y-125009285D01*
X187938571Y-124795000D01*
X188010000Y-124652142D01*
X188938571Y-123937857D02*
X187938571Y-123937857D01*
X187438571Y-123937857D02*
X187510000Y-124009285D01*
X187581428Y-123937857D01*
X187510000Y-123866428D01*
X187438571Y-123937857D01*
X187581428Y-123937857D01*
X187938571Y-122580714D02*
X189152857Y-122580714D01*
X189295714Y-122652142D01*
X189367142Y-122723571D01*
X189438571Y-122866428D01*
X189438571Y-123080714D01*
X189367142Y-123223571D01*
X188867142Y-122580714D02*
X188938571Y-122723571D01*
X188938571Y-123009285D01*
X188867142Y-123152142D01*
X188795714Y-123223571D01*
X188652857Y-123295000D01*
X188224285Y-123295000D01*
X188081428Y-123223571D01*
X188010000Y-123152142D01*
X187938571Y-123009285D01*
X187938571Y-122723571D01*
X188010000Y-122580714D01*
X187938571Y-121866428D02*
X188938571Y-121866428D01*
X188081428Y-121866428D02*
X188010000Y-121795000D01*
X187938571Y-121652142D01*
X187938571Y-121437857D01*
X188010000Y-121295000D01*
X188152857Y-121223571D01*
X188938571Y-121223571D01*
X188867142Y-119937857D02*
X188938571Y-120080714D01*
X188938571Y-120366428D01*
X188867142Y-120509285D01*
X188724285Y-120580714D01*
X188152857Y-120580714D01*
X188010000Y-120509285D01*
X187938571Y-120366428D01*
X187938571Y-120080714D01*
X188010000Y-119937857D01*
X188152857Y-119866428D01*
X188295714Y-119866428D01*
X188438571Y-120580714D01*
X188938571Y-118580714D02*
X187438571Y-118580714D01*
X188867142Y-118580714D02*
X188938571Y-118723571D01*
X188938571Y-119009285D01*
X188867142Y-119152142D01*
X188795714Y-119223571D01*
X188652857Y-119295000D01*
X188224285Y-119295000D01*
X188081428Y-119223571D01*
X188010000Y-119152142D01*
X187938571Y-119009285D01*
X187938571Y-118723571D01*
X188010000Y-118580714D01*
X188938571Y-116723571D02*
X187438571Y-116723571D01*
X188010000Y-116723571D02*
X187938571Y-116580714D01*
X187938571Y-116295000D01*
X188010000Y-116152142D01*
X188081428Y-116080714D01*
X188224285Y-116009285D01*
X188652857Y-116009285D01*
X188795714Y-116080714D01*
X188867142Y-116152142D01*
X188938571Y-116295000D01*
X188938571Y-116580714D01*
X188867142Y-116723571D01*
X187938571Y-115509285D02*
X188938571Y-115152142D01*
X187938571Y-114795000D02*
X188938571Y-115152142D01*
X189295714Y-115295000D01*
X189367142Y-115366428D01*
X189438571Y-115509285D01*
X188795714Y-114223571D02*
X188867142Y-114152142D01*
X188938571Y-114223571D01*
X188867142Y-114295000D01*
X188795714Y-114223571D01*
X188938571Y-114223571D01*
X188010000Y-114223571D02*
X188081428Y-114152142D01*
X188152857Y-114223571D01*
X188081428Y-114295000D01*
X188010000Y-114223571D01*
X188152857Y-114223571D01*
X188152857Y-111866428D02*
X188224285Y-111652142D01*
X188295714Y-111580714D01*
X188438571Y-111509285D01*
X188652857Y-111509285D01*
X188795714Y-111580714D01*
X188867142Y-111652142D01*
X188938571Y-111795000D01*
X188938571Y-112366428D01*
X187438571Y-112366428D01*
X187438571Y-111866428D01*
X187510000Y-111723571D01*
X187581428Y-111652142D01*
X187724285Y-111580714D01*
X187867142Y-111580714D01*
X188010000Y-111652142D01*
X188081428Y-111723571D01*
X188152857Y-111866428D01*
X188152857Y-112366428D01*
X188867142Y-110295000D02*
X188938571Y-110437857D01*
X188938571Y-110723571D01*
X188867142Y-110866428D01*
X188724285Y-110937857D01*
X188152857Y-110937857D01*
X188010000Y-110866428D01*
X187938571Y-110723571D01*
X187938571Y-110437857D01*
X188010000Y-110295000D01*
X188152857Y-110223571D01*
X188295714Y-110223571D01*
X188438571Y-110937857D01*
X187938571Y-109580714D02*
X188938571Y-109580714D01*
X188081428Y-109580714D02*
X188010000Y-109509285D01*
X187938571Y-109366428D01*
X187938571Y-109152142D01*
X188010000Y-109009285D01*
X188152857Y-108937857D01*
X188938571Y-108937857D01*
X187938571Y-108223571D02*
X189224285Y-108223571D01*
X189367142Y-108295000D01*
X189438571Y-108437857D01*
X189438571Y-108509285D01*
X187438571Y-108223571D02*
X187510000Y-108295000D01*
X187581428Y-108223571D01*
X187510000Y-108152142D01*
X187438571Y-108223571D01*
X187581428Y-108223571D01*
X188938571Y-106866428D02*
X188152857Y-106866428D01*
X188010000Y-106937857D01*
X187938571Y-107080714D01*
X187938571Y-107366428D01*
X188010000Y-107509285D01*
X188867142Y-106866428D02*
X188938571Y-107009285D01*
X188938571Y-107366428D01*
X188867142Y-107509285D01*
X188724285Y-107580714D01*
X188581428Y-107580714D01*
X188438571Y-107509285D01*
X188367142Y-107366428D01*
X188367142Y-107009285D01*
X188295714Y-106866428D01*
X188938571Y-106152142D02*
X187938571Y-106152142D01*
X188081428Y-106152142D02*
X188010000Y-106080714D01*
X187938571Y-105937857D01*
X187938571Y-105723571D01*
X188010000Y-105580714D01*
X188152857Y-105509285D01*
X188938571Y-105509285D01*
X188152857Y-105509285D02*
X188010000Y-105437857D01*
X187938571Y-105295000D01*
X187938571Y-105080714D01*
X188010000Y-104937857D01*
X188152857Y-104866428D01*
X188938571Y-104866428D01*
X188938571Y-104152142D02*
X187938571Y-104152142D01*
X187438571Y-104152142D02*
X187510000Y-104223571D01*
X187581428Y-104152142D01*
X187510000Y-104080714D01*
X187438571Y-104152142D01*
X187581428Y-104152142D01*
X187938571Y-103437857D02*
X188938571Y-103437857D01*
X188081428Y-103437857D02*
X188010000Y-103366428D01*
X187938571Y-103223571D01*
X187938571Y-103009285D01*
X188010000Y-102866428D01*
X188152857Y-102795000D01*
X188938571Y-102795000D01*
X188152857Y-100937857D02*
X188152857Y-100437857D01*
X188938571Y-100223571D02*
X188938571Y-100937857D01*
X187438571Y-100937857D01*
X187438571Y-100223571D01*
X188795714Y-99580714D02*
X188867142Y-99509285D01*
X188938571Y-99580714D01*
X188867142Y-99652142D01*
X188795714Y-99580714D01*
X188938571Y-99580714D01*
X188867142Y-97795000D02*
X188938571Y-97580714D01*
X188938571Y-97223571D01*
X188867142Y-97080714D01*
X188795714Y-97009285D01*
X188652857Y-96937857D01*
X188510000Y-96937857D01*
X188367142Y-97009285D01*
X188295714Y-97080714D01*
X188224285Y-97223571D01*
X188152857Y-97509285D01*
X188081428Y-97652142D01*
X188010000Y-97723571D01*
X187867142Y-97795000D01*
X187724285Y-97795000D01*
X187581428Y-97723571D01*
X187510000Y-97652142D01*
X187438571Y-97509285D01*
X187438571Y-97152142D01*
X187510000Y-96937857D01*
X188938571Y-96295000D02*
X187938571Y-96295000D01*
X188081428Y-96295000D02*
X188010000Y-96223571D01*
X187938571Y-96080714D01*
X187938571Y-95866428D01*
X188010000Y-95723571D01*
X188152857Y-95652142D01*
X188938571Y-95652142D01*
X188152857Y-95652142D02*
X188010000Y-95580714D01*
X187938571Y-95437857D01*
X187938571Y-95223571D01*
X188010000Y-95080714D01*
X188152857Y-95009285D01*
X188938571Y-95009285D01*
X188938571Y-94295000D02*
X187938571Y-94295000D01*
X187438571Y-94295000D02*
X187510000Y-94366428D01*
X187581428Y-94295000D01*
X187510000Y-94223571D01*
X187438571Y-94295000D01*
X187581428Y-94295000D01*
X187938571Y-93795000D02*
X187938571Y-93223571D01*
X187438571Y-93580714D02*
X188724285Y-93580714D01*
X188867142Y-93509285D01*
X188938571Y-93366428D01*
X188938571Y-93223571D01*
X188938571Y-92723571D02*
X187438571Y-92723571D01*
X188938571Y-92080714D02*
X188152857Y-92080714D01*
X188010000Y-92152142D01*
X187938571Y-92295000D01*
X187938571Y-92509285D01*
X188010000Y-92652142D01*
X188081428Y-92723571D01*
X190702857Y-127437857D02*
X190702857Y-127937857D01*
X191488571Y-127937857D02*
X189988571Y-127937857D01*
X189988571Y-127223571D01*
X190488571Y-126009285D02*
X191488571Y-126009285D01*
X190488571Y-126652142D02*
X191274285Y-126652142D01*
X191417142Y-126580714D01*
X191488571Y-126437857D01*
X191488571Y-126223571D01*
X191417142Y-126080714D01*
X191345714Y-126009285D01*
X190488571Y-125295000D02*
X191488571Y-125295000D01*
X190631428Y-125295000D02*
X190560000Y-125223571D01*
X190488571Y-125080714D01*
X190488571Y-124866428D01*
X190560000Y-124723571D01*
X190702857Y-124652142D01*
X191488571Y-124652142D01*
X191488571Y-123295000D02*
X189988571Y-123295000D01*
X191417142Y-123295000D02*
X191488571Y-123437857D01*
X191488571Y-123723571D01*
X191417142Y-123866428D01*
X191345714Y-123937857D01*
X191202857Y-124009285D01*
X190774285Y-124009285D01*
X190631428Y-123937857D01*
X190560000Y-123866428D01*
X190488571Y-123723571D01*
X190488571Y-123437857D01*
X190560000Y-123295000D01*
X191417142Y-122009285D02*
X191488571Y-122152142D01*
X191488571Y-122437857D01*
X191417142Y-122580714D01*
X191274285Y-122652142D01*
X190702857Y-122652142D01*
X190560000Y-122580714D01*
X190488571Y-122437857D01*
X190488571Y-122152142D01*
X190560000Y-122009285D01*
X190702857Y-121937857D01*
X190845714Y-121937857D01*
X190988571Y-122652142D01*
X191488571Y-120652142D02*
X189988571Y-120652142D01*
X191417142Y-120652142D02*
X191488571Y-120795000D01*
X191488571Y-121080714D01*
X191417142Y-121223571D01*
X191345714Y-121295000D01*
X191202857Y-121366428D01*
X190774285Y-121366428D01*
X190631428Y-121295000D01*
X190560000Y-121223571D01*
X190488571Y-121080714D01*
X190488571Y-120795000D01*
X190560000Y-120652142D01*
X191488571Y-118795000D02*
X189988571Y-118795000D01*
X190560000Y-118795000D02*
X190488571Y-118652142D01*
X190488571Y-118366428D01*
X190560000Y-118223571D01*
X190631428Y-118152142D01*
X190774285Y-118080714D01*
X191202857Y-118080714D01*
X191345714Y-118152142D01*
X191417142Y-118223571D01*
X191488571Y-118366428D01*
X191488571Y-118652142D01*
X191417142Y-118795000D01*
X190488571Y-117580714D02*
X191488571Y-117223571D01*
X190488571Y-116866428D02*
X191488571Y-117223571D01*
X191845714Y-117366428D01*
X191917142Y-117437857D01*
X191988571Y-117580714D01*
X191345714Y-116295000D02*
X191417142Y-116223571D01*
X191488571Y-116295000D01*
X191417142Y-116366428D01*
X191345714Y-116295000D01*
X191488571Y-116295000D01*
X190560000Y-116295000D02*
X190631428Y-116223571D01*
X190702857Y-116295000D01*
X190631428Y-116366428D01*
X190560000Y-116295000D01*
X190702857Y-116295000D01*
X191488571Y-114437857D02*
X189988571Y-114437857D01*
X191488571Y-113580714D01*
X189988571Y-113580714D01*
X191488571Y-112866428D02*
X189988571Y-112866428D01*
X191488571Y-112152142D02*
X189988571Y-112152142D01*
X190702857Y-112152142D02*
X190702857Y-111295000D01*
X191488571Y-111295000D02*
X189988571Y-111295000D01*
X191488571Y-109437857D02*
X189988571Y-109437857D01*
X189988571Y-108866428D01*
X190060000Y-108723571D01*
X190131428Y-108652142D01*
X190274285Y-108580714D01*
X190488571Y-108580714D01*
X190631428Y-108652142D01*
X190702857Y-108723571D01*
X190774285Y-108866428D01*
X190774285Y-109437857D01*
X189988571Y-108080714D02*
X189988571Y-107152142D01*
X190560000Y-107652142D01*
X190560000Y-107437857D01*
X190631428Y-107295000D01*
X190702857Y-107223571D01*
X190845714Y-107152142D01*
X191202857Y-107152142D01*
X191345714Y-107223571D01*
X191417142Y-107295000D01*
X191488571Y-107437857D01*
X191488571Y-107866428D01*
X191417142Y-108009285D01*
X191345714Y-108080714D01*
X189988571Y-106223571D02*
X189988571Y-106080714D01*
X190060000Y-105937857D01*
X190131428Y-105866428D01*
X190274285Y-105795000D01*
X190560000Y-105723571D01*
X190917142Y-105723571D01*
X191202857Y-105795000D01*
X191345714Y-105866428D01*
X191417142Y-105937857D01*
X191488571Y-106080714D01*
X191488571Y-106223571D01*
X191417142Y-106366428D01*
X191345714Y-106437857D01*
X191202857Y-106509285D01*
X190917142Y-106580714D01*
X190560000Y-106580714D01*
X190274285Y-106509285D01*
X190131428Y-106437857D01*
X190060000Y-106366428D01*
X189988571Y-106223571D01*
X190702857Y-105080714D02*
X190702857Y-104580714D01*
X191488571Y-104366428D02*
X191488571Y-105080714D01*
X189988571Y-105080714D01*
X189988571Y-104366428D01*
X190774285Y-103437857D02*
X191488571Y-103437857D01*
X189988571Y-103937857D02*
X190774285Y-103437857D01*
X189988571Y-102937857D01*
X189988571Y-102152142D02*
X189988571Y-102009285D01*
X190060000Y-101866428D01*
X190131428Y-101795000D01*
X190274285Y-101723571D01*
X190560000Y-101652142D01*
X190917142Y-101652142D01*
X191202857Y-101723571D01*
X191345714Y-101795000D01*
X191417142Y-101866428D01*
X191488571Y-102009285D01*
X191488571Y-102152142D01*
X191417142Y-102295000D01*
X191345714Y-102366428D01*
X191202857Y-102437857D01*
X190917142Y-102509285D01*
X190560000Y-102509285D01*
X190274285Y-102437857D01*
X190131428Y-102366428D01*
X190060000Y-102295000D01*
X189988571Y-102152142D01*
X189988571Y-100723571D02*
X189988571Y-100580714D01*
X190060000Y-100437857D01*
X190131428Y-100366428D01*
X190274285Y-100295000D01*
X190560000Y-100223571D01*
X190917142Y-100223571D01*
X191202857Y-100295000D01*
X191345714Y-100366428D01*
X191417142Y-100437857D01*
X191488571Y-100580714D01*
X191488571Y-100723571D01*
X191417142Y-100866428D01*
X191345714Y-100937857D01*
X191202857Y-101009285D01*
X190917142Y-101080714D01*
X190560000Y-101080714D01*
X190274285Y-101009285D01*
X190131428Y-100937857D01*
X190060000Y-100866428D01*
X189988571Y-100723571D01*
X189988571Y-99723571D02*
X189988571Y-98795000D01*
X190560000Y-99295000D01*
X190560000Y-99080714D01*
X190631428Y-98937857D01*
X190702857Y-98866428D01*
X190845714Y-98795000D01*
X191202857Y-98795000D01*
X191345714Y-98866428D01*
X191417142Y-98937857D01*
X191488571Y-99080714D01*
X191488571Y-99509285D01*
X191417142Y-99652142D01*
X191345714Y-99723571D01*
X191488571Y-97366428D02*
X191488571Y-98223571D01*
X191488571Y-97795000D02*
X189988571Y-97795000D01*
X190202857Y-97937857D01*
X190345714Y-98080714D01*
X190417142Y-98223571D01*
X189988571Y-96866428D02*
X189988571Y-95866428D01*
X191488571Y-96509285D01*
X189988571Y-94652142D02*
X189988571Y-94937857D01*
X190060000Y-95080714D01*
X190131428Y-95152142D01*
X190345714Y-95295000D01*
X190631428Y-95366428D01*
X191202857Y-95366428D01*
X191345714Y-95295000D01*
X191417142Y-95223571D01*
X191488571Y-95080714D01*
X191488571Y-94795000D01*
X191417142Y-94652142D01*
X191345714Y-94580714D01*
X191202857Y-94509285D01*
X190845714Y-94509285D01*
X190702857Y-94580714D01*
X190631428Y-94652142D01*
X190560000Y-94795000D01*
X190560000Y-95080714D01*
X190631428Y-95223571D01*
X190702857Y-95295000D01*
X190845714Y-95366428D01*
X194038571Y-127937857D02*
X192538571Y-127937857D01*
X194038571Y-127295000D02*
X193252857Y-127295000D01*
X193110000Y-127366428D01*
X193038571Y-127509285D01*
X193038571Y-127723571D01*
X193110000Y-127866428D01*
X193181428Y-127937857D01*
X193038571Y-126795000D02*
X193038571Y-126223571D01*
X192538571Y-126580714D02*
X193824285Y-126580714D01*
X193967142Y-126509285D01*
X194038571Y-126366428D01*
X194038571Y-126223571D01*
X193038571Y-125937857D02*
X193038571Y-125366428D01*
X192538571Y-125723571D02*
X193824285Y-125723571D01*
X193967142Y-125652142D01*
X194038571Y-125509285D01*
X194038571Y-125366428D01*
X193038571Y-124866428D02*
X194538571Y-124866428D01*
X193110000Y-124866428D02*
X193038571Y-124723571D01*
X193038571Y-124437857D01*
X193110000Y-124295000D01*
X193181428Y-124223571D01*
X193324285Y-124152142D01*
X193752857Y-124152142D01*
X193895714Y-124223571D01*
X193967142Y-124295000D01*
X194038571Y-124437857D01*
X194038571Y-124723571D01*
X193967142Y-124866428D01*
X193967142Y-123580714D02*
X194038571Y-123437857D01*
X194038571Y-123152142D01*
X193967142Y-123009285D01*
X193824285Y-122937857D01*
X193752857Y-122937857D01*
X193610000Y-123009285D01*
X193538571Y-123152142D01*
X193538571Y-123366428D01*
X193467142Y-123509285D01*
X193324285Y-123580714D01*
X193252857Y-123580714D01*
X193110000Y-123509285D01*
X193038571Y-123366428D01*
X193038571Y-123152142D01*
X193110000Y-123009285D01*
X193895714Y-122295000D02*
X193967142Y-122223571D01*
X194038571Y-122295000D01*
X193967142Y-122366428D01*
X193895714Y-122295000D01*
X194038571Y-122295000D01*
X193110000Y-122295000D02*
X193181428Y-122223571D01*
X193252857Y-122295000D01*
X193181428Y-122366428D01*
X193110000Y-122295000D01*
X193252857Y-122295000D01*
X192467142Y-120509285D02*
X194395714Y-121795000D01*
X192467142Y-118937857D02*
X194395714Y-120223571D01*
X193038571Y-117795000D02*
X194252857Y-117795000D01*
X194395714Y-117866428D01*
X194467142Y-117937857D01*
X194538571Y-118080714D01*
X194538571Y-118295000D01*
X194467142Y-118437857D01*
X193967142Y-117795000D02*
X194038571Y-117937857D01*
X194038571Y-118223571D01*
X193967142Y-118366428D01*
X193895714Y-118437857D01*
X193752857Y-118509285D01*
X193324285Y-118509285D01*
X193181428Y-118437857D01*
X193110000Y-118366428D01*
X193038571Y-118223571D01*
X193038571Y-117937857D01*
X193110000Y-117795000D01*
X194038571Y-117080714D02*
X193038571Y-117080714D01*
X192538571Y-117080714D02*
X192610000Y-117152142D01*
X192681428Y-117080714D01*
X192610000Y-117009285D01*
X192538571Y-117080714D01*
X192681428Y-117080714D01*
X193038571Y-116580714D02*
X193038571Y-116009285D01*
X192538571Y-116366428D02*
X193824285Y-116366428D01*
X193967142Y-116295000D01*
X194038571Y-116152142D01*
X194038571Y-116009285D01*
X194038571Y-115509285D02*
X192538571Y-115509285D01*
X194038571Y-114866428D02*
X193252857Y-114866428D01*
X193110000Y-114937857D01*
X193038571Y-115080714D01*
X193038571Y-115295000D01*
X193110000Y-115437857D01*
X193181428Y-115509285D01*
X193038571Y-113509285D02*
X194038571Y-113509285D01*
X193038571Y-114152142D02*
X193824285Y-114152142D01*
X193967142Y-114080714D01*
X194038571Y-113937857D01*
X194038571Y-113723571D01*
X193967142Y-113580714D01*
X193895714Y-113509285D01*
X194038571Y-112795000D02*
X192538571Y-112795000D01*
X193110000Y-112795000D02*
X193038571Y-112652142D01*
X193038571Y-112366428D01*
X193110000Y-112223571D01*
X193181428Y-112152142D01*
X193324285Y-112080714D01*
X193752857Y-112080714D01*
X193895714Y-112152142D01*
X193967142Y-112223571D01*
X194038571Y-112366428D01*
X194038571Y-112652142D01*
X193967142Y-112795000D01*
X193895714Y-111437857D02*
X193967142Y-111366428D01*
X194038571Y-111437857D01*
X193967142Y-111509285D01*
X193895714Y-111437857D01*
X194038571Y-111437857D01*
X193967142Y-110080714D02*
X194038571Y-110223571D01*
X194038571Y-110509285D01*
X193967142Y-110652142D01*
X193895714Y-110723571D01*
X193752857Y-110795000D01*
X193324285Y-110795000D01*
X193181428Y-110723571D01*
X193110000Y-110652142D01*
X193038571Y-110509285D01*
X193038571Y-110223571D01*
X193110000Y-110080714D01*
X194038571Y-109223571D02*
X193967142Y-109366428D01*
X193895714Y-109437857D01*
X193752857Y-109509285D01*
X193324285Y-109509285D01*
X193181428Y-109437857D01*
X193110000Y-109366428D01*
X193038571Y-109223571D01*
X193038571Y-109009285D01*
X193110000Y-108866428D01*
X193181428Y-108795000D01*
X193324285Y-108723571D01*
X193752857Y-108723571D01*
X193895714Y-108795000D01*
X193967142Y-108866428D01*
X194038571Y-109009285D01*
X194038571Y-109223571D01*
X194038571Y-108080714D02*
X193038571Y-108080714D01*
X193181428Y-108080714D02*
X193110000Y-108009285D01*
X193038571Y-107866428D01*
X193038571Y-107652142D01*
X193110000Y-107509285D01*
X193252857Y-107437857D01*
X194038571Y-107437857D01*
X193252857Y-107437857D02*
X193110000Y-107366428D01*
X193038571Y-107223571D01*
X193038571Y-107009285D01*
X193110000Y-106866428D01*
X193252857Y-106795000D01*
X194038571Y-106795000D01*
X192467142Y-105009285D02*
X194395714Y-106295000D01*
X194038571Y-103795000D02*
X194038571Y-104509285D01*
X192538571Y-104509285D01*
X194038571Y-103080714D02*
X193967142Y-103223571D01*
X193824285Y-103295000D01*
X192538571Y-103295000D01*
X194038571Y-101866428D02*
X193252857Y-101866428D01*
X193110000Y-101937857D01*
X193038571Y-102080714D01*
X193038571Y-102366428D01*
X193110000Y-102509285D01*
X193967142Y-101866428D02*
X194038571Y-102009285D01*
X194038571Y-102366428D01*
X193967142Y-102509285D01*
X193824285Y-102580714D01*
X193681428Y-102580714D01*
X193538571Y-102509285D01*
X193467142Y-102366428D01*
X193467142Y-102009285D01*
X193395714Y-101866428D01*
X194038571Y-101152142D02*
X193038571Y-101152142D01*
X193181428Y-101152142D02*
X193110000Y-101080714D01*
X193038571Y-100937857D01*
X193038571Y-100723571D01*
X193110000Y-100580714D01*
X193252857Y-100509285D01*
X194038571Y-100509285D01*
X193252857Y-100509285D02*
X193110000Y-100437857D01*
X193038571Y-100295000D01*
X193038571Y-100080714D01*
X193110000Y-99937857D01*
X193252857Y-99866428D01*
X194038571Y-99866428D01*
X193967142Y-98580714D02*
X194038571Y-98723571D01*
X194038571Y-99009285D01*
X193967142Y-99152142D01*
X193824285Y-99223571D01*
X193252857Y-99223571D01*
X193110000Y-99152142D01*
X193038571Y-99009285D01*
X193038571Y-98723571D01*
X193110000Y-98580714D01*
X193252857Y-98509285D01*
X193395714Y-98509285D01*
X193538571Y-99223571D01*
X194038571Y-97866428D02*
X193038571Y-97866428D01*
X193324285Y-97866428D02*
X193181428Y-97795000D01*
X193110000Y-97723571D01*
X193038571Y-97580714D01*
X193038571Y-97437857D01*
X194038571Y-96723571D02*
X193967142Y-96866428D01*
X193895714Y-96937857D01*
X193752857Y-97009285D01*
X193324285Y-97009285D01*
X193181428Y-96937857D01*
X193110000Y-96866428D01*
X193038571Y-96723571D01*
X193038571Y-96509285D01*
X193110000Y-96366428D01*
X193181428Y-96295000D01*
X193324285Y-96223571D01*
X193752857Y-96223571D01*
X193895714Y-96295000D01*
X193967142Y-96366428D01*
X194038571Y-96509285D01*
X194038571Y-96723571D01*
X192467142Y-94509285D02*
X194395714Y-95795000D01*
X194038571Y-94009285D02*
X192538571Y-94009285D01*
X193252857Y-94009285D02*
X193252857Y-93152142D01*
X194038571Y-93152142D02*
X192538571Y-93152142D01*
X194038571Y-92437857D02*
X193038571Y-92437857D01*
X192538571Y-92437857D02*
X192610000Y-92509285D01*
X192681428Y-92437857D01*
X192610000Y-92366428D01*
X192538571Y-92437857D01*
X192681428Y-92437857D01*
X193038571Y-91080714D02*
X194252857Y-91080714D01*
X194395714Y-91152142D01*
X194467142Y-91223571D01*
X194538571Y-91366428D01*
X194538571Y-91580714D01*
X194467142Y-91723571D01*
X193967142Y-91080714D02*
X194038571Y-91223571D01*
X194038571Y-91509285D01*
X193967142Y-91652142D01*
X193895714Y-91723571D01*
X193752857Y-91795000D01*
X193324285Y-91795000D01*
X193181428Y-91723571D01*
X193110000Y-91652142D01*
X193038571Y-91509285D01*
X193038571Y-91223571D01*
X193110000Y-91080714D01*
X194038571Y-90366428D02*
X192538571Y-90366428D01*
X194038571Y-89723571D02*
X193252857Y-89723571D01*
X193110000Y-89795000D01*
X193038571Y-89937857D01*
X193038571Y-90152142D01*
X193110000Y-90295000D01*
X193181428Y-90366428D01*
X193467142Y-89009285D02*
X193467142Y-87866428D01*
X193967142Y-86509285D02*
X194038571Y-86652142D01*
X194038571Y-86937857D01*
X193967142Y-87080714D01*
X193895714Y-87152142D01*
X193752857Y-87223571D01*
X193324285Y-87223571D01*
X193181428Y-87152142D01*
X193110000Y-87080714D01*
X193038571Y-86937857D01*
X193038571Y-86652142D01*
X193110000Y-86509285D01*
X193038571Y-85223571D02*
X194038571Y-85223571D01*
X193038571Y-85866428D02*
X193824285Y-85866428D01*
X193967142Y-85795000D01*
X194038571Y-85652142D01*
X194038571Y-85437857D01*
X193967142Y-85295000D01*
X193895714Y-85223571D01*
X194038571Y-84509285D02*
X193038571Y-84509285D01*
X193324285Y-84509285D02*
X193181428Y-84437857D01*
X193110000Y-84366428D01*
X193038571Y-84223571D01*
X193038571Y-84080714D01*
X194038571Y-83580714D02*
X193038571Y-83580714D01*
X193324285Y-83580714D02*
X193181428Y-83509285D01*
X193110000Y-83437857D01*
X193038571Y-83295000D01*
X193038571Y-83152142D01*
X193967142Y-82080714D02*
X194038571Y-82223571D01*
X194038571Y-82509285D01*
X193967142Y-82652142D01*
X193824285Y-82723571D01*
X193252857Y-82723571D01*
X193110000Y-82652142D01*
X193038571Y-82509285D01*
X193038571Y-82223571D01*
X193110000Y-82080714D01*
X193252857Y-82009285D01*
X193395714Y-82009285D01*
X193538571Y-82723571D01*
X193038571Y-81366428D02*
X194038571Y-81366428D01*
X193181428Y-81366428D02*
X193110000Y-81295000D01*
X193038571Y-81152142D01*
X193038571Y-80937857D01*
X193110000Y-80795000D01*
X193252857Y-80723571D01*
X194038571Y-80723571D01*
X193038571Y-80223571D02*
X193038571Y-79652142D01*
X192538571Y-80009285D02*
X193824285Y-80009285D01*
X193967142Y-79937857D01*
X194038571Y-79795000D01*
X194038571Y-79652142D01*
X193467142Y-79152142D02*
X193467142Y-78009285D01*
X193038571Y-76652142D02*
X194038571Y-76652142D01*
X192467142Y-77009285D02*
X193538571Y-77366428D01*
X193538571Y-76437857D01*
X194038571Y-76009285D02*
X193038571Y-75223571D01*
X193038571Y-76009285D02*
X194038571Y-75223571D01*
X194038571Y-73866428D02*
X194038571Y-74723571D01*
X194038571Y-74295000D02*
X192538571Y-74295000D01*
X192752857Y-74437857D01*
X192895714Y-74580714D01*
X192967142Y-74723571D01*
X193467142Y-73223571D02*
X193467142Y-72080714D01*
X194038571Y-70652142D02*
X194038571Y-71366428D01*
X192538571Y-71366428D01*
X193252857Y-70152142D02*
X193252857Y-69652142D01*
X194038571Y-69437857D02*
X194038571Y-70152142D01*
X192538571Y-70152142D01*
X192538571Y-69437857D01*
X194038571Y-68795000D02*
X192538571Y-68795000D01*
X192538571Y-68437857D01*
X192610000Y-68223571D01*
X192752857Y-68080714D01*
X192895714Y-68009285D01*
X193181428Y-67937857D01*
X193395714Y-67937857D01*
X193681428Y-68009285D01*
X193824285Y-68080714D01*
X193967142Y-68223571D01*
X194038571Y-68437857D01*
X194038571Y-68795000D01*
X193467142Y-67295000D02*
X193467142Y-66152142D01*
X194038571Y-65437857D02*
X193038571Y-65437857D01*
X193181428Y-65437857D02*
X193110000Y-65366428D01*
X193038571Y-65223571D01*
X193038571Y-65009285D01*
X193110000Y-64866428D01*
X193252857Y-64795000D01*
X194038571Y-64795000D01*
X193252857Y-64795000D02*
X193110000Y-64723571D01*
X193038571Y-64580714D01*
X193038571Y-64366428D01*
X193110000Y-64223571D01*
X193252857Y-64152142D01*
X194038571Y-64152142D01*
X193038571Y-62795000D02*
X194038571Y-62795000D01*
X193038571Y-63437857D02*
X193824285Y-63437857D01*
X193967142Y-63366428D01*
X194038571Y-63223571D01*
X194038571Y-63009285D01*
X193967142Y-62866428D01*
X193895714Y-62795000D01*
X194038571Y-62223571D02*
X193038571Y-61437857D01*
X193038571Y-62223571D02*
X194038571Y-61437857D01*
X98520000Y-143474761D02*
X97377142Y-143474761D01*
X97948571Y-143474761D02*
X97948571Y-141474761D01*
X97758095Y-141760476D01*
X97567619Y-141950952D01*
X97377142Y-142046190D01*
X99281904Y-141665238D02*
X99377142Y-141570000D01*
X99567619Y-141474761D01*
X100043809Y-141474761D01*
X100234285Y-141570000D01*
X100329523Y-141665238D01*
X100424761Y-141855714D01*
X100424761Y-142046190D01*
X100329523Y-142331904D01*
X99186666Y-143474761D01*
X100424761Y-143474761D01*
X100996190Y-141474761D02*
X101662857Y-143474761D01*
X102329523Y-141474761D01*
X104520000Y-143474761D02*
X104520000Y-141474761D01*
X104996190Y-141474761D01*
X105281904Y-141570000D01*
X105472380Y-141760476D01*
X105567619Y-141950952D01*
X105662857Y-142331904D01*
X105662857Y-142617619D01*
X105567619Y-142998571D01*
X105472380Y-143189047D01*
X105281904Y-143379523D01*
X104996190Y-143474761D01*
X104520000Y-143474761D01*
X107662857Y-143284285D02*
X107567619Y-143379523D01*
X107281904Y-143474761D01*
X107091428Y-143474761D01*
X106805714Y-143379523D01*
X106615238Y-143189047D01*
X106520000Y-142998571D01*
X106424761Y-142617619D01*
X106424761Y-142331904D01*
X106520000Y-141950952D01*
X106615238Y-141760476D01*
X106805714Y-141570000D01*
X107091428Y-141474761D01*
X107281904Y-141474761D01*
X107567619Y-141570000D01*
X107662857Y-141665238D01*
D12*
X184439523Y-131264285D02*
X180439523Y-131264285D01*
X182344285Y-131264285D02*
X182344285Y-128978571D01*
X184439523Y-128978571D02*
X180439523Y-128978571D01*
X184439523Y-127073809D02*
X181772857Y-127073809D01*
X180439523Y-127073809D02*
X180630000Y-127264285D01*
X180820476Y-127073809D01*
X180630000Y-126883333D01*
X180439523Y-127073809D01*
X180820476Y-127073809D01*
X181772857Y-123454761D02*
X185010952Y-123454761D01*
X185391904Y-123645238D01*
X185582380Y-123835714D01*
X185772857Y-124216666D01*
X185772857Y-124788095D01*
X185582380Y-125169047D01*
X184249047Y-123454761D02*
X184439523Y-123835714D01*
X184439523Y-124597619D01*
X184249047Y-124978571D01*
X184058571Y-125169047D01*
X183677619Y-125359523D01*
X182534761Y-125359523D01*
X182153809Y-125169047D01*
X181963333Y-124978571D01*
X181772857Y-124597619D01*
X181772857Y-123835714D01*
X181963333Y-123454761D01*
X184439523Y-121550000D02*
X180439523Y-121550000D01*
X184439523Y-119835714D02*
X182344285Y-119835714D01*
X181963333Y-120026190D01*
X181772857Y-120407142D01*
X181772857Y-120978571D01*
X181963333Y-121359523D01*
X182153809Y-121550000D01*
X184058571Y-112597619D02*
X184249047Y-112788095D01*
X184439523Y-113359523D01*
X184439523Y-113740476D01*
X184249047Y-114311904D01*
X183868095Y-114692857D01*
X183487142Y-114883333D01*
X182725238Y-115073809D01*
X182153809Y-115073809D01*
X181391904Y-114883333D01*
X181010952Y-114692857D01*
X180630000Y-114311904D01*
X180439523Y-113740476D01*
X180439523Y-113359523D01*
X180630000Y-112788095D01*
X180820476Y-112597619D01*
X181772857Y-109169047D02*
X184439523Y-109169047D01*
X181772857Y-110883333D02*
X183868095Y-110883333D01*
X184249047Y-110692857D01*
X184439523Y-110311904D01*
X184439523Y-109740476D01*
X184249047Y-109359523D01*
X184058571Y-109169047D01*
X184439523Y-107264285D02*
X181772857Y-107264285D01*
X182534761Y-107264285D02*
X182153809Y-107073809D01*
X181963333Y-106883333D01*
X181772857Y-106502380D01*
X181772857Y-106121428D01*
X184439523Y-104788095D02*
X181772857Y-104788095D01*
X182534761Y-104788095D02*
X182153809Y-104597619D01*
X181963333Y-104407142D01*
X181772857Y-104026190D01*
X181772857Y-103645238D01*
X184249047Y-100788095D02*
X184439523Y-101169047D01*
X184439523Y-101930952D01*
X184249047Y-102311904D01*
X183868095Y-102502380D01*
X182344285Y-102502380D01*
X181963333Y-102311904D01*
X181772857Y-101930952D01*
X181772857Y-101169047D01*
X181963333Y-100788095D01*
X182344285Y-100597619D01*
X182725238Y-100597619D01*
X183106190Y-102502380D01*
X181772857Y-98883333D02*
X184439523Y-98883333D01*
X182153809Y-98883333D02*
X181963333Y-98692857D01*
X181772857Y-98311904D01*
X181772857Y-97740476D01*
X181963333Y-97359523D01*
X182344285Y-97169047D01*
X184439523Y-97169047D01*
X181772857Y-95835714D02*
X181772857Y-94311904D01*
X180439523Y-95264285D02*
X183868095Y-95264285D01*
X184249047Y-95073809D01*
X184439523Y-94692857D01*
X184439523Y-94311904D01*
X181772857Y-88216666D02*
X184439523Y-88216666D01*
X180249047Y-89169047D02*
X183106190Y-90121428D01*
X183106190Y-87645238D01*
X184058571Y-86121428D02*
X184249047Y-85930952D01*
X184439523Y-86121428D01*
X184249047Y-86311904D01*
X184058571Y-86121428D01*
X184439523Y-86121428D01*
X181963333Y-86121428D02*
X182153809Y-85930952D01*
X182344285Y-86121428D01*
X182153809Y-86311904D01*
X181963333Y-86121428D01*
X182344285Y-86121428D01*
X184439523Y-82121428D02*
X184439523Y-84407142D01*
X184439523Y-83264285D02*
X180439523Y-83264285D01*
X181010952Y-83645238D01*
X181391904Y-84026190D01*
X181582380Y-84407142D01*
X184439523Y-77359523D02*
X180439523Y-77359523D01*
X183296666Y-76026190D01*
X180439523Y-74692857D01*
X184439523Y-74692857D01*
X181772857Y-71073809D02*
X184439523Y-71073809D01*
X181772857Y-72788095D02*
X183868095Y-72788095D01*
X184249047Y-72597619D01*
X184439523Y-72216666D01*
X184439523Y-71645238D01*
X184249047Y-71264285D01*
X184058571Y-71073809D01*
X184439523Y-69550000D02*
X181772857Y-67454761D01*
X181772857Y-69550000D02*
X184439523Y-67454761D01*
D13*
X100395700Y-134414440D02*
X100395700Y-134729400D01*
X108244300Y-124325560D02*
X108244300Y-124010600D01*
X108244300Y-134729400D02*
X108244300Y-134414440D01*
X100395700Y-134729400D02*
X108244300Y-134729400D01*
X100395700Y-124010600D02*
X100395700Y-124325560D01*
X108244300Y-124010600D02*
X100395700Y-124010600D01*
X84390000Y-136330000D02*
X84390000Y-133670000D01*
X84390000Y-133670000D02*
X87600000Y-133670000D01*
X89120000Y-133670000D02*
X92680000Y-133670000D01*
X94200000Y-133670000D02*
X94870000Y-133670000D01*
X94870000Y-136330000D02*
X94870000Y-133670000D01*
X84390000Y-136330000D02*
X85060000Y-136330000D01*
X86580000Y-136330000D02*
X90140000Y-136330000D01*
X91660000Y-136330000D02*
X94870000Y-136330000D01*
X85060000Y-137540000D02*
X85060000Y-136330000D01*
D14*
G36*
X93930000Y-79212500D02*
G01*
X93930000Y-80912500D01*
X92830000Y-80912500D01*
X92830000Y-79212500D01*
X93930000Y-79212500D01*
G37*
X93930000Y-79212500D02*
X93930000Y-80912500D01*
X92830000Y-80912500D01*
X92830000Y-79212500D01*
X93930000Y-79212500D01*
G36*
X88830000Y-79212500D02*
G01*
X88830000Y-80912500D01*
X87830000Y-80912500D01*
X87830000Y-79212500D01*
X88830000Y-79212500D01*
G37*
X88830000Y-79212500D02*
X88830000Y-80912500D01*
X87830000Y-80912500D01*
X87830000Y-79212500D01*
X88830000Y-79212500D01*
D13*
X93930000Y-79212500D02*
X93930000Y-80812500D01*
X92830000Y-79212500D02*
X93930000Y-79212500D01*
X92830000Y-80912500D02*
X92830000Y-79212500D01*
X88830000Y-79212500D02*
X88830000Y-80812500D01*
X87830000Y-79212500D02*
X88830000Y-79212500D01*
X87830000Y-80912500D02*
X87830000Y-79212500D01*
X84390000Y-83542500D02*
X84390000Y-80882500D01*
X94670000Y-83542500D02*
X94670000Y-80882500D01*
X86480000Y-80882500D02*
X90040000Y-80882500D01*
X91560000Y-80882500D02*
X94670000Y-80882500D01*
X84390000Y-83542500D02*
X87500000Y-83542500D01*
X84390000Y-80882500D02*
X84960000Y-80882500D01*
X94100000Y-83542500D02*
X94670000Y-83542500D01*
X89020000Y-83542500D02*
X92580000Y-83542500D01*
D14*
G36*
X93930000Y-96925000D02*
G01*
X93930000Y-98625000D01*
X92830000Y-98625000D01*
X92830000Y-96925000D01*
X93930000Y-96925000D01*
G37*
X93930000Y-96925000D02*
X93930000Y-98625000D01*
X92830000Y-98625000D01*
X92830000Y-96925000D01*
X93930000Y-96925000D01*
G36*
X88830000Y-96925000D02*
G01*
X88830000Y-98625000D01*
X87830000Y-98625000D01*
X87830000Y-96925000D01*
X88830000Y-96925000D01*
G37*
X88830000Y-96925000D02*
X88830000Y-98625000D01*
X87830000Y-98625000D01*
X87830000Y-96925000D01*
X88830000Y-96925000D01*
D13*
X93930000Y-96925000D02*
X93930000Y-98525000D01*
X92830000Y-96925000D02*
X93930000Y-96925000D01*
X92830000Y-98625000D02*
X92830000Y-96925000D01*
X88830000Y-96925000D02*
X88830000Y-98525000D01*
X87830000Y-96925000D02*
X88830000Y-96925000D01*
X87830000Y-98625000D02*
X87830000Y-96925000D01*
X84390000Y-101255000D02*
X84390000Y-98595000D01*
X94670000Y-101255000D02*
X94670000Y-98595000D01*
X86480000Y-98595000D02*
X90040000Y-98595000D01*
X91560000Y-98595000D02*
X94670000Y-98595000D01*
X84390000Y-101255000D02*
X87500000Y-101255000D01*
X84390000Y-98595000D02*
X84960000Y-98595000D01*
X94100000Y-101255000D02*
X94670000Y-101255000D01*
X89020000Y-101255000D02*
X92580000Y-101255000D01*
D14*
G36*
X93930000Y-61500000D02*
G01*
X93930000Y-63200000D01*
X92830000Y-63200000D01*
X92830000Y-61500000D01*
X93930000Y-61500000D01*
G37*
X93930000Y-61500000D02*
X93930000Y-63200000D01*
X92830000Y-63200000D01*
X92830000Y-61500000D01*
X93930000Y-61500000D01*
G36*
X88830000Y-61500000D02*
G01*
X88830000Y-63200000D01*
X87830000Y-63200000D01*
X87830000Y-61500000D01*
X88830000Y-61500000D01*
G37*
X88830000Y-61500000D02*
X88830000Y-63200000D01*
X87830000Y-63200000D01*
X87830000Y-61500000D01*
X88830000Y-61500000D01*
D13*
X93930000Y-61500000D02*
X93930000Y-63100000D01*
X92830000Y-61500000D02*
X93930000Y-61500000D01*
X92830000Y-63200000D02*
X92830000Y-61500000D01*
X88830000Y-61500000D02*
X88830000Y-63100000D01*
X87830000Y-61500000D02*
X88830000Y-61500000D01*
X87830000Y-63200000D02*
X87830000Y-61500000D01*
X84390000Y-65830000D02*
X84390000Y-63170000D01*
X94670000Y-65830000D02*
X94670000Y-63170000D01*
X86480000Y-63170000D02*
X90040000Y-63170000D01*
X91560000Y-63170000D02*
X94670000Y-63170000D01*
X84390000Y-65830000D02*
X87500000Y-65830000D01*
X84390000Y-63170000D02*
X84960000Y-63170000D01*
X94100000Y-65830000D02*
X94670000Y-65830000D01*
X89020000Y-65830000D02*
X92580000Y-65830000D01*
D14*
G36*
X93930000Y-114637500D02*
G01*
X93930000Y-116337500D01*
X92830000Y-116337500D01*
X92830000Y-114637500D01*
X93930000Y-114637500D01*
G37*
X93930000Y-114637500D02*
X93930000Y-116337500D01*
X92830000Y-116337500D01*
X92830000Y-114637500D01*
X93930000Y-114637500D01*
G36*
X88830000Y-114637500D02*
G01*
X88830000Y-116337500D01*
X87830000Y-116337500D01*
X87830000Y-114637500D01*
X88830000Y-114637500D01*
G37*
X88830000Y-114637500D02*
X88830000Y-116337500D01*
X87830000Y-116337500D01*
X87830000Y-114637500D01*
X88830000Y-114637500D01*
D13*
X93930000Y-114637500D02*
X93930000Y-116237500D01*
X92830000Y-114637500D02*
X93930000Y-114637500D01*
X92830000Y-116337500D02*
X92830000Y-114637500D01*
X88830000Y-114637500D02*
X88830000Y-116237500D01*
X87830000Y-114637500D02*
X88830000Y-114637500D01*
X87830000Y-116337500D02*
X87830000Y-114637500D01*
X84390000Y-118967500D02*
X84390000Y-116307500D01*
X94670000Y-118967500D02*
X94670000Y-116307500D01*
X86480000Y-116307500D02*
X90040000Y-116307500D01*
X91560000Y-116307500D02*
X94670000Y-116307500D01*
X84390000Y-118967500D02*
X87500000Y-118967500D01*
X84390000Y-116307500D02*
X84960000Y-116307500D01*
X94100000Y-118967500D02*
X94670000Y-118967500D01*
X89020000Y-118967500D02*
X92580000Y-118967500D01*
X113620000Y-132390000D02*
X115020000Y-132390000D01*
X115020000Y-130070000D02*
X113120000Y-130070000D01*
X98500000Y-149500000D02*
X98500000Y-162000000D01*
X98500000Y-162000000D02*
X106500000Y-162000000D01*
X106500000Y-162000000D02*
X106500000Y-149500000D01*
D15*
X156352000Y-106021000D02*
X156352000Y-99900000D01*
X152288000Y-99900000D02*
X152288000Y-106021000D01*
X152288000Y-99900000D02*
X156352000Y-99900000D01*
X123352000Y-106021000D02*
X123352000Y-99900000D01*
X119288000Y-99900000D02*
X119288000Y-106021000D01*
X119288000Y-99900000D02*
X123352000Y-99900000D01*
D16*
X99960000Y-137880000D02*
X101360000Y-137880000D01*
X101360000Y-135080000D02*
X99960000Y-135080000D01*
D15*
X139852000Y-106021000D02*
X139852000Y-99900000D01*
X135788000Y-99900000D02*
X135788000Y-106021000D01*
X135788000Y-99900000D02*
X139852000Y-99900000D01*
X172852000Y-106021000D02*
X172852000Y-99900000D01*
X168788000Y-99900000D02*
X168788000Y-106021000D01*
X168788000Y-99900000D02*
X172852000Y-99900000D01*
D13*
X157345000Y-102425000D02*
X157345000Y-103925000D01*
X157345000Y-103925000D02*
X159155000Y-103925000D01*
X159155000Y-103925000D02*
X159155000Y-109050000D01*
X167745000Y-102425000D02*
X167745000Y-103925000D01*
X167745000Y-103925000D02*
X165935000Y-103925000D01*
X165935000Y-103925000D02*
X165935000Y-105025000D01*
X132968333Y-103850000D02*
X132968333Y-104950000D01*
X134778333Y-103850000D02*
X132968333Y-103850000D01*
X134778333Y-102350000D02*
X134778333Y-103850000D01*
X126188333Y-103850000D02*
X126188333Y-108975000D01*
X124378333Y-103850000D02*
X126188333Y-103850000D01*
X124378333Y-102350000D02*
X124378333Y-103850000D01*
X113620000Y-127300000D02*
X115020000Y-127300000D01*
X115020000Y-124980000D02*
X113120000Y-124980000D01*
X100480000Y-145550000D02*
G75*
G03*
X100480000Y-145550000I-1000000J0D01*
G01*
X106480000Y-145550000D02*
G75*
G03*
X106480000Y-145550000I-1000000J0D01*
G01*
X100480000Y-145550000D02*
X101480000Y-145550000D01*
X102480000Y-145550000D02*
X104480000Y-145550000D01*
X102980000Y-145550000D02*
G75*
G03*
X102980000Y-145550000I-500000J0D01*
G01*
X102730000Y-145550000D02*
G75*
G03*
X102730000Y-145550000I-250000J0D01*
G01*
X102880000Y-145550000D02*
G75*
G03*
X102880000Y-145550000I-400000J0D01*
G01*
X102580000Y-145550000D02*
G75*
G03*
X102580000Y-145550000I-100000J0D01*
G01*
X102790644Y-145550000D02*
G75*
G03*
X102790644Y-145550000I-310644J0D01*
G01*
X102621421Y-145550000D02*
G75*
G03*
X102621421Y-145550000I-141421J0D01*
G01*
X103188590Y-146258590D02*
G75*
G02*
X103290000Y-144960000I-708590J708590D01*
G01*
X176020000Y-159550000D02*
X111880000Y-159550000D01*
X176020000Y-146070000D02*
X176020000Y-159550000D01*
X111880000Y-146070000D02*
X111880000Y-159550000D01*
X176020000Y-146070000D02*
X111880000Y-146070000D01*
X149451666Y-103925000D02*
X149451666Y-105025000D01*
X151261666Y-103925000D02*
X149451666Y-103925000D01*
X151261666Y-102425000D02*
X151261666Y-103925000D01*
X142671666Y-103925000D02*
X142671666Y-109050000D01*
X140861666Y-103925000D02*
X142671666Y-103925000D01*
X140861666Y-102425000D02*
X140861666Y-103925000D01*
X138070000Y-51350000D02*
X179070000Y-51350000D01*
X179070000Y-51350000D02*
X179070000Y-92350000D01*
X179070000Y-92350000D02*
X138070000Y-92350000D01*
X138070000Y-92350000D02*
X138070000Y-51350000D01*
X188750000Y-63640000D02*
G75*
G03*
X188750000Y-63640000I-1000000J0D01*
G01*
X188750000Y-61390000D02*
G75*
G03*
X188750000Y-61390000I-1000000J0D01*
G01*
X188760000Y-59210000D02*
G75*
G03*
X188760000Y-59210000I-1000000J0D01*
G01*
X187290000Y-61410000D02*
G75*
G03*
X187290000Y-61410000I-100000J0D01*
G01*
D14*
G36*
X188010000Y-61140000D02*
G01*
X188010000Y-61670000D01*
X187420000Y-61670000D01*
X187420000Y-61140000D01*
X188010000Y-61140000D01*
G37*
X188010000Y-61140000D02*
X188010000Y-61670000D01*
X187420000Y-61670000D01*
X187420000Y-61140000D01*
X188010000Y-61140000D01*
G36*
X188410000Y-61260000D02*
G01*
X188410000Y-61510000D01*
X188050000Y-61510000D01*
X188040000Y-61260000D01*
X188410000Y-61260000D01*
G37*
X188410000Y-61260000D02*
X188410000Y-61510000D01*
X188050000Y-61510000D01*
X188040000Y-61260000D01*
X188410000Y-61260000D01*
D13*
X187240000Y-61420000D02*
G75*
G03*
X187240000Y-61420000I-50000J0D01*
G01*
D14*
G36*
X188000000Y-59730000D02*
G01*
X187730000Y-59940000D01*
X187730000Y-59510000D01*
X188000000Y-59730000D01*
G37*
X188000000Y-59730000D02*
X187730000Y-59940000D01*
X187730000Y-59510000D01*
X188000000Y-59730000D01*
D13*
X187721936Y-59714247D02*
G75*
G02*
X188160000Y-59490000I8064J524247D01*
G01*
X97070000Y-51350000D02*
X138070000Y-51350000D01*
X138070000Y-51350000D02*
X138070000Y-92350000D01*
X138070000Y-92350000D02*
X97070000Y-92350000D01*
X97070000Y-92350000D02*
X97070000Y-51350000D01*
X116485000Y-103850000D02*
X116485000Y-104950000D01*
X118295000Y-103850000D02*
X116485000Y-103850000D01*
X118295000Y-102350000D02*
X118295000Y-103850000D01*
X109705000Y-103850000D02*
X109705000Y-108975000D01*
X107895000Y-103850000D02*
X109705000Y-103850000D01*
X107895000Y-102350000D02*
X107895000Y-103850000D01*
D17*
G36*
X185039918Y-63960256D02*
G01*
X185067568Y-63904799D01*
X185118480Y-63855852D01*
X185137338Y-63842371D01*
X185162015Y-63827686D01*
X185188816Y-63818158D01*
X185224587Y-63812707D01*
X185276169Y-63810253D01*
X185344267Y-63809714D01*
X185437588Y-63812148D01*
X185507657Y-63820606D01*
X185559931Y-63836826D01*
X185599869Y-63862546D01*
X185632929Y-63899503D01*
X185634886Y-63902218D01*
X185654908Y-63938640D01*
X185664815Y-63982498D01*
X185667257Y-64038276D01*
X185667257Y-64128952D01*
X185755283Y-64128990D01*
X185804308Y-64129834D01*
X185833065Y-64134976D01*
X185850311Y-64148413D01*
X185864808Y-64174142D01*
X185867769Y-64180321D01*
X185881648Y-64209236D01*
X185890414Y-64231624D01*
X185891171Y-64248271D01*
X185881023Y-64259964D01*
X185857073Y-64267490D01*
X185816426Y-64271634D01*
X185756186Y-64273185D01*
X185673455Y-64272929D01*
X185565339Y-64271651D01*
X185533000Y-64271252D01*
X185421524Y-64269815D01*
X185348603Y-64268528D01*
X185348603Y-64129029D01*
X185410499Y-64128245D01*
X185450997Y-64124760D01*
X185477708Y-64116876D01*
X185498244Y-64102895D01*
X185508260Y-64093403D01*
X185537567Y-64054596D01*
X185539952Y-64020237D01*
X185515750Y-63984784D01*
X185514857Y-63983886D01*
X185496153Y-63969461D01*
X185470732Y-63960687D01*
X185431584Y-63956261D01*
X185371697Y-63954882D01*
X185358430Y-63954857D01*
X185275901Y-63958188D01*
X185218691Y-63969031D01*
X185183766Y-63988660D01*
X185168094Y-64018350D01*
X185166514Y-64035509D01*
X185173926Y-64076234D01*
X185198330Y-64104168D01*
X185242980Y-64120983D01*
X185311130Y-64128350D01*
X185348603Y-64129029D01*
X185348603Y-64268528D01*
X185335245Y-64268292D01*
X185270333Y-64266323D01*
X185222958Y-64263550D01*
X185189290Y-64259612D01*
X185165498Y-64254151D01*
X185147753Y-64246808D01*
X185132224Y-64237223D01*
X185126381Y-64233113D01*
X185071185Y-64178595D01*
X185039890Y-64109664D01*
X185031165Y-64029928D01*
X185039918Y-63960256D01*
G37*
X185039918Y-63960256D02*
X185067568Y-63904799D01*
X185118480Y-63855852D01*
X185137338Y-63842371D01*
X185162015Y-63827686D01*
X185188816Y-63818158D01*
X185224587Y-63812707D01*
X185276169Y-63810253D01*
X185344267Y-63809714D01*
X185437588Y-63812148D01*
X185507657Y-63820606D01*
X185559931Y-63836826D01*
X185599869Y-63862546D01*
X185632929Y-63899503D01*
X185634886Y-63902218D01*
X185654908Y-63938640D01*
X185664815Y-63982498D01*
X185667257Y-64038276D01*
X185667257Y-64128952D01*
X185755283Y-64128990D01*
X185804308Y-64129834D01*
X185833065Y-64134976D01*
X185850311Y-64148413D01*
X185864808Y-64174142D01*
X185867769Y-64180321D01*
X185881648Y-64209236D01*
X185890414Y-64231624D01*
X185891171Y-64248271D01*
X185881023Y-64259964D01*
X185857073Y-64267490D01*
X185816426Y-64271634D01*
X185756186Y-64273185D01*
X185673455Y-64272929D01*
X185565339Y-64271651D01*
X185533000Y-64271252D01*
X185421524Y-64269815D01*
X185348603Y-64268528D01*
X185348603Y-64129029D01*
X185410499Y-64128245D01*
X185450997Y-64124760D01*
X185477708Y-64116876D01*
X185498244Y-64102895D01*
X185508260Y-64093403D01*
X185537567Y-64054596D01*
X185539952Y-64020237D01*
X185515750Y-63984784D01*
X185514857Y-63983886D01*
X185496153Y-63969461D01*
X185470732Y-63960687D01*
X185431584Y-63956261D01*
X185371697Y-63954882D01*
X185358430Y-63954857D01*
X185275901Y-63958188D01*
X185218691Y-63969031D01*
X185183766Y-63988660D01*
X185168094Y-64018350D01*
X185166514Y-64035509D01*
X185173926Y-64076234D01*
X185198330Y-64104168D01*
X185242980Y-64120983D01*
X185311130Y-64128350D01*
X185348603Y-64129029D01*
X185348603Y-64268528D01*
X185335245Y-64268292D01*
X185270333Y-64266323D01*
X185222958Y-64263550D01*
X185189290Y-64259612D01*
X185165498Y-64254151D01*
X185147753Y-64246808D01*
X185132224Y-64237223D01*
X185126381Y-64233113D01*
X185071185Y-64178595D01*
X185039890Y-64109664D01*
X185031165Y-64029928D01*
X185039918Y-63960256D01*
G36*
X185047780Y-62843907D02*
G01*
X185074723Y-62797328D01*
X185101466Y-62764943D01*
X185129484Y-62741258D01*
X185163748Y-62724941D01*
X185209227Y-62714661D01*
X185270892Y-62709086D01*
X185353711Y-62706884D01*
X185413246Y-62706629D01*
X185632391Y-62706629D01*
X185660044Y-62768314D01*
X185687697Y-62830000D01*
X185447670Y-62837257D01*
X185358028Y-62840256D01*
X185292962Y-62843402D01*
X185248026Y-62847299D01*
X185218770Y-62852553D01*
X185200748Y-62859769D01*
X185189511Y-62869550D01*
X185187079Y-62872688D01*
X185168083Y-62920239D01*
X185175600Y-62968303D01*
X185195543Y-62996914D01*
X185209675Y-63008553D01*
X185228220Y-63016609D01*
X185256334Y-63021729D01*
X185299173Y-63024559D01*
X185361895Y-63025744D01*
X185427261Y-63025943D01*
X185509268Y-63025982D01*
X185567316Y-63027386D01*
X185606465Y-63032086D01*
X185631780Y-63042013D01*
X185648323Y-63059097D01*
X185661156Y-63085268D01*
X185674491Y-63120225D01*
X185689007Y-63158404D01*
X185431389Y-63153859D01*
X185338519Y-63152029D01*
X185269889Y-63149888D01*
X185220711Y-63146819D01*
X185186198Y-63142206D01*
X185161562Y-63135432D01*
X185142016Y-63125881D01*
X185124770Y-63114366D01*
X185069680Y-63058810D01*
X185037822Y-62991020D01*
X185030191Y-62917287D01*
X185047780Y-62843907D01*
G37*
X185047780Y-62843907D02*
X185074723Y-62797328D01*
X185101466Y-62764943D01*
X185129484Y-62741258D01*
X185163748Y-62724941D01*
X185209227Y-62714661D01*
X185270892Y-62709086D01*
X185353711Y-62706884D01*
X185413246Y-62706629D01*
X185632391Y-62706629D01*
X185660044Y-62768314D01*
X185687697Y-62830000D01*
X185447670Y-62837257D01*
X185358028Y-62840256D01*
X185292962Y-62843402D01*
X185248026Y-62847299D01*
X185218770Y-62852553D01*
X185200748Y-62859769D01*
X185189511Y-62869550D01*
X185187079Y-62872688D01*
X185168083Y-62920239D01*
X185175600Y-62968303D01*
X185195543Y-62996914D01*
X185209675Y-63008553D01*
X185228220Y-63016609D01*
X185256334Y-63021729D01*
X185299173Y-63024559D01*
X185361895Y-63025744D01*
X185427261Y-63025943D01*
X185509268Y-63025982D01*
X185567316Y-63027386D01*
X185606465Y-63032086D01*
X185631780Y-63042013D01*
X185648323Y-63059097D01*
X185661156Y-63085268D01*
X185674491Y-63120225D01*
X185689007Y-63158404D01*
X185431389Y-63153859D01*
X185338519Y-63152029D01*
X185269889Y-63149888D01*
X185220711Y-63146819D01*
X185186198Y-63142206D01*
X185161562Y-63135432D01*
X185142016Y-63125881D01*
X185124770Y-63114366D01*
X185069680Y-63058810D01*
X185037822Y-62991020D01*
X185030191Y-62917287D01*
X185047780Y-62843907D01*
G36*
X185041962Y-64518885D02*
G01*
X185077733Y-64450855D01*
X185135301Y-64400649D01*
X185172312Y-64382815D01*
X185227882Y-64368937D01*
X185298096Y-64361833D01*
X185374727Y-64361160D01*
X185449552Y-64366573D01*
X185514342Y-64377730D01*
X185560873Y-64394286D01*
X185568887Y-64399374D01*
X185628707Y-64459645D01*
X185664535Y-64531231D01*
X185675020Y-64608908D01*
X185658810Y-64687452D01*
X185649092Y-64709311D01*
X185619143Y-64751878D01*
X185579433Y-64789237D01*
X185574397Y-64792768D01*
X185550124Y-64807119D01*
X185524178Y-64816606D01*
X185490022Y-64822210D01*
X185441119Y-64824914D01*
X185370935Y-64825701D01*
X185355200Y-64825714D01*
X185350192Y-64825678D01*
X185350192Y-64680571D01*
X185416430Y-64679727D01*
X185460386Y-64676404D01*
X185488779Y-64669417D01*
X185508325Y-64657584D01*
X185514857Y-64651543D01*
X185539680Y-64616814D01*
X185538548Y-64583097D01*
X185517016Y-64549005D01*
X185494029Y-64528671D01*
X185460478Y-64516629D01*
X185407569Y-64509866D01*
X185401399Y-64509402D01*
X185305513Y-64508248D01*
X185234299Y-64520312D01*
X185188194Y-64545430D01*
X185167635Y-64583440D01*
X185166514Y-64597008D01*
X185172152Y-64632636D01*
X185191686Y-64657006D01*
X185229042Y-64671907D01*
X185288150Y-64679125D01*
X185350192Y-64680571D01*
X185350192Y-64825678D01*
X185280413Y-64825174D01*
X185228159Y-64822904D01*
X185191949Y-64817932D01*
X185165299Y-64809287D01*
X185141722Y-64795995D01*
X185137338Y-64793057D01*
X185078249Y-64743687D01*
X185043947Y-64689891D01*
X185030331Y-64624398D01*
X185029665Y-64602158D01*
X185041962Y-64518885D01*
G37*
X185041962Y-64518885D02*
X185077733Y-64450855D01*
X185135301Y-64400649D01*
X185172312Y-64382815D01*
X185227882Y-64368937D01*
X185298096Y-64361833D01*
X185374727Y-64361160D01*
X185449552Y-64366573D01*
X185514342Y-64377730D01*
X185560873Y-64394286D01*
X185568887Y-64399374D01*
X185628707Y-64459645D01*
X185664535Y-64531231D01*
X185675020Y-64608908D01*
X185658810Y-64687452D01*
X185649092Y-64709311D01*
X185619143Y-64751878D01*
X185579433Y-64789237D01*
X185574397Y-64792768D01*
X185550124Y-64807119D01*
X185524178Y-64816606D01*
X185490022Y-64822210D01*
X185441119Y-64824914D01*
X185370935Y-64825701D01*
X185355200Y-64825714D01*
X185350192Y-64825678D01*
X185350192Y-64680571D01*
X185416430Y-64679727D01*
X185460386Y-64676404D01*
X185488779Y-64669417D01*
X185508325Y-64657584D01*
X185514857Y-64651543D01*
X185539680Y-64616814D01*
X185538548Y-64583097D01*
X185517016Y-64549005D01*
X185494029Y-64528671D01*
X185460478Y-64516629D01*
X185407569Y-64509866D01*
X185401399Y-64509402D01*
X185305513Y-64508248D01*
X185234299Y-64520312D01*
X185188194Y-64545430D01*
X185167635Y-64583440D01*
X185166514Y-64597008D01*
X185172152Y-64632636D01*
X185191686Y-64657006D01*
X185229042Y-64671907D01*
X185288150Y-64679125D01*
X185350192Y-64680571D01*
X185350192Y-64825678D01*
X185280413Y-64825174D01*
X185228159Y-64822904D01*
X185191949Y-64817932D01*
X185165299Y-64809287D01*
X185141722Y-64795995D01*
X185137338Y-64793057D01*
X185078249Y-64743687D01*
X185043947Y-64689891D01*
X185030331Y-64624398D01*
X185029665Y-64602158D01*
X185041962Y-64518885D01*
G36*
X185051239Y-63391697D02*
G01*
X185089735Y-63334473D01*
X185145335Y-63290251D01*
X185216086Y-63263833D01*
X185268162Y-63258490D01*
X185289893Y-63259097D01*
X185306531Y-63264178D01*
X185321437Y-63278145D01*
X185337973Y-63305411D01*
X185359498Y-63350388D01*
X185389374Y-63417489D01*
X185389524Y-63417829D01*
X185417813Y-63479593D01*
X185442933Y-63530241D01*
X185462179Y-63564596D01*
X185472848Y-63577482D01*
X185472934Y-63577486D01*
X185496166Y-63566128D01*
X185521774Y-63539569D01*
X185540221Y-63509077D01*
X185543886Y-63493630D01*
X185531212Y-63451485D01*
X185499471Y-63415192D01*
X185464572Y-63397483D01*
X185438845Y-63380448D01*
X185409546Y-63347078D01*
X185384235Y-63307851D01*
X185370471Y-63273244D01*
X185369714Y-63266007D01*
X185382160Y-63257861D01*
X185413972Y-63257370D01*
X185456866Y-63263357D01*
X185502558Y-63274643D01*
X185542761Y-63290050D01*
X185544322Y-63290829D01*
X185609062Y-63337196D01*
X185653097Y-63397289D01*
X185674711Y-63465535D01*
X185672185Y-63536362D01*
X185643804Y-63604196D01*
X185641808Y-63607212D01*
X185593448Y-63660573D01*
X185530352Y-63695660D01*
X185447387Y-63715078D01*
X185424078Y-63717684D01*
X185314055Y-63722299D01*
X185262748Y-63716767D01*
X185262748Y-63577486D01*
X185294753Y-63575676D01*
X185304093Y-63565778D01*
X185297105Y-63541102D01*
X185280587Y-63502205D01*
X185259881Y-63458725D01*
X185259333Y-63457644D01*
X185239949Y-63420791D01*
X185227013Y-63406000D01*
X185213451Y-63409647D01*
X185195632Y-63425005D01*
X185169845Y-63464077D01*
X185167950Y-63506154D01*
X185186717Y-63543897D01*
X185222915Y-63569966D01*
X185262748Y-63577486D01*
X185262748Y-63716767D01*
X185226027Y-63712806D01*
X185156212Y-63688450D01*
X185107302Y-63654544D01*
X185057878Y-63593347D01*
X185033359Y-63525937D01*
X185031797Y-63457120D01*
X185051239Y-63391697D01*
G37*
X185051239Y-63391697D02*
X185089735Y-63334473D01*
X185145335Y-63290251D01*
X185216086Y-63263833D01*
X185268162Y-63258490D01*
X185289893Y-63259097D01*
X185306531Y-63264178D01*
X185321437Y-63278145D01*
X185337973Y-63305411D01*
X185359498Y-63350388D01*
X185389374Y-63417489D01*
X185389524Y-63417829D01*
X185417813Y-63479593D01*
X185442933Y-63530241D01*
X185462179Y-63564596D01*
X185472848Y-63577482D01*
X185472934Y-63577486D01*
X185496166Y-63566128D01*
X185521774Y-63539569D01*
X185540221Y-63509077D01*
X185543886Y-63493630D01*
X185531212Y-63451485D01*
X185499471Y-63415192D01*
X185464572Y-63397483D01*
X185438845Y-63380448D01*
X185409546Y-63347078D01*
X185384235Y-63307851D01*
X185370471Y-63273244D01*
X185369714Y-63266007D01*
X185382160Y-63257861D01*
X185413972Y-63257370D01*
X185456866Y-63263357D01*
X185502558Y-63274643D01*
X185542761Y-63290050D01*
X185544322Y-63290829D01*
X185609062Y-63337196D01*
X185653097Y-63397289D01*
X185674711Y-63465535D01*
X185672185Y-63536362D01*
X185643804Y-63604196D01*
X185641808Y-63607212D01*
X185593448Y-63660573D01*
X185530352Y-63695660D01*
X185447387Y-63715078D01*
X185424078Y-63717684D01*
X185314055Y-63722299D01*
X185262748Y-63716767D01*
X185262748Y-63577486D01*
X185294753Y-63575676D01*
X185304093Y-63565778D01*
X185297105Y-63541102D01*
X185280587Y-63502205D01*
X185259881Y-63458725D01*
X185259333Y-63457644D01*
X185239949Y-63420791D01*
X185227013Y-63406000D01*
X185213451Y-63409647D01*
X185195632Y-63425005D01*
X185169845Y-63464077D01*
X185167950Y-63506154D01*
X185186717Y-63543897D01*
X185222915Y-63569966D01*
X185262748Y-63577486D01*
X185262748Y-63716767D01*
X185226027Y-63712806D01*
X185156212Y-63688450D01*
X185107302Y-63654544D01*
X185057878Y-63593347D01*
X185033359Y-63525937D01*
X185031797Y-63457120D01*
X185051239Y-63391697D01*
G36*
X184971289Y-62184114D02*
G01*
X185030613Y-62179861D01*
X185065572Y-62174975D01*
X185080820Y-62168205D01*
X185081015Y-62158298D01*
X185079195Y-62155086D01*
X185066015Y-62112356D01*
X185066785Y-62056773D01*
X185080333Y-62000263D01*
X185097861Y-61964918D01*
X185125861Y-61928679D01*
X185157549Y-61902187D01*
X185197813Y-61884001D01*
X185251543Y-61872678D01*
X185323626Y-61866778D01*
X185418951Y-61864857D01*
X185437237Y-61864823D01*
X185642646Y-61864800D01*
X185658580Y-61910509D01*
X185669420Y-61942973D01*
X185674468Y-61960785D01*
X185674514Y-61961309D01*
X185660828Y-61963063D01*
X185623076Y-61964556D01*
X185566224Y-61965674D01*
X185495234Y-61966303D01*
X185452073Y-61966400D01*
X185366973Y-61966602D01*
X185305981Y-61967642D01*
X185264177Y-61970169D01*
X185236642Y-61974836D01*
X185218456Y-61982293D01*
X185204698Y-61993189D01*
X185198073Y-61999993D01*
X185171375Y-62046728D01*
X185169375Y-62097728D01*
X185191955Y-62143999D01*
X185200107Y-62152556D01*
X185215436Y-62165107D01*
X185233618Y-62173812D01*
X185259909Y-62179369D01*
X185299562Y-62182474D01*
X185357832Y-62183824D01*
X185438173Y-62184114D01*
X185642646Y-62184114D01*
X185658580Y-62229823D01*
X185669420Y-62262287D01*
X185674468Y-62280099D01*
X185674514Y-62280623D01*
X185660623Y-62281963D01*
X185621439Y-62283172D01*
X185560700Y-62284199D01*
X185482141Y-62284998D01*
X185389498Y-62285519D01*
X185286509Y-62285714D01*
X184889342Y-62285714D01*
X184869444Y-62238543D01*
X184849547Y-62191371D01*
X184971289Y-62184114D01*
G37*
X184971289Y-62184114D02*
X185030613Y-62179861D01*
X185065572Y-62174975D01*
X185080820Y-62168205D01*
X185081015Y-62158298D01*
X185079195Y-62155086D01*
X185066015Y-62112356D01*
X185066785Y-62056773D01*
X185080333Y-62000263D01*
X185097861Y-61964918D01*
X185125861Y-61928679D01*
X185157549Y-61902187D01*
X185197813Y-61884001D01*
X185251543Y-61872678D01*
X185323626Y-61866778D01*
X185418951Y-61864857D01*
X185437237Y-61864823D01*
X185642646Y-61864800D01*
X185658580Y-61910509D01*
X185669420Y-61942973D01*
X185674468Y-61960785D01*
X185674514Y-61961309D01*
X185660828Y-61963063D01*
X185623076Y-61964556D01*
X185566224Y-61965674D01*
X185495234Y-61966303D01*
X185452073Y-61966400D01*
X185366973Y-61966602D01*
X185305981Y-61967642D01*
X185264177Y-61970169D01*
X185236642Y-61974836D01*
X185218456Y-61982293D01*
X185204698Y-61993189D01*
X185198073Y-61999993D01*
X185171375Y-62046728D01*
X185169375Y-62097728D01*
X185191955Y-62143999D01*
X185200107Y-62152556D01*
X185215436Y-62165107D01*
X185233618Y-62173812D01*
X185259909Y-62179369D01*
X185299562Y-62182474D01*
X185357832Y-62183824D01*
X185438173Y-62184114D01*
X185642646Y-62184114D01*
X185658580Y-62229823D01*
X185669420Y-62262287D01*
X185674468Y-62280099D01*
X185674514Y-62280623D01*
X185660623Y-62281963D01*
X185621439Y-62283172D01*
X185560700Y-62284199D01*
X185482141Y-62284998D01*
X185389498Y-62285519D01*
X185286509Y-62285714D01*
X184889342Y-62285714D01*
X184869444Y-62238543D01*
X184849547Y-62191371D01*
X184971289Y-62184114D01*
G36*
X185070968Y-61520256D02*
G01*
X185092087Y-61463384D01*
X185092493Y-61462733D01*
X185118380Y-61427560D01*
X185148633Y-61401593D01*
X185188058Y-61383330D01*
X185241462Y-61371268D01*
X185313651Y-61363904D01*
X185409432Y-61359736D01*
X185423078Y-61359371D01*
X185628842Y-61354124D01*
X185651678Y-61398284D01*
X185667110Y-61430237D01*
X185674423Y-61449530D01*
X185674514Y-61450422D01*
X185661022Y-61453761D01*
X185624626Y-61456413D01*
X185571452Y-61458044D01*
X185528393Y-61458400D01*
X185458641Y-61458408D01*
X185414837Y-61461597D01*
X185393944Y-61472712D01*
X185392925Y-61496499D01*
X185408741Y-61537704D01*
X185437815Y-61599914D01*
X185461963Y-61645659D01*
X185482913Y-61669187D01*
X185505747Y-61676104D01*
X185506877Y-61676114D01*
X185546212Y-61664701D01*
X185567462Y-61630908D01*
X185570539Y-61579191D01*
X185570006Y-61541939D01*
X185580735Y-61522297D01*
X185606505Y-61510048D01*
X185639337Y-61502998D01*
X185657966Y-61513158D01*
X185660632Y-61516983D01*
X185671340Y-61552999D01*
X185672856Y-61603434D01*
X185665759Y-61655374D01*
X185652788Y-61692178D01*
X185609585Y-61743062D01*
X185549446Y-61771986D01*
X185502462Y-61777714D01*
X185460082Y-61773343D01*
X185425488Y-61757525D01*
X185394763Y-61726203D01*
X185363990Y-61675322D01*
X185329252Y-61600824D01*
X185327288Y-61596286D01*
X185296287Y-61529179D01*
X185270862Y-61487768D01*
X185248014Y-61470019D01*
X185224745Y-61473893D01*
X185198056Y-61497357D01*
X185191914Y-61504373D01*
X185168100Y-61551370D01*
X185169103Y-61600067D01*
X185192451Y-61642478D01*
X185235675Y-61670616D01*
X185244160Y-61673231D01*
X185285308Y-61698692D01*
X185305128Y-61730999D01*
X185324770Y-61777714D01*
X185273950Y-61777714D01*
X185200082Y-61763504D01*
X185132327Y-61721325D01*
X185109661Y-61699376D01*
X185080569Y-61649483D01*
X185067400Y-61586033D01*
X185070968Y-61520256D01*
G37*
X185070968Y-61520256D02*
X185092087Y-61463384D01*
X185092493Y-61462733D01*
X185118380Y-61427560D01*
X185148633Y-61401593D01*
X185188058Y-61383330D01*
X185241462Y-61371268D01*
X185313651Y-61363904D01*
X185409432Y-61359736D01*
X185423078Y-61359371D01*
X185628842Y-61354124D01*
X185651678Y-61398284D01*
X185667110Y-61430237D01*
X185674423Y-61449530D01*
X185674514Y-61450422D01*
X185661022Y-61453761D01*
X185624626Y-61456413D01*
X185571452Y-61458044D01*
X185528393Y-61458400D01*
X185458641Y-61458408D01*
X185414837Y-61461597D01*
X185393944Y-61472712D01*
X185392925Y-61496499D01*
X185408741Y-61537704D01*
X185437815Y-61599914D01*
X185461963Y-61645659D01*
X185482913Y-61669187D01*
X185505747Y-61676104D01*
X185506877Y-61676114D01*
X185546212Y-61664701D01*
X185567462Y-61630908D01*
X185570539Y-61579191D01*
X185570006Y-61541939D01*
X185580735Y-61522297D01*
X185606505Y-61510048D01*
X185639337Y-61502998D01*
X185657966Y-61513158D01*
X185660632Y-61516983D01*
X185671340Y-61552999D01*
X185672856Y-61603434D01*
X185665759Y-61655374D01*
X185652788Y-61692178D01*
X185609585Y-61743062D01*
X185549446Y-61771986D01*
X185502462Y-61777714D01*
X185460082Y-61773343D01*
X185425488Y-61757525D01*
X185394763Y-61726203D01*
X185363990Y-61675322D01*
X185329252Y-61600824D01*
X185327288Y-61596286D01*
X185296287Y-61529179D01*
X185270862Y-61487768D01*
X185248014Y-61470019D01*
X185224745Y-61473893D01*
X185198056Y-61497357D01*
X185191914Y-61504373D01*
X185168100Y-61551370D01*
X185169103Y-61600067D01*
X185192451Y-61642478D01*
X185235675Y-61670616D01*
X185244160Y-61673231D01*
X185285308Y-61698692D01*
X185305128Y-61730999D01*
X185324770Y-61777714D01*
X185273950Y-61777714D01*
X185200082Y-61763504D01*
X185132327Y-61721325D01*
X185109661Y-61699376D01*
X185080569Y-61649483D01*
X185067400Y-61586033D01*
X185070968Y-61520256D01*
G36*
X185069755Y-61030074D02*
G01*
X185094084Y-60964142D01*
X185137117Y-60910727D01*
X185167409Y-60889836D01*
X185222994Y-60867061D01*
X185263186Y-60867534D01*
X185290217Y-60891438D01*
X185294813Y-60900283D01*
X185309144Y-60938470D01*
X185305472Y-60957972D01*
X185281407Y-60964578D01*
X185268114Y-60964914D01*
X185219210Y-60977008D01*
X185184999Y-61008529D01*
X185168476Y-61052341D01*
X185172634Y-61101305D01*
X185194227Y-61141106D01*
X185206544Y-61154550D01*
X185221487Y-61164079D01*
X185244075Y-61170515D01*
X185279328Y-61174683D01*
X185332266Y-61177403D01*
X185407907Y-61179498D01*
X185431857Y-61180040D01*
X185513790Y-61182019D01*
X185571455Y-61184269D01*
X185609608Y-61187643D01*
X185633004Y-61192994D01*
X185646398Y-61201176D01*
X185654545Y-61213041D01*
X185658144Y-61220638D01*
X185670452Y-61252898D01*
X185674514Y-61271889D01*
X185660948Y-61278164D01*
X185619934Y-61281994D01*
X185550999Y-61283400D01*
X185453669Y-61282402D01*
X185438657Y-61282092D01*
X185349859Y-61279899D01*
X185285019Y-61277307D01*
X185239067Y-61273618D01*
X185206935Y-61268136D01*
X185183553Y-61260165D01*
X185163852Y-61249007D01*
X185155410Y-61243170D01*
X185118057Y-61209704D01*
X185089003Y-61172273D01*
X185086467Y-61167691D01*
X185066443Y-61100574D01*
X185069755Y-61030074D01*
G37*
X185069755Y-61030074D02*
X185094084Y-60964142D01*
X185137117Y-60910727D01*
X185167409Y-60889836D01*
X185222994Y-60867061D01*
X185263186Y-60867534D01*
X185290217Y-60891438D01*
X185294813Y-60900283D01*
X185309144Y-60938470D01*
X185305472Y-60957972D01*
X185281407Y-60964578D01*
X185268114Y-60964914D01*
X185219210Y-60977008D01*
X185184999Y-61008529D01*
X185168476Y-61052341D01*
X185172634Y-61101305D01*
X185194227Y-61141106D01*
X185206544Y-61154550D01*
X185221487Y-61164079D01*
X185244075Y-61170515D01*
X185279328Y-61174683D01*
X185332266Y-61177403D01*
X185407907Y-61179498D01*
X185431857Y-61180040D01*
X185513790Y-61182019D01*
X185571455Y-61184269D01*
X185609608Y-61187643D01*
X185633004Y-61192994D01*
X185646398Y-61201176D01*
X185654545Y-61213041D01*
X185658144Y-61220638D01*
X185670452Y-61252898D01*
X185674514Y-61271889D01*
X185660948Y-61278164D01*
X185619934Y-61281994D01*
X185550999Y-61283400D01*
X185453669Y-61282402D01*
X185438657Y-61282092D01*
X185349859Y-61279899D01*
X185285019Y-61277307D01*
X185239067Y-61273618D01*
X185206935Y-61268136D01*
X185183553Y-61260165D01*
X185163852Y-61249007D01*
X185155410Y-61243170D01*
X185118057Y-61209704D01*
X185089003Y-61172273D01*
X185086467Y-61167691D01*
X185066443Y-61100574D01*
X185069755Y-61030074D01*
G36*
X185185358Y-60369883D02*
G01*
X185293837Y-60370067D01*
X185377287Y-60370781D01*
X185439704Y-60372325D01*
X185485085Y-60374999D01*
X185517429Y-60379106D01*
X185540733Y-60384945D01*
X185558995Y-60392818D01*
X185569418Y-60398779D01*
X185625945Y-60448145D01*
X185661377Y-60510736D01*
X185674090Y-60579987D01*
X185662463Y-60649332D01*
X185641568Y-60690625D01*
X185605422Y-60733975D01*
X185561276Y-60763519D01*
X185503462Y-60781345D01*
X185426313Y-60789537D01*
X185369714Y-60790698D01*
X185365647Y-60790542D01*
X185365647Y-60689143D01*
X185430550Y-60688524D01*
X185473514Y-60685686D01*
X185501622Y-60679160D01*
X185521953Y-60667477D01*
X185537288Y-60653517D01*
X185566890Y-60606635D01*
X185569419Y-60556299D01*
X185544705Y-60508724D01*
X185541356Y-60505021D01*
X185523935Y-60489217D01*
X185503209Y-60479307D01*
X185472362Y-60473942D01*
X185424577Y-60471772D01*
X185371748Y-60471429D01*
X185305381Y-60472173D01*
X185261106Y-60475252D01*
X185232009Y-60481939D01*
X185211173Y-60493504D01*
X185200107Y-60502987D01*
X185172198Y-60547040D01*
X185168843Y-60597776D01*
X185190159Y-60646204D01*
X185198073Y-60655550D01*
X185215647Y-60671460D01*
X185236587Y-60681390D01*
X185267782Y-60686722D01*
X185316122Y-60688837D01*
X185365647Y-60689143D01*
X185365647Y-60790542D01*
X185278568Y-60787190D01*
X185210086Y-60775274D01*
X185158600Y-60752865D01*
X185118443Y-60717876D01*
X185097861Y-60690625D01*
X185075625Y-60641093D01*
X185065304Y-60583684D01*
X185068067Y-60530318D01*
X185079212Y-60500457D01*
X185082383Y-60488739D01*
X185070557Y-60480963D01*
X185038866Y-60475535D01*
X184990593Y-60471429D01*
X184936829Y-60466933D01*
X184904482Y-60460687D01*
X184885985Y-60449324D01*
X184873770Y-60429472D01*
X184868362Y-60417000D01*
X184848601Y-60369829D01*
X185185358Y-60369883D01*
G37*
X185185358Y-60369883D02*
X185293837Y-60370067D01*
X185377287Y-60370781D01*
X185439704Y-60372325D01*
X185485085Y-60374999D01*
X185517429Y-60379106D01*
X185540733Y-60384945D01*
X185558995Y-60392818D01*
X185569418Y-60398779D01*
X185625945Y-60448145D01*
X185661377Y-60510736D01*
X185674090Y-60579987D01*
X185662463Y-60649332D01*
X185641568Y-60690625D01*
X185605422Y-60733975D01*
X185561276Y-60763519D01*
X185503462Y-60781345D01*
X185426313Y-60789537D01*
X185369714Y-60790698D01*
X185365647Y-60790542D01*
X185365647Y-60689143D01*
X185430550Y-60688524D01*
X185473514Y-60685686D01*
X185501622Y-60679160D01*
X185521953Y-60667477D01*
X185537288Y-60653517D01*
X185566890Y-60606635D01*
X185569419Y-60556299D01*
X185544705Y-60508724D01*
X185541356Y-60505021D01*
X185523935Y-60489217D01*
X185503209Y-60479307D01*
X185472362Y-60473942D01*
X185424577Y-60471772D01*
X185371748Y-60471429D01*
X185305381Y-60472173D01*
X185261106Y-60475252D01*
X185232009Y-60481939D01*
X185211173Y-60493504D01*
X185200107Y-60502987D01*
X185172198Y-60547040D01*
X185168843Y-60597776D01*
X185190159Y-60646204D01*
X185198073Y-60655550D01*
X185215647Y-60671460D01*
X185236587Y-60681390D01*
X185267782Y-60686722D01*
X185316122Y-60688837D01*
X185365647Y-60689143D01*
X185365647Y-60790542D01*
X185278568Y-60787190D01*
X185210086Y-60775274D01*
X185158600Y-60752865D01*
X185118443Y-60717876D01*
X185097861Y-60690625D01*
X185075625Y-60641093D01*
X185065304Y-60583684D01*
X185068067Y-60530318D01*
X185079212Y-60500457D01*
X185082383Y-60488739D01*
X185070557Y-60480963D01*
X185038866Y-60475535D01*
X184990593Y-60471429D01*
X184936829Y-60466933D01*
X184904482Y-60460687D01*
X184885985Y-60449324D01*
X184873770Y-60429472D01*
X184868362Y-60417000D01*
X184848601Y-60369829D01*
X185185358Y-60369883D01*
G36*
X185078663Y-59780167D02*
G01*
X185116850Y-59777952D01*
X185174886Y-59776216D01*
X185248180Y-59775101D01*
X185325055Y-59774743D01*
X185585196Y-59774743D01*
X185631127Y-59820674D01*
X185659429Y-59852325D01*
X185670893Y-59880110D01*
X185670168Y-59918085D01*
X185668321Y-59933160D01*
X185662948Y-59980274D01*
X185659869Y-60019244D01*
X185659585Y-60028743D01*
X185661445Y-60060767D01*
X185666114Y-60106568D01*
X185668321Y-60124326D01*
X185671735Y-60167943D01*
X185664320Y-60197255D01*
X185641427Y-60226320D01*
X185631127Y-60236812D01*
X185585196Y-60282743D01*
X185098602Y-60282743D01*
X185081758Y-60245774D01*
X185069282Y-60213941D01*
X185064914Y-60195317D01*
X185078718Y-60190542D01*
X185117286Y-60186079D01*
X185176356Y-60182225D01*
X185251663Y-60179278D01*
X185315286Y-60177857D01*
X185565657Y-60173886D01*
X185570556Y-60139241D01*
X185567131Y-60107732D01*
X185556041Y-60092292D01*
X185535308Y-60087977D01*
X185491145Y-60084292D01*
X185429146Y-60081531D01*
X185354909Y-60079988D01*
X185316706Y-60079765D01*
X185096783Y-60079543D01*
X185080849Y-60033834D01*
X185070015Y-60001482D01*
X185064962Y-59983885D01*
X185064914Y-59983377D01*
X185078648Y-59981612D01*
X185116730Y-59979671D01*
X185174482Y-59977718D01*
X185247227Y-59975916D01*
X185315286Y-59974657D01*
X185565657Y-59970686D01*
X185565657Y-59883600D01*
X185337240Y-59879604D01*
X185108822Y-59875608D01*
X185086868Y-59833153D01*
X185071793Y-59801808D01*
X185064951Y-59783256D01*
X185064914Y-59782721D01*
X185078663Y-59780167D01*
G37*
X185078663Y-59780167D02*
X185116850Y-59777952D01*
X185174886Y-59776216D01*
X185248180Y-59775101D01*
X185325055Y-59774743D01*
X185585196Y-59774743D01*
X185631127Y-59820674D01*
X185659429Y-59852325D01*
X185670893Y-59880110D01*
X185670168Y-59918085D01*
X185668321Y-59933160D01*
X185662948Y-59980274D01*
X185659869Y-60019244D01*
X185659585Y-60028743D01*
X185661445Y-60060767D01*
X185666114Y-60106568D01*
X185668321Y-60124326D01*
X185671735Y-60167943D01*
X185664320Y-60197255D01*
X185641427Y-60226320D01*
X185631127Y-60236812D01*
X185585196Y-60282743D01*
X185098602Y-60282743D01*
X185081758Y-60245774D01*
X185069282Y-60213941D01*
X185064914Y-60195317D01*
X185078718Y-60190542D01*
X185117286Y-60186079D01*
X185176356Y-60182225D01*
X185251663Y-60179278D01*
X185315286Y-60177857D01*
X185565657Y-60173886D01*
X185570556Y-60139241D01*
X185567131Y-60107732D01*
X185556041Y-60092292D01*
X185535308Y-60087977D01*
X185491145Y-60084292D01*
X185429146Y-60081531D01*
X185354909Y-60079988D01*
X185316706Y-60079765D01*
X185096783Y-60079543D01*
X185080849Y-60033834D01*
X185070015Y-60001482D01*
X185064962Y-59983885D01*
X185064914Y-59983377D01*
X185078648Y-59981612D01*
X185116730Y-59979671D01*
X185174482Y-59977718D01*
X185247227Y-59975916D01*
X185315286Y-59974657D01*
X185565657Y-59970686D01*
X185565657Y-59883600D01*
X185337240Y-59879604D01*
X185108822Y-59875608D01*
X185086868Y-59833153D01*
X185071793Y-59801808D01*
X185064951Y-59783256D01*
X185064914Y-59782721D01*
X185078663Y-59780167D01*
G36*
X185076335Y-59415124D02*
G01*
X185095344Y-59373333D01*
X185118378Y-59340531D01*
X185144133Y-59316497D01*
X185177358Y-59299903D01*
X185222800Y-59289423D01*
X185285207Y-59283729D01*
X185369327Y-59281493D01*
X185424721Y-59281257D01*
X185640826Y-59281257D01*
X185657670Y-59318226D01*
X185669981Y-59347344D01*
X185674514Y-59361769D01*
X185661025Y-59364528D01*
X185624653Y-59366718D01*
X185571542Y-59368058D01*
X185529372Y-59368343D01*
X185468447Y-59369566D01*
X185420115Y-59372864D01*
X185390518Y-59377679D01*
X185384229Y-59381504D01*
X185390652Y-59407217D01*
X185407125Y-59447582D01*
X185429458Y-59494321D01*
X185453457Y-59539155D01*
X185474930Y-59573807D01*
X185489685Y-59589998D01*
X185489845Y-59590062D01*
X185517152Y-59588670D01*
X185543219Y-59576182D01*
X185564392Y-59554257D01*
X185571474Y-59522257D01*
X185570649Y-59494908D01*
X185570042Y-59456174D01*
X185579116Y-59435842D01*
X185603092Y-59423631D01*
X185607613Y-59422091D01*
X185641806Y-59416797D01*
X185662568Y-59430953D01*
X185672462Y-59467852D01*
X185674292Y-59507711D01*
X185660727Y-59579438D01*
X185641355Y-59616568D01*
X185595845Y-59662424D01*
X185539983Y-59686744D01*
X185480957Y-59688927D01*
X185425953Y-59668371D01*
X185391486Y-59637451D01*
X185372189Y-59606580D01*
X185347759Y-59558058D01*
X185322985Y-59501515D01*
X185319199Y-59492090D01*
X185291791Y-59429981D01*
X185267634Y-59394178D01*
X185243619Y-59382663D01*
X185216635Y-59393420D01*
X185195543Y-59411886D01*
X185169572Y-59455531D01*
X185167624Y-59503554D01*
X185187637Y-59547594D01*
X185227551Y-59579291D01*
X185237848Y-59583451D01*
X185275724Y-59607673D01*
X185303842Y-59643035D01*
X185326917Y-59687657D01*
X185261485Y-59687657D01*
X185221506Y-59685031D01*
X185189997Y-59673770D01*
X185156378Y-59648801D01*
X185130484Y-59624831D01*
X185093817Y-59587559D01*
X185074121Y-59558599D01*
X185066220Y-59527495D01*
X185064914Y-59492287D01*
X185076335Y-59415124D01*
G37*
X185076335Y-59415124D02*
X185095344Y-59373333D01*
X185118378Y-59340531D01*
X185144133Y-59316497D01*
X185177358Y-59299903D01*
X185222800Y-59289423D01*
X185285207Y-59283729D01*
X185369327Y-59281493D01*
X185424721Y-59281257D01*
X185640826Y-59281257D01*
X185657670Y-59318226D01*
X185669981Y-59347344D01*
X185674514Y-59361769D01*
X185661025Y-59364528D01*
X185624653Y-59366718D01*
X185571542Y-59368058D01*
X185529372Y-59368343D01*
X185468447Y-59369566D01*
X185420115Y-59372864D01*
X185390518Y-59377679D01*
X185384229Y-59381504D01*
X185390652Y-59407217D01*
X185407125Y-59447582D01*
X185429458Y-59494321D01*
X185453457Y-59539155D01*
X185474930Y-59573807D01*
X185489685Y-59589998D01*
X185489845Y-59590062D01*
X185517152Y-59588670D01*
X185543219Y-59576182D01*
X185564392Y-59554257D01*
X185571474Y-59522257D01*
X185570649Y-59494908D01*
X185570042Y-59456174D01*
X185579116Y-59435842D01*
X185603092Y-59423631D01*
X185607613Y-59422091D01*
X185641806Y-59416797D01*
X185662568Y-59430953D01*
X185672462Y-59467852D01*
X185674292Y-59507711D01*
X185660727Y-59579438D01*
X185641355Y-59616568D01*
X185595845Y-59662424D01*
X185539983Y-59686744D01*
X185480957Y-59688927D01*
X185425953Y-59668371D01*
X185391486Y-59637451D01*
X185372189Y-59606580D01*
X185347759Y-59558058D01*
X185322985Y-59501515D01*
X185319199Y-59492090D01*
X185291791Y-59429981D01*
X185267634Y-59394178D01*
X185243619Y-59382663D01*
X185216635Y-59393420D01*
X185195543Y-59411886D01*
X185169572Y-59455531D01*
X185167624Y-59503554D01*
X185187637Y-59547594D01*
X185227551Y-59579291D01*
X185237848Y-59583451D01*
X185275724Y-59607673D01*
X185303842Y-59643035D01*
X185326917Y-59687657D01*
X185261485Y-59687657D01*
X185221506Y-59685031D01*
X185189997Y-59673770D01*
X185156378Y-59648801D01*
X185130484Y-59624831D01*
X185093817Y-59587559D01*
X185074121Y-59558599D01*
X185066220Y-59527495D01*
X185064914Y-59492287D01*
X185076335Y-59415124D01*
G36*
X185078752Y-58907400D02*
G01*
X185086334Y-58890052D01*
X185119128Y-58848644D01*
X185166547Y-58813235D01*
X185217151Y-58791336D01*
X185242098Y-58787771D01*
X185276927Y-58799721D01*
X185295357Y-58825933D01*
X185306516Y-58854036D01*
X185308572Y-58866905D01*
X185293649Y-58873171D01*
X185261175Y-58885544D01*
X185246502Y-58890972D01*
X185195744Y-58921410D01*
X185170427Y-58965480D01*
X185171206Y-59021990D01*
X185172203Y-59026175D01*
X185186507Y-59056345D01*
X185214393Y-59078524D01*
X185259287Y-59093673D01*
X185324615Y-59102750D01*
X185413804Y-59106714D01*
X185461261Y-59107086D01*
X185536071Y-59107270D01*
X185587069Y-59108478D01*
X185619471Y-59111691D01*
X185638495Y-59117891D01*
X185649356Y-59128060D01*
X185657272Y-59143181D01*
X185657670Y-59144054D01*
X185669981Y-59173172D01*
X185674514Y-59187597D01*
X185660809Y-59189814D01*
X185622925Y-59191711D01*
X185565715Y-59193153D01*
X185494027Y-59194002D01*
X185441565Y-59194171D01*
X185340047Y-59193308D01*
X185263032Y-59189930D01*
X185206023Y-59182858D01*
X185164526Y-59170912D01*
X185134043Y-59152910D01*
X185110080Y-59127673D01*
X185093355Y-59102753D01*
X185071097Y-59042829D01*
X185066076Y-58973089D01*
X185078752Y-58907400D01*
G37*
X185078752Y-58907400D02*
X185086334Y-58890052D01*
X185119128Y-58848644D01*
X185166547Y-58813235D01*
X185217151Y-58791336D01*
X185242098Y-58787771D01*
X185276927Y-58799721D01*
X185295357Y-58825933D01*
X185306516Y-58854036D01*
X185308572Y-58866905D01*
X185293649Y-58873171D01*
X185261175Y-58885544D01*
X185246502Y-58890972D01*
X185195744Y-58921410D01*
X185170427Y-58965480D01*
X185171206Y-59021990D01*
X185172203Y-59026175D01*
X185186507Y-59056345D01*
X185214393Y-59078524D01*
X185259287Y-59093673D01*
X185324615Y-59102750D01*
X185413804Y-59106714D01*
X185461261Y-59107086D01*
X185536071Y-59107270D01*
X185587069Y-59108478D01*
X185619471Y-59111691D01*
X185638495Y-59117891D01*
X185649356Y-59128060D01*
X185657272Y-59143181D01*
X185657670Y-59144054D01*
X185669981Y-59173172D01*
X185674514Y-59187597D01*
X185660809Y-59189814D01*
X185622925Y-59191711D01*
X185565715Y-59193153D01*
X185494027Y-59194002D01*
X185441565Y-59194171D01*
X185340047Y-59193308D01*
X185263032Y-59189930D01*
X185206023Y-59182858D01*
X185164526Y-59170912D01*
X185134043Y-59152910D01*
X185110080Y-59127673D01*
X185093355Y-59102753D01*
X185071097Y-59042829D01*
X185066076Y-58973089D01*
X185078752Y-58907400D01*
G36*
X185086966Y-58406405D02*
G01*
X185124497Y-58348979D01*
X185158096Y-58321281D01*
X185219064Y-58299338D01*
X185267308Y-58297595D01*
X185331816Y-58301543D01*
X185396934Y-58450314D01*
X185430202Y-58522651D01*
X185456964Y-58569916D01*
X185480144Y-58594493D01*
X185502667Y-58598763D01*
X185527455Y-58585111D01*
X185543886Y-58570057D01*
X185570235Y-58526254D01*
X185572081Y-58478611D01*
X185551546Y-58434855D01*
X185510752Y-58402711D01*
X185496347Y-58396962D01*
X185451356Y-58369424D01*
X185432182Y-58337742D01*
X185415779Y-58294286D01*
X185477966Y-58294286D01*
X185520283Y-58298128D01*
X185555969Y-58313177D01*
X185596943Y-58344720D01*
X185602267Y-58349408D01*
X185638720Y-58384494D01*
X185658283Y-58414653D01*
X185667283Y-58452385D01*
X185670230Y-58483665D01*
X185670965Y-58539615D01*
X185661660Y-58579445D01*
X185647846Y-58604292D01*
X185617467Y-58643344D01*
X185584613Y-58670375D01*
X185543294Y-58687483D01*
X185487521Y-58696762D01*
X185411305Y-58700307D01*
X185372622Y-58700590D01*
X185326247Y-58699628D01*
X185326247Y-58611993D01*
X185351126Y-58610977D01*
X185355200Y-58608444D01*
X185349665Y-58591726D01*
X185335017Y-58555751D01*
X185314190Y-58507669D01*
X185309714Y-58497614D01*
X185278814Y-58436848D01*
X185251657Y-58403368D01*
X185226220Y-58396010D01*
X185200481Y-58413609D01*
X185189109Y-58428144D01*
X185166364Y-58480590D01*
X185170122Y-58529678D01*
X185197884Y-58570773D01*
X185247152Y-58599242D01*
X185286257Y-58608369D01*
X185326247Y-58611993D01*
X185326247Y-58699628D01*
X185282249Y-58698715D01*
X185215384Y-58691804D01*
X185166695Y-58678116D01*
X185130849Y-58655904D01*
X185102513Y-58623426D01*
X185093355Y-58609267D01*
X185069507Y-58544947D01*
X185068006Y-58474527D01*
X185086966Y-58406405D01*
G37*
X185086966Y-58406405D02*
X185124497Y-58348979D01*
X185158096Y-58321281D01*
X185219064Y-58299338D01*
X185267308Y-58297595D01*
X185331816Y-58301543D01*
X185396934Y-58450314D01*
X185430202Y-58522651D01*
X185456964Y-58569916D01*
X185480144Y-58594493D01*
X185502667Y-58598763D01*
X185527455Y-58585111D01*
X185543886Y-58570057D01*
X185570235Y-58526254D01*
X185572081Y-58478611D01*
X185551546Y-58434855D01*
X185510752Y-58402711D01*
X185496347Y-58396962D01*
X185451356Y-58369424D01*
X185432182Y-58337742D01*
X185415779Y-58294286D01*
X185477966Y-58294286D01*
X185520283Y-58298128D01*
X185555969Y-58313177D01*
X185596943Y-58344720D01*
X185602267Y-58349408D01*
X185638720Y-58384494D01*
X185658283Y-58414653D01*
X185667283Y-58452385D01*
X185670230Y-58483665D01*
X185670965Y-58539615D01*
X185661660Y-58579445D01*
X185647846Y-58604292D01*
X185617467Y-58643344D01*
X185584613Y-58670375D01*
X185543294Y-58687483D01*
X185487521Y-58696762D01*
X185411305Y-58700307D01*
X185372622Y-58700590D01*
X185326247Y-58699628D01*
X185326247Y-58611993D01*
X185351126Y-58610977D01*
X185355200Y-58608444D01*
X185349665Y-58591726D01*
X185335017Y-58555751D01*
X185314190Y-58507669D01*
X185309714Y-58497614D01*
X185278814Y-58436848D01*
X185251657Y-58403368D01*
X185226220Y-58396010D01*
X185200481Y-58413609D01*
X185189109Y-58428144D01*
X185166364Y-58480590D01*
X185170122Y-58529678D01*
X185197884Y-58570773D01*
X185247152Y-58599242D01*
X185286257Y-58608369D01*
X185326247Y-58611993D01*
X185326247Y-58699628D01*
X185282249Y-58698715D01*
X185215384Y-58691804D01*
X185166695Y-58678116D01*
X185130849Y-58655904D01*
X185102513Y-58623426D01*
X185093355Y-58609267D01*
X185069507Y-58544947D01*
X185068006Y-58474527D01*
X185086966Y-58406405D01*
G36*
X180362348Y-61456090D02*
G01*
X180362778Y-61377546D01*
X180363942Y-61320702D01*
X180366207Y-61281895D01*
X180369940Y-61257462D01*
X180375506Y-61243738D01*
X180383273Y-61237060D01*
X180393605Y-61233764D01*
X180394943Y-61233444D01*
X180419079Y-61228438D01*
X180466701Y-61219171D01*
X180532741Y-61206608D01*
X180612128Y-61191713D01*
X180699796Y-61175449D01*
X180702875Y-61174881D01*
X180788789Y-61158590D01*
X180864696Y-61143348D01*
X180926045Y-61130139D01*
X180968282Y-61119946D01*
X180986855Y-61113752D01*
X180987184Y-61113457D01*
X180996253Y-61095212D01*
X181011367Y-61057595D01*
X181029262Y-61008729D01*
X181029358Y-61008457D01*
X181052493Y-60946907D01*
X181081965Y-60874343D01*
X181111597Y-60805943D01*
X181113062Y-60802706D01*
X181163626Y-60691298D01*
X180995160Y-60444601D01*
X180943803Y-60368923D01*
X180897889Y-60300369D01*
X180860030Y-60242912D01*
X180832837Y-60200524D01*
X180818921Y-60177175D01*
X180817889Y-60174958D01*
X180822484Y-60157990D01*
X180844655Y-60126299D01*
X180885447Y-60078648D01*
X180945905Y-60013802D01*
X181010227Y-59947603D01*
X181073612Y-59883786D01*
X181131451Y-59826671D01*
X181180175Y-59779695D01*
X181216210Y-59746297D01*
X181235984Y-59729915D01*
X181237002Y-59729306D01*
X181250572Y-59727495D01*
X181272733Y-59734317D01*
X181306478Y-59751460D01*
X181354800Y-59780607D01*
X181420692Y-59823445D01*
X181505517Y-59880552D01*
X181580177Y-59931234D01*
X181647140Y-59976539D01*
X181702516Y-60013850D01*
X181742420Y-60040548D01*
X181762962Y-60054015D01*
X181764356Y-60054863D01*
X181784038Y-60053219D01*
X181822293Y-60040755D01*
X181871889Y-60019952D01*
X181887728Y-60012538D01*
X181958290Y-59980186D01*
X182038353Y-59945672D01*
X182107629Y-59917635D01*
X182159045Y-59897432D01*
X182198119Y-59881385D01*
X182218541Y-59872112D01*
X182220114Y-59870959D01*
X182222721Y-59853904D01*
X182229863Y-59813702D01*
X182240523Y-59755698D01*
X182253685Y-59685237D01*
X182268333Y-59607665D01*
X182283449Y-59528328D01*
X182298018Y-59452569D01*
X182311022Y-59385736D01*
X182321445Y-59333172D01*
X182328270Y-59300224D01*
X182330199Y-59292143D01*
X182334962Y-59283795D01*
X182345718Y-59277494D01*
X182366098Y-59272955D01*
X182399734Y-59269896D01*
X182450255Y-59268033D01*
X182521292Y-59267082D01*
X182616476Y-59266760D01*
X182655492Y-59266743D01*
X182972799Y-59266743D01*
X182987839Y-59342943D01*
X182995995Y-59385337D01*
X183007899Y-59448600D01*
X183022116Y-59525038D01*
X183037210Y-59606957D01*
X183041355Y-59629600D01*
X183056053Y-59705194D01*
X183070505Y-59771047D01*
X183083375Y-59821634D01*
X183093322Y-59851426D01*
X183096287Y-59856388D01*
X183117283Y-59868574D01*
X183157967Y-59886047D01*
X183210322Y-59905423D01*
X183221600Y-59909266D01*
X183291523Y-59934661D01*
X183370418Y-59966183D01*
X183441266Y-59997031D01*
X183441595Y-59997183D01*
X183552733Y-60048553D01*
X183801253Y-59879601D01*
X184049772Y-59710648D01*
X184267058Y-59927571D01*
X184331726Y-59993181D01*
X184388733Y-60053021D01*
X184435033Y-60103733D01*
X184467584Y-60141954D01*
X184483343Y-60164325D01*
X184484343Y-60167534D01*
X184476469Y-60186374D01*
X184454578Y-60224820D01*
X184421267Y-60278670D01*
X184379131Y-60343724D01*
X184331943Y-60414060D01*
X184283810Y-60485445D01*
X184241928Y-60549092D01*
X184208871Y-60600959D01*
X184187218Y-60637005D01*
X184179543Y-60653133D01*
X184186037Y-60672811D01*
X184203150Y-60710125D01*
X184227326Y-60757379D01*
X184230013Y-60762388D01*
X184261927Y-60826023D01*
X184277579Y-60869659D01*
X184277745Y-60896798D01*
X184263204Y-60910943D01*
X184263000Y-60911025D01*
X184245779Y-60918095D01*
X184204899Y-60934958D01*
X184143525Y-60960305D01*
X184064819Y-60992829D01*
X183971947Y-61031222D01*
X183868072Y-61074178D01*
X183767502Y-61115778D01*
X183656516Y-61161496D01*
X183553703Y-61203474D01*
X183462215Y-61240452D01*
X183385201Y-61271173D01*
X183325815Y-61294378D01*
X183287209Y-61308810D01*
X183272800Y-61313257D01*
X183256272Y-61302104D01*
X183229930Y-61272931D01*
X183200887Y-61234029D01*
X183109039Y-61123243D01*
X183003759Y-61036649D01*
X182887266Y-60975284D01*
X182761776Y-60940185D01*
X182629507Y-60932392D01*
X182568457Y-60938057D01*
X182441795Y-60968922D01*
X182329941Y-61022080D01*
X182234001Y-61094233D01*
X182155076Y-61182083D01*
X182094270Y-61282335D01*
X182052687Y-61391690D01*
X182031428Y-61506853D01*
X182031599Y-61624525D01*
X182054301Y-61741410D01*
X182100638Y-61854211D01*
X182171713Y-61959631D01*
X182211911Y-62003632D01*
X182315129Y-62088021D01*
X182427925Y-62146778D01*
X182547010Y-62180296D01*
X182669095Y-62188965D01*
X182790893Y-62173177D01*
X182909116Y-62133322D01*
X183020475Y-62069793D01*
X183121684Y-61982979D01*
X183200887Y-61885971D01*
X183231162Y-61845563D01*
X183257219Y-61817018D01*
X183272825Y-61806743D01*
X183289843Y-61812123D01*
X183330500Y-61827425D01*
X183391642Y-61851388D01*
X183470119Y-61882756D01*
X183562780Y-61920268D01*
X183666472Y-61962667D01*
X183767526Y-62004337D01*
X183878607Y-62050310D01*
X183981541Y-62092893D01*
X184073165Y-62130779D01*
X184150316Y-62162660D01*
X184209831Y-62187229D01*
X184248544Y-62203180D01*
X184263000Y-62209090D01*
X184277685Y-62223052D01*
X184277642Y-62250060D01*
X184262099Y-62293587D01*
X184230284Y-62357110D01*
X184230013Y-62357612D01*
X184205323Y-62405440D01*
X184187338Y-62444103D01*
X184179614Y-62465905D01*
X184179543Y-62466867D01*
X184187378Y-62483279D01*
X184209165Y-62519513D01*
X184242328Y-62571526D01*
X184284291Y-62635275D01*
X184331943Y-62705940D01*
X184380191Y-62777884D01*
X184422151Y-62842726D01*
X184455227Y-62896265D01*
X184476821Y-62934303D01*
X184484343Y-62952467D01*
X184474457Y-62969192D01*
X184446826Y-63002820D01*
X184404495Y-63049990D01*
X184350505Y-63107342D01*
X184287899Y-63171516D01*
X184266983Y-63192503D01*
X184049623Y-63409501D01*
X183807220Y-63244332D01*
X183732781Y-63194136D01*
X183665972Y-63150081D01*
X183610665Y-63114638D01*
X183570729Y-63090281D01*
X183550036Y-63079478D01*
X183548563Y-63079162D01*
X183529058Y-63084857D01*
X183489822Y-63100174D01*
X183437430Y-63122463D01*
X183402355Y-63138107D01*
X183335201Y-63167359D01*
X183267358Y-63194906D01*
X183210034Y-63216263D01*
X183192572Y-63222065D01*
X183145938Y-63238548D01*
X183109905Y-63254660D01*
X183096287Y-63263510D01*
X183087952Y-63283040D01*
X183076137Y-63325666D01*
X183062181Y-63385855D01*
X183047422Y-63458078D01*
X183041355Y-63490400D01*
X183026273Y-63572478D01*
X183011669Y-63651205D01*
X182998980Y-63718891D01*
X182989642Y-63767840D01*
X182987839Y-63777057D01*
X182972799Y-63853257D01*
X182655492Y-63853257D01*
X182551154Y-63853086D01*
X182472213Y-63852384D01*
X182415038Y-63850866D01*
X182375999Y-63848251D01*
X182351465Y-63844254D01*
X182337805Y-63838591D01*
X182331389Y-63830980D01*
X182330199Y-63827857D01*
X182325980Y-63809022D01*
X182317562Y-63767412D01*
X182305961Y-63708370D01*
X182292195Y-63637243D01*
X182277280Y-63559375D01*
X182262232Y-63480113D01*
X182248069Y-63404802D01*
X182235806Y-63338787D01*
X182226461Y-63287413D01*
X182221050Y-63256025D01*
X182220114Y-63249041D01*
X182207596Y-63242715D01*
X182174246Y-63228710D01*
X182126377Y-63209645D01*
X182107629Y-63202366D01*
X182035195Y-63173004D01*
X181955170Y-63138429D01*
X181887728Y-63107463D01*
X181836159Y-63084677D01*
X181793785Y-63069518D01*
X181767834Y-63064458D01*
X181764356Y-63065264D01*
X181747936Y-63075959D01*
X181711417Y-63100380D01*
X181658687Y-63135905D01*
X181593635Y-63179913D01*
X181520151Y-63229783D01*
X181505645Y-63239644D01*
X181419704Y-63297508D01*
X181354261Y-63340044D01*
X181306304Y-63368946D01*
X181272820Y-63385910D01*
X181250795Y-63392633D01*
X181237217Y-63390810D01*
X181237131Y-63390764D01*
X181219297Y-63376414D01*
X181184817Y-63344677D01*
X181137268Y-63298990D01*
X181080222Y-63242796D01*
X181017255Y-63179532D01*
X181010227Y-63172398D01*
X180933020Y-63092670D01*
X180876330Y-63031143D01*
X180839110Y-62986579D01*
X180820315Y-62957743D01*
X180817889Y-62945042D01*
X180828471Y-62926506D01*
X180852916Y-62888039D01*
X180888612Y-62833614D01*
X180932947Y-62767202D01*
X180983311Y-62692775D01*
X180995160Y-62675399D01*
X181163626Y-62428703D01*
X181113062Y-62317294D01*
X181083595Y-62249543D01*
X181053959Y-62176817D01*
X181030330Y-62114297D01*
X181029358Y-62111543D01*
X181011457Y-62062640D01*
X180996320Y-62024943D01*
X180987210Y-62006575D01*
X180987184Y-62006544D01*
X180970717Y-62000715D01*
X180930219Y-61990808D01*
X180870242Y-61977805D01*
X180795340Y-61962691D01*
X180710064Y-61946448D01*
X180702875Y-61945119D01*
X180615014Y-61928825D01*
X180535260Y-61913867D01*
X180468681Y-61901209D01*
X180420347Y-61891814D01*
X180395325Y-61886646D01*
X180394943Y-61886556D01*
X180384299Y-61883411D01*
X180376262Y-61877296D01*
X180370467Y-61864547D01*
X180366547Y-61841500D01*
X180364135Y-61804491D01*
X180362865Y-61749856D01*
X180362371Y-61673933D01*
X180362286Y-61573056D01*
X180362286Y-61560000D01*
X180362348Y-61456090D01*
G37*
X180362348Y-61456090D02*
X180362778Y-61377546D01*
X180363942Y-61320702D01*
X180366207Y-61281895D01*
X180369940Y-61257462D01*
X180375506Y-61243738D01*
X180383273Y-61237060D01*
X180393605Y-61233764D01*
X180394943Y-61233444D01*
X180419079Y-61228438D01*
X180466701Y-61219171D01*
X180532741Y-61206608D01*
X180612128Y-61191713D01*
X180699796Y-61175449D01*
X180702875Y-61174881D01*
X180788789Y-61158590D01*
X180864696Y-61143348D01*
X180926045Y-61130139D01*
X180968282Y-61119946D01*
X180986855Y-61113752D01*
X180987184Y-61113457D01*
X180996253Y-61095212D01*
X181011367Y-61057595D01*
X181029262Y-61008729D01*
X181029358Y-61008457D01*
X181052493Y-60946907D01*
X181081965Y-60874343D01*
X181111597Y-60805943D01*
X181113062Y-60802706D01*
X181163626Y-60691298D01*
X180995160Y-60444601D01*
X180943803Y-60368923D01*
X180897889Y-60300369D01*
X180860030Y-60242912D01*
X180832837Y-60200524D01*
X180818921Y-60177175D01*
X180817889Y-60174958D01*
X180822484Y-60157990D01*
X180844655Y-60126299D01*
X180885447Y-60078648D01*
X180945905Y-60013802D01*
X181010227Y-59947603D01*
X181073612Y-59883786D01*
X181131451Y-59826671D01*
X181180175Y-59779695D01*
X181216210Y-59746297D01*
X181235984Y-59729915D01*
X181237002Y-59729306D01*
X181250572Y-59727495D01*
X181272733Y-59734317D01*
X181306478Y-59751460D01*
X181354800Y-59780607D01*
X181420692Y-59823445D01*
X181505517Y-59880552D01*
X181580177Y-59931234D01*
X181647140Y-59976539D01*
X181702516Y-60013850D01*
X181742420Y-60040548D01*
X181762962Y-60054015D01*
X181764356Y-60054863D01*
X181784038Y-60053219D01*
X181822293Y-60040755D01*
X181871889Y-60019952D01*
X181887728Y-60012538D01*
X181958290Y-59980186D01*
X182038353Y-59945672D01*
X182107629Y-59917635D01*
X182159045Y-59897432D01*
X182198119Y-59881385D01*
X182218541Y-59872112D01*
X182220114Y-59870959D01*
X182222721Y-59853904D01*
X182229863Y-59813702D01*
X182240523Y-59755698D01*
X182253685Y-59685237D01*
X182268333Y-59607665D01*
X182283449Y-59528328D01*
X182298018Y-59452569D01*
X182311022Y-59385736D01*
X182321445Y-59333172D01*
X182328270Y-59300224D01*
X182330199Y-59292143D01*
X182334962Y-59283795D01*
X182345718Y-59277494D01*
X182366098Y-59272955D01*
X182399734Y-59269896D01*
X182450255Y-59268033D01*
X182521292Y-59267082D01*
X182616476Y-59266760D01*
X182655492Y-59266743D01*
X182972799Y-59266743D01*
X182987839Y-59342943D01*
X182995995Y-59385337D01*
X183007899Y-59448600D01*
X183022116Y-59525038D01*
X183037210Y-59606957D01*
X183041355Y-59629600D01*
X183056053Y-59705194D01*
X183070505Y-59771047D01*
X183083375Y-59821634D01*
X183093322Y-59851426D01*
X183096287Y-59856388D01*
X183117283Y-59868574D01*
X183157967Y-59886047D01*
X183210322Y-59905423D01*
X183221600Y-59909266D01*
X183291523Y-59934661D01*
X183370418Y-59966183D01*
X183441266Y-59997031D01*
X183441595Y-59997183D01*
X183552733Y-60048553D01*
X183801253Y-59879601D01*
X184049772Y-59710648D01*
X184267058Y-59927571D01*
X184331726Y-59993181D01*
X184388733Y-60053021D01*
X184435033Y-60103733D01*
X184467584Y-60141954D01*
X184483343Y-60164325D01*
X184484343Y-60167534D01*
X184476469Y-60186374D01*
X184454578Y-60224820D01*
X184421267Y-60278670D01*
X184379131Y-60343724D01*
X184331943Y-60414060D01*
X184283810Y-60485445D01*
X184241928Y-60549092D01*
X184208871Y-60600959D01*
X184187218Y-60637005D01*
X184179543Y-60653133D01*
X184186037Y-60672811D01*
X184203150Y-60710125D01*
X184227326Y-60757379D01*
X184230013Y-60762388D01*
X184261927Y-60826023D01*
X184277579Y-60869659D01*
X184277745Y-60896798D01*
X184263204Y-60910943D01*
X184263000Y-60911025D01*
X184245779Y-60918095D01*
X184204899Y-60934958D01*
X184143525Y-60960305D01*
X184064819Y-60992829D01*
X183971947Y-61031222D01*
X183868072Y-61074178D01*
X183767502Y-61115778D01*
X183656516Y-61161496D01*
X183553703Y-61203474D01*
X183462215Y-61240452D01*
X183385201Y-61271173D01*
X183325815Y-61294378D01*
X183287209Y-61308810D01*
X183272800Y-61313257D01*
X183256272Y-61302104D01*
X183229930Y-61272931D01*
X183200887Y-61234029D01*
X183109039Y-61123243D01*
X183003759Y-61036649D01*
X182887266Y-60975284D01*
X182761776Y-60940185D01*
X182629507Y-60932392D01*
X182568457Y-60938057D01*
X182441795Y-60968922D01*
X182329941Y-61022080D01*
X182234001Y-61094233D01*
X182155076Y-61182083D01*
X182094270Y-61282335D01*
X182052687Y-61391690D01*
X182031428Y-61506853D01*
X182031599Y-61624525D01*
X182054301Y-61741410D01*
X182100638Y-61854211D01*
X182171713Y-61959631D01*
X182211911Y-62003632D01*
X182315129Y-62088021D01*
X182427925Y-62146778D01*
X182547010Y-62180296D01*
X182669095Y-62188965D01*
X182790893Y-62173177D01*
X182909116Y-62133322D01*
X183020475Y-62069793D01*
X183121684Y-61982979D01*
X183200887Y-61885971D01*
X183231162Y-61845563D01*
X183257219Y-61817018D01*
X183272825Y-61806743D01*
X183289843Y-61812123D01*
X183330500Y-61827425D01*
X183391642Y-61851388D01*
X183470119Y-61882756D01*
X183562780Y-61920268D01*
X183666472Y-61962667D01*
X183767526Y-62004337D01*
X183878607Y-62050310D01*
X183981541Y-62092893D01*
X184073165Y-62130779D01*
X184150316Y-62162660D01*
X184209831Y-62187229D01*
X184248544Y-62203180D01*
X184263000Y-62209090D01*
X184277685Y-62223052D01*
X184277642Y-62250060D01*
X184262099Y-62293587D01*
X184230284Y-62357110D01*
X184230013Y-62357612D01*
X184205323Y-62405440D01*
X184187338Y-62444103D01*
X184179614Y-62465905D01*
X184179543Y-62466867D01*
X184187378Y-62483279D01*
X184209165Y-62519513D01*
X184242328Y-62571526D01*
X184284291Y-62635275D01*
X184331943Y-62705940D01*
X184380191Y-62777884D01*
X184422151Y-62842726D01*
X184455227Y-62896265D01*
X184476821Y-62934303D01*
X184484343Y-62952467D01*
X184474457Y-62969192D01*
X184446826Y-63002820D01*
X184404495Y-63049990D01*
X184350505Y-63107342D01*
X184287899Y-63171516D01*
X184266983Y-63192503D01*
X184049623Y-63409501D01*
X183807220Y-63244332D01*
X183732781Y-63194136D01*
X183665972Y-63150081D01*
X183610665Y-63114638D01*
X183570729Y-63090281D01*
X183550036Y-63079478D01*
X183548563Y-63079162D01*
X183529058Y-63084857D01*
X183489822Y-63100174D01*
X183437430Y-63122463D01*
X183402355Y-63138107D01*
X183335201Y-63167359D01*
X183267358Y-63194906D01*
X183210034Y-63216263D01*
X183192572Y-63222065D01*
X183145938Y-63238548D01*
X183109905Y-63254660D01*
X183096287Y-63263510D01*
X183087952Y-63283040D01*
X183076137Y-63325666D01*
X183062181Y-63385855D01*
X183047422Y-63458078D01*
X183041355Y-63490400D01*
X183026273Y-63572478D01*
X183011669Y-63651205D01*
X182998980Y-63718891D01*
X182989642Y-63767840D01*
X182987839Y-63777057D01*
X182972799Y-63853257D01*
X182655492Y-63853257D01*
X182551154Y-63853086D01*
X182472213Y-63852384D01*
X182415038Y-63850866D01*
X182375999Y-63848251D01*
X182351465Y-63844254D01*
X182337805Y-63838591D01*
X182331389Y-63830980D01*
X182330199Y-63827857D01*
X182325980Y-63809022D01*
X182317562Y-63767412D01*
X182305961Y-63708370D01*
X182292195Y-63637243D01*
X182277280Y-63559375D01*
X182262232Y-63480113D01*
X182248069Y-63404802D01*
X182235806Y-63338787D01*
X182226461Y-63287413D01*
X182221050Y-63256025D01*
X182220114Y-63249041D01*
X182207596Y-63242715D01*
X182174246Y-63228710D01*
X182126377Y-63209645D01*
X182107629Y-63202366D01*
X182035195Y-63173004D01*
X181955170Y-63138429D01*
X181887728Y-63107463D01*
X181836159Y-63084677D01*
X181793785Y-63069518D01*
X181767834Y-63064458D01*
X181764356Y-63065264D01*
X181747936Y-63075959D01*
X181711417Y-63100380D01*
X181658687Y-63135905D01*
X181593635Y-63179913D01*
X181520151Y-63229783D01*
X181505645Y-63239644D01*
X181419704Y-63297508D01*
X181354261Y-63340044D01*
X181306304Y-63368946D01*
X181272820Y-63385910D01*
X181250795Y-63392633D01*
X181237217Y-63390810D01*
X181237131Y-63390764D01*
X181219297Y-63376414D01*
X181184817Y-63344677D01*
X181137268Y-63298990D01*
X181080222Y-63242796D01*
X181017255Y-63179532D01*
X181010227Y-63172398D01*
X180933020Y-63092670D01*
X180876330Y-63031143D01*
X180839110Y-62986579D01*
X180820315Y-62957743D01*
X180817889Y-62945042D01*
X180828471Y-62926506D01*
X180852916Y-62888039D01*
X180888612Y-62833614D01*
X180932947Y-62767202D01*
X180983311Y-62692775D01*
X180995160Y-62675399D01*
X181163626Y-62428703D01*
X181113062Y-62317294D01*
X181083595Y-62249543D01*
X181053959Y-62176817D01*
X181030330Y-62114297D01*
X181029358Y-62111543D01*
X181011457Y-62062640D01*
X180996320Y-62024943D01*
X180987210Y-62006575D01*
X180987184Y-62006544D01*
X180970717Y-62000715D01*
X180930219Y-61990808D01*
X180870242Y-61977805D01*
X180795340Y-61962691D01*
X180710064Y-61946448D01*
X180702875Y-61945119D01*
X180615014Y-61928825D01*
X180535260Y-61913867D01*
X180468681Y-61901209D01*
X180420347Y-61891814D01*
X180395325Y-61886646D01*
X180394943Y-61886556D01*
X180384299Y-61883411D01*
X180376262Y-61877296D01*
X180370467Y-61864547D01*
X180366547Y-61841500D01*
X180364135Y-61804491D01*
X180362865Y-61749856D01*
X180362371Y-61673933D01*
X180362286Y-61573056D01*
X180362286Y-61560000D01*
X180362348Y-61456090D01*
D11*
X187868095Y-155942380D02*
X187868095Y-154942380D01*
X187868095Y-155418571D02*
X188439523Y-155418571D01*
X188439523Y-155942380D02*
X188439523Y-154942380D01*
X189344285Y-155275714D02*
X189344285Y-155942380D01*
X189106190Y-154894761D02*
X188868095Y-155609047D01*
X189487142Y-155609047D01*
X103378095Y-135012380D02*
X103378095Y-135821904D01*
X103425714Y-135917142D01*
X103473333Y-135964761D01*
X103568571Y-136012380D01*
X103759047Y-136012380D01*
X103854285Y-135964761D01*
X103901904Y-135917142D01*
X103949523Y-135821904D01*
X103949523Y-135012380D01*
X104949523Y-136012380D02*
X104378095Y-136012380D01*
X104663809Y-136012380D02*
X104663809Y-135012380D01*
X104568571Y-135155238D01*
X104473333Y-135250476D01*
X104378095Y-135298095D01*
X109160000Y-134482380D02*
X109160000Y-134720476D01*
X108921904Y-134625238D02*
X109160000Y-134720476D01*
X109398095Y-134625238D01*
X109017142Y-134910952D02*
X109160000Y-134720476D01*
X109302857Y-134910952D01*
X137696666Y-128612380D02*
X137696666Y-129326666D01*
X137649047Y-129469523D01*
X137553809Y-129564761D01*
X137410952Y-129612380D01*
X137315714Y-129612380D01*
X138172857Y-129612380D02*
X138172857Y-128612380D01*
X138553809Y-128612380D01*
X138649047Y-128660000D01*
X138696666Y-128707619D01*
X138744285Y-128802857D01*
X138744285Y-128945714D01*
X138696666Y-129040952D01*
X138649047Y-129088571D01*
X138553809Y-129136190D01*
X138172857Y-129136190D01*
X139649047Y-128612380D02*
X139172857Y-128612380D01*
X139125238Y-129088571D01*
X139172857Y-129040952D01*
X139268095Y-128993333D01*
X139506190Y-128993333D01*
X139601428Y-129040952D01*
X139649047Y-129088571D01*
X139696666Y-129183809D01*
X139696666Y-129421904D01*
X139649047Y-129517142D01*
X139601428Y-129564761D01*
X139506190Y-129612380D01*
X139268095Y-129612380D01*
X139172857Y-129564761D01*
X139125238Y-129517142D01*
X82616666Y-134452380D02*
X82616666Y-135166666D01*
X82569047Y-135309523D01*
X82473809Y-135404761D01*
X82330952Y-135452380D01*
X82235714Y-135452380D01*
X83045238Y-134547619D02*
X83092857Y-134500000D01*
X83188095Y-134452380D01*
X83426190Y-134452380D01*
X83521428Y-134500000D01*
X83569047Y-134547619D01*
X83616666Y-134642857D01*
X83616666Y-134738095D01*
X83569047Y-134880952D01*
X82997619Y-135452380D01*
X83616666Y-135452380D01*
X82130476Y-82672380D02*
X82130476Y-81672380D01*
X82463809Y-82386666D01*
X82797142Y-81672380D01*
X82797142Y-82672380D01*
X83225714Y-81767619D02*
X83273333Y-81720000D01*
X83368571Y-81672380D01*
X83606666Y-81672380D01*
X83701904Y-81720000D01*
X83749523Y-81767619D01*
X83797142Y-81862857D01*
X83797142Y-81958095D01*
X83749523Y-82100952D01*
X83178095Y-82672380D01*
X83797142Y-82672380D01*
X86282380Y-86617261D02*
X85282380Y-86617261D01*
X85282380Y-86236309D01*
X85330000Y-86141071D01*
X85377619Y-86093452D01*
X85472857Y-86045833D01*
X85615714Y-86045833D01*
X85710952Y-86093452D01*
X85758571Y-86141071D01*
X85806190Y-86236309D01*
X85806190Y-86617261D01*
X85282380Y-85712500D02*
X86282380Y-85474404D01*
X85568095Y-85283928D01*
X86282380Y-85093452D01*
X85282380Y-84855357D01*
X86282380Y-84474404D02*
X85282380Y-84474404D01*
X85996666Y-84141071D01*
X85282380Y-83807738D01*
X86282380Y-83807738D01*
X91282380Y-85831547D02*
X91282380Y-86402976D01*
X91282380Y-86117261D02*
X90282380Y-86117261D01*
X90425238Y-86212500D01*
X90520476Y-86307738D01*
X90568095Y-86402976D01*
X90377619Y-85450595D02*
X90330000Y-85402976D01*
X90282380Y-85307738D01*
X90282380Y-85069642D01*
X90330000Y-84974404D01*
X90377619Y-84926785D01*
X90472857Y-84879166D01*
X90568095Y-84879166D01*
X90710952Y-84926785D01*
X91282380Y-85498214D01*
X91282380Y-84879166D01*
X90282380Y-84593452D02*
X91282380Y-84260119D01*
X90282380Y-83926785D01*
X82120476Y-100352380D02*
X82120476Y-99352380D01*
X82453809Y-100066666D01*
X82787142Y-99352380D01*
X82787142Y-100352380D01*
X83168095Y-99352380D02*
X83787142Y-99352380D01*
X83453809Y-99733333D01*
X83596666Y-99733333D01*
X83691904Y-99780952D01*
X83739523Y-99828571D01*
X83787142Y-99923809D01*
X83787142Y-100161904D01*
X83739523Y-100257142D01*
X83691904Y-100304761D01*
X83596666Y-100352380D01*
X83310952Y-100352380D01*
X83215714Y-100304761D01*
X83168095Y-100257142D01*
X86282380Y-104329761D02*
X85282380Y-104329761D01*
X85282380Y-103948809D01*
X85330000Y-103853571D01*
X85377619Y-103805952D01*
X85472857Y-103758333D01*
X85615714Y-103758333D01*
X85710952Y-103805952D01*
X85758571Y-103853571D01*
X85806190Y-103948809D01*
X85806190Y-104329761D01*
X85282380Y-103425000D02*
X86282380Y-103186904D01*
X85568095Y-102996428D01*
X86282380Y-102805952D01*
X85282380Y-102567857D01*
X86282380Y-102186904D02*
X85282380Y-102186904D01*
X85996666Y-101853571D01*
X85282380Y-101520238D01*
X86282380Y-101520238D01*
X91282380Y-103544047D02*
X91282380Y-104115476D01*
X91282380Y-103829761D02*
X90282380Y-103829761D01*
X90425238Y-103925000D01*
X90520476Y-104020238D01*
X90568095Y-104115476D01*
X90377619Y-103163095D02*
X90330000Y-103115476D01*
X90282380Y-103020238D01*
X90282380Y-102782142D01*
X90330000Y-102686904D01*
X90377619Y-102639285D01*
X90472857Y-102591666D01*
X90568095Y-102591666D01*
X90710952Y-102639285D01*
X91282380Y-103210714D01*
X91282380Y-102591666D01*
X90282380Y-102305952D02*
X91282380Y-101972619D01*
X90282380Y-101639285D01*
X82110476Y-64952380D02*
X82110476Y-63952380D01*
X82443809Y-64666666D01*
X82777142Y-63952380D01*
X82777142Y-64952380D01*
X83777142Y-64952380D02*
X83205714Y-64952380D01*
X83491428Y-64952380D02*
X83491428Y-63952380D01*
X83396190Y-64095238D01*
X83300952Y-64190476D01*
X83205714Y-64238095D01*
X86282380Y-68904761D02*
X85282380Y-68904761D01*
X85282380Y-68523809D01*
X85330000Y-68428571D01*
X85377619Y-68380952D01*
X85472857Y-68333333D01*
X85615714Y-68333333D01*
X85710952Y-68380952D01*
X85758571Y-68428571D01*
X85806190Y-68523809D01*
X85806190Y-68904761D01*
X85282380Y-68000000D02*
X86282380Y-67761904D01*
X85568095Y-67571428D01*
X86282380Y-67380952D01*
X85282380Y-67142857D01*
X86282380Y-66761904D02*
X85282380Y-66761904D01*
X85996666Y-66428571D01*
X85282380Y-66095238D01*
X86282380Y-66095238D01*
X91282380Y-68119047D02*
X91282380Y-68690476D01*
X91282380Y-68404761D02*
X90282380Y-68404761D01*
X90425238Y-68500000D01*
X90520476Y-68595238D01*
X90568095Y-68690476D01*
X90377619Y-67738095D02*
X90330000Y-67690476D01*
X90282380Y-67595238D01*
X90282380Y-67357142D01*
X90330000Y-67261904D01*
X90377619Y-67214285D01*
X90472857Y-67166666D01*
X90568095Y-67166666D01*
X90710952Y-67214285D01*
X91282380Y-67785714D01*
X91282380Y-67166666D01*
X90282380Y-66880952D02*
X91282380Y-66547619D01*
X90282380Y-66214285D01*
X82100476Y-118092380D02*
X82100476Y-117092380D01*
X82433809Y-117806666D01*
X82767142Y-117092380D01*
X82767142Y-118092380D01*
X83671904Y-117425714D02*
X83671904Y-118092380D01*
X83433809Y-117044761D02*
X83195714Y-117759047D01*
X83814761Y-117759047D01*
X86282380Y-122042261D02*
X85282380Y-122042261D01*
X85282380Y-121661309D01*
X85330000Y-121566071D01*
X85377619Y-121518452D01*
X85472857Y-121470833D01*
X85615714Y-121470833D01*
X85710952Y-121518452D01*
X85758571Y-121566071D01*
X85806190Y-121661309D01*
X85806190Y-122042261D01*
X85282380Y-121137500D02*
X86282380Y-120899404D01*
X85568095Y-120708928D01*
X86282380Y-120518452D01*
X85282380Y-120280357D01*
X86282380Y-119899404D02*
X85282380Y-119899404D01*
X85996666Y-119566071D01*
X85282380Y-119232738D01*
X86282380Y-119232738D01*
X91282380Y-121256547D02*
X91282380Y-121827976D01*
X91282380Y-121542261D02*
X90282380Y-121542261D01*
X90425238Y-121637500D01*
X90520476Y-121732738D01*
X90568095Y-121827976D01*
X90377619Y-120875595D02*
X90330000Y-120827976D01*
X90282380Y-120732738D01*
X90282380Y-120494642D01*
X90330000Y-120399404D01*
X90377619Y-120351785D01*
X90472857Y-120304166D01*
X90568095Y-120304166D01*
X90710952Y-120351785D01*
X91282380Y-120923214D01*
X91282380Y-120304166D01*
X90282380Y-120018452D02*
X91282380Y-119685119D01*
X90282380Y-119351785D01*
X114224761Y-133907619D02*
X114129523Y-133860000D01*
X114034285Y-133764761D01*
X113891428Y-133621904D01*
X113796190Y-133574285D01*
X113700952Y-133574285D01*
X113748571Y-133812380D02*
X113653333Y-133764761D01*
X113558095Y-133669523D01*
X113510476Y-133479047D01*
X113510476Y-133145714D01*
X113558095Y-132955238D01*
X113653333Y-132860000D01*
X113748571Y-132812380D01*
X113939047Y-132812380D01*
X114034285Y-132860000D01*
X114129523Y-132955238D01*
X114177142Y-133145714D01*
X114177142Y-133479047D01*
X114129523Y-133669523D01*
X114034285Y-133764761D01*
X113939047Y-133812380D01*
X113748571Y-133812380D01*
X115034285Y-132812380D02*
X114843809Y-132812380D01*
X114748571Y-132860000D01*
X114700952Y-132907619D01*
X114605714Y-133050476D01*
X114558095Y-133240952D01*
X114558095Y-133621904D01*
X114605714Y-133717142D01*
X114653333Y-133764761D01*
X114748571Y-133812380D01*
X114939047Y-133812380D01*
X115034285Y-133764761D01*
X115081904Y-133717142D01*
X115129523Y-133621904D01*
X115129523Y-133383809D01*
X115081904Y-133288571D01*
X115034285Y-133240952D01*
X114939047Y-133193333D01*
X114748571Y-133193333D01*
X114653333Y-133240952D01*
X114605714Y-133288571D01*
X114558095Y-133383809D01*
X102176666Y-147102380D02*
X102176666Y-147816666D01*
X102129047Y-147959523D01*
X102033809Y-148054761D01*
X101890952Y-148102380D01*
X101795714Y-148102380D01*
X103176666Y-148102380D02*
X102605238Y-148102380D01*
X102890952Y-148102380D02*
X102890952Y-147102380D01*
X102795714Y-147245238D01*
X102700476Y-147340476D01*
X102605238Y-147388095D01*
X111896666Y-48982380D02*
X111896666Y-49696666D01*
X111849047Y-49839523D01*
X111753809Y-49934761D01*
X111610952Y-49982380D01*
X111515714Y-49982380D01*
X112372857Y-49982380D02*
X112372857Y-48982380D01*
X112753809Y-48982380D01*
X112849047Y-49030000D01*
X112896666Y-49077619D01*
X112944285Y-49172857D01*
X112944285Y-49315714D01*
X112896666Y-49410952D01*
X112849047Y-49458571D01*
X112753809Y-49506190D01*
X112372857Y-49506190D01*
X113896666Y-49982380D02*
X113325238Y-49982380D01*
X113610952Y-49982380D02*
X113610952Y-48982380D01*
X113515714Y-49125238D01*
X113420476Y-49220476D01*
X113325238Y-49268095D01*
X153601904Y-107732380D02*
X153601904Y-106732380D01*
X153840000Y-106732380D01*
X153982857Y-106780000D01*
X154078095Y-106875238D01*
X154125714Y-106970476D01*
X154173333Y-107160952D01*
X154173333Y-107303809D01*
X154125714Y-107494285D01*
X154078095Y-107589523D01*
X153982857Y-107684761D01*
X153840000Y-107732380D01*
X153601904Y-107732380D01*
X154506666Y-106732380D02*
X155125714Y-106732380D01*
X154792380Y-107113333D01*
X154935238Y-107113333D01*
X155030476Y-107160952D01*
X155078095Y-107208571D01*
X155125714Y-107303809D01*
X155125714Y-107541904D01*
X155078095Y-107637142D01*
X155030476Y-107684761D01*
X154935238Y-107732380D01*
X154649523Y-107732380D01*
X154554285Y-107684761D01*
X154506666Y-107637142D01*
X120641904Y-107752380D02*
X120641904Y-106752380D01*
X120880000Y-106752380D01*
X121022857Y-106800000D01*
X121118095Y-106895238D01*
X121165714Y-106990476D01*
X121213333Y-107180952D01*
X121213333Y-107323809D01*
X121165714Y-107514285D01*
X121118095Y-107609523D01*
X121022857Y-107704761D01*
X120880000Y-107752380D01*
X120641904Y-107752380D01*
X122165714Y-107752380D02*
X121594285Y-107752380D01*
X121880000Y-107752380D02*
X121880000Y-106752380D01*
X121784761Y-106895238D01*
X121689523Y-106990476D01*
X121594285Y-107038095D01*
X100573333Y-139067142D02*
X100525714Y-139114761D01*
X100382857Y-139162380D01*
X100287619Y-139162380D01*
X100144761Y-139114761D01*
X100049523Y-139019523D01*
X100001904Y-138924285D01*
X99954285Y-138733809D01*
X99954285Y-138590952D01*
X100001904Y-138400476D01*
X100049523Y-138305238D01*
X100144761Y-138210000D01*
X100287619Y-138162380D01*
X100382857Y-138162380D01*
X100525714Y-138210000D01*
X100573333Y-138257619D01*
X101525714Y-139162380D02*
X100954285Y-139162380D01*
X101240000Y-139162380D02*
X101240000Y-138162380D01*
X101144761Y-138305238D01*
X101049523Y-138400476D01*
X100954285Y-138448095D01*
X137091904Y-107762380D02*
X137091904Y-106762380D01*
X137330000Y-106762380D01*
X137472857Y-106810000D01*
X137568095Y-106905238D01*
X137615714Y-107000476D01*
X137663333Y-107190952D01*
X137663333Y-107333809D01*
X137615714Y-107524285D01*
X137568095Y-107619523D01*
X137472857Y-107714761D01*
X137330000Y-107762380D01*
X137091904Y-107762380D01*
X138044285Y-106857619D02*
X138091904Y-106810000D01*
X138187142Y-106762380D01*
X138425238Y-106762380D01*
X138520476Y-106810000D01*
X138568095Y-106857619D01*
X138615714Y-106952857D01*
X138615714Y-107048095D01*
X138568095Y-107190952D01*
X137996666Y-107762380D01*
X138615714Y-107762380D01*
X128356666Y-48982380D02*
X128356666Y-49696666D01*
X128309047Y-49839523D01*
X128213809Y-49934761D01*
X128070952Y-49982380D01*
X127975714Y-49982380D01*
X128832857Y-49982380D02*
X128832857Y-48982380D01*
X129213809Y-48982380D01*
X129309047Y-49030000D01*
X129356666Y-49077619D01*
X129404285Y-49172857D01*
X129404285Y-49315714D01*
X129356666Y-49410952D01*
X129309047Y-49458571D01*
X129213809Y-49506190D01*
X128832857Y-49506190D01*
X129785238Y-49077619D02*
X129832857Y-49030000D01*
X129928095Y-48982380D01*
X130166190Y-48982380D01*
X130261428Y-49030000D01*
X130309047Y-49077619D01*
X130356666Y-49172857D01*
X130356666Y-49268095D01*
X130309047Y-49410952D01*
X129737619Y-49982380D01*
X130356666Y-49982380D01*
X170101904Y-107722380D02*
X170101904Y-106722380D01*
X170340000Y-106722380D01*
X170482857Y-106770000D01*
X170578095Y-106865238D01*
X170625714Y-106960476D01*
X170673333Y-107150952D01*
X170673333Y-107293809D01*
X170625714Y-107484285D01*
X170578095Y-107579523D01*
X170482857Y-107674761D01*
X170340000Y-107722380D01*
X170101904Y-107722380D01*
X171530476Y-107055714D02*
X171530476Y-107722380D01*
X171292380Y-106674761D02*
X171054285Y-107389047D01*
X171673333Y-107389047D01*
X162554761Y-107177619D02*
X162459523Y-107130000D01*
X162364285Y-107034761D01*
X162221428Y-106891904D01*
X162126190Y-106844285D01*
X162030952Y-106844285D01*
X162078571Y-107082380D02*
X161983333Y-107034761D01*
X161888095Y-106939523D01*
X161840476Y-106749047D01*
X161840476Y-106415714D01*
X161888095Y-106225238D01*
X161983333Y-106130000D01*
X162078571Y-106082380D01*
X162269047Y-106082380D01*
X162364285Y-106130000D01*
X162459523Y-106225238D01*
X162507142Y-106415714D01*
X162507142Y-106749047D01*
X162459523Y-106939523D01*
X162364285Y-107034761D01*
X162269047Y-107082380D01*
X162078571Y-107082380D01*
X163364285Y-106415714D02*
X163364285Y-107082380D01*
X163126190Y-106034761D02*
X162888095Y-106749047D01*
X163507142Y-106749047D01*
X129654761Y-107197619D02*
X129559523Y-107150000D01*
X129464285Y-107054761D01*
X129321428Y-106911904D01*
X129226190Y-106864285D01*
X129130952Y-106864285D01*
X129178571Y-107102380D02*
X129083333Y-107054761D01*
X128988095Y-106959523D01*
X128940476Y-106769047D01*
X128940476Y-106435714D01*
X128988095Y-106245238D01*
X129083333Y-106150000D01*
X129178571Y-106102380D01*
X129369047Y-106102380D01*
X129464285Y-106150000D01*
X129559523Y-106245238D01*
X129607142Y-106435714D01*
X129607142Y-106769047D01*
X129559523Y-106959523D01*
X129464285Y-107054761D01*
X129369047Y-107102380D01*
X129178571Y-107102380D01*
X129988095Y-106197619D02*
X130035714Y-106150000D01*
X130130952Y-106102380D01*
X130369047Y-106102380D01*
X130464285Y-106150000D01*
X130511904Y-106197619D01*
X130559523Y-106292857D01*
X130559523Y-106388095D01*
X130511904Y-106530952D01*
X129940476Y-107102380D01*
X130559523Y-107102380D01*
X114234761Y-128817619D02*
X114139523Y-128770000D01*
X114044285Y-128674761D01*
X113901428Y-128531904D01*
X113806190Y-128484285D01*
X113710952Y-128484285D01*
X113758571Y-128722380D02*
X113663333Y-128674761D01*
X113568095Y-128579523D01*
X113520476Y-128389047D01*
X113520476Y-128055714D01*
X113568095Y-127865238D01*
X113663333Y-127770000D01*
X113758571Y-127722380D01*
X113949047Y-127722380D01*
X114044285Y-127770000D01*
X114139523Y-127865238D01*
X114187142Y-128055714D01*
X114187142Y-128389047D01*
X114139523Y-128579523D01*
X114044285Y-128674761D01*
X113949047Y-128722380D01*
X113758571Y-128722380D01*
X115091904Y-127722380D02*
X114615714Y-127722380D01*
X114568095Y-128198571D01*
X114615714Y-128150952D01*
X114710952Y-128103333D01*
X114949047Y-128103333D01*
X115044285Y-128150952D01*
X115091904Y-128198571D01*
X115139523Y-128293809D01*
X115139523Y-128531904D01*
X115091904Y-128627142D01*
X115044285Y-128674761D01*
X114949047Y-128722380D01*
X114710952Y-128722380D01*
X114615714Y-128674761D01*
X114568095Y-128627142D01*
X105099047Y-145621428D02*
X105860952Y-145621428D01*
X105480000Y-146002380D02*
X105480000Y-145240476D01*
X99099047Y-145621428D02*
X99860952Y-145621428D01*
X143616666Y-144112380D02*
X143616666Y-144826666D01*
X143569047Y-144969523D01*
X143473809Y-145064761D01*
X143330952Y-145112380D01*
X143235714Y-145112380D01*
X143997619Y-144112380D02*
X144616666Y-144112380D01*
X144283333Y-144493333D01*
X144426190Y-144493333D01*
X144521428Y-144540952D01*
X144569047Y-144588571D01*
X144616666Y-144683809D01*
X144616666Y-144921904D01*
X144569047Y-145017142D01*
X144521428Y-145064761D01*
X144426190Y-145112380D01*
X144140476Y-145112380D01*
X144045238Y-145064761D01*
X143997619Y-145017142D01*
X161186666Y-49102380D02*
X161186666Y-49816666D01*
X161139047Y-49959523D01*
X161043809Y-50054761D01*
X160900952Y-50102380D01*
X160805714Y-50102380D01*
X161662857Y-50102380D02*
X161662857Y-49102380D01*
X162043809Y-49102380D01*
X162139047Y-49150000D01*
X162186666Y-49197619D01*
X162234285Y-49292857D01*
X162234285Y-49435714D01*
X162186666Y-49530952D01*
X162139047Y-49578571D01*
X162043809Y-49626190D01*
X161662857Y-49626190D01*
X163091428Y-49435714D02*
X163091428Y-50102380D01*
X162853333Y-49054761D02*
X162615238Y-49769047D01*
X163234285Y-49769047D01*
X144836666Y-49062380D02*
X144836666Y-49776666D01*
X144789047Y-49919523D01*
X144693809Y-50014761D01*
X144550952Y-50062380D01*
X144455714Y-50062380D01*
X145312857Y-50062380D02*
X145312857Y-49062380D01*
X145693809Y-49062380D01*
X145789047Y-49110000D01*
X145836666Y-49157619D01*
X145884285Y-49252857D01*
X145884285Y-49395714D01*
X145836666Y-49490952D01*
X145789047Y-49538571D01*
X145693809Y-49586190D01*
X145312857Y-49586190D01*
X146217619Y-49062380D02*
X146836666Y-49062380D01*
X146503333Y-49443333D01*
X146646190Y-49443333D01*
X146741428Y-49490952D01*
X146789047Y-49538571D01*
X146836666Y-49633809D01*
X146836666Y-49871904D01*
X146789047Y-49967142D01*
X146741428Y-50014761D01*
X146646190Y-50062380D01*
X146360476Y-50062380D01*
X146265238Y-50014761D01*
X146217619Y-49967142D01*
X146134761Y-107177619D02*
X146039523Y-107130000D01*
X145944285Y-107034761D01*
X145801428Y-106891904D01*
X145706190Y-106844285D01*
X145610952Y-106844285D01*
X145658571Y-107082380D02*
X145563333Y-107034761D01*
X145468095Y-106939523D01*
X145420476Y-106749047D01*
X145420476Y-106415714D01*
X145468095Y-106225238D01*
X145563333Y-106130000D01*
X145658571Y-106082380D01*
X145849047Y-106082380D01*
X145944285Y-106130000D01*
X146039523Y-106225238D01*
X146087142Y-106415714D01*
X146087142Y-106749047D01*
X146039523Y-106939523D01*
X145944285Y-107034761D01*
X145849047Y-107082380D01*
X145658571Y-107082380D01*
X146420476Y-106082380D02*
X147039523Y-106082380D01*
X146706190Y-106463333D01*
X146849047Y-106463333D01*
X146944285Y-106510952D01*
X146991904Y-106558571D01*
X147039523Y-106653809D01*
X147039523Y-106891904D01*
X146991904Y-106987142D01*
X146944285Y-107034761D01*
X146849047Y-107082380D01*
X146563333Y-107082380D01*
X146468095Y-107034761D01*
X146420476Y-106987142D01*
X153381904Y-93752380D02*
X153381904Y-92752380D01*
X153381904Y-93228571D02*
X153953333Y-93228571D01*
X153953333Y-93752380D02*
X153953333Y-92752380D01*
X154381904Y-93704761D02*
X154524761Y-93752380D01*
X154762857Y-93752380D01*
X154858095Y-93704761D01*
X154905714Y-93657142D01*
X154953333Y-93561904D01*
X154953333Y-93466666D01*
X154905714Y-93371428D01*
X154858095Y-93323809D01*
X154762857Y-93276190D01*
X154572380Y-93228571D01*
X154477142Y-93180952D01*
X154429523Y-93133333D01*
X154381904Y-93038095D01*
X154381904Y-92942857D01*
X154429523Y-92847619D01*
X154477142Y-92800000D01*
X154572380Y-92752380D01*
X154810476Y-92752380D01*
X154953333Y-92800000D01*
X155334285Y-92847619D02*
X155381904Y-92800000D01*
X155477142Y-92752380D01*
X155715238Y-92752380D01*
X155810476Y-92800000D01*
X155858095Y-92847619D01*
X155905714Y-92942857D01*
X155905714Y-93038095D01*
X155858095Y-93180952D01*
X155286666Y-93752380D01*
X155905714Y-93752380D01*
X188024761Y-63830476D02*
X188072380Y-63925714D01*
X188072380Y-64116190D01*
X188024761Y-64211428D01*
X187977142Y-64259047D01*
X187881904Y-64306666D01*
X187596190Y-64306666D01*
X187500952Y-64259047D01*
X187453333Y-64211428D01*
X187405714Y-64116190D01*
X187405714Y-63925714D01*
X187453333Y-63830476D01*
X188024761Y-62973333D02*
X188072380Y-63068571D01*
X188072380Y-63259047D01*
X188024761Y-63354285D01*
X187977142Y-63401904D01*
X187881904Y-63449523D01*
X187596190Y-63449523D01*
X187500952Y-63401904D01*
X187453333Y-63354285D01*
X187405714Y-63259047D01*
X187405714Y-63068571D01*
X187453333Y-62973333D01*
X120101904Y-93632380D02*
X120101904Y-92632380D01*
X120101904Y-93108571D02*
X120673333Y-93108571D01*
X120673333Y-93632380D02*
X120673333Y-92632380D01*
X121101904Y-93584761D02*
X121244761Y-93632380D01*
X121482857Y-93632380D01*
X121578095Y-93584761D01*
X121625714Y-93537142D01*
X121673333Y-93441904D01*
X121673333Y-93346666D01*
X121625714Y-93251428D01*
X121578095Y-93203809D01*
X121482857Y-93156190D01*
X121292380Y-93108571D01*
X121197142Y-93060952D01*
X121149523Y-93013333D01*
X121101904Y-92918095D01*
X121101904Y-92822857D01*
X121149523Y-92727619D01*
X121197142Y-92680000D01*
X121292380Y-92632380D01*
X121530476Y-92632380D01*
X121673333Y-92680000D01*
X122625714Y-93632380D02*
X122054285Y-93632380D01*
X122340000Y-93632380D02*
X122340000Y-92632380D01*
X122244761Y-92775238D01*
X122149523Y-92870476D01*
X122054285Y-92918095D01*
X113054761Y-107257619D02*
X112959523Y-107210000D01*
X112864285Y-107114761D01*
X112721428Y-106971904D01*
X112626190Y-106924285D01*
X112530952Y-106924285D01*
X112578571Y-107162380D02*
X112483333Y-107114761D01*
X112388095Y-107019523D01*
X112340476Y-106829047D01*
X112340476Y-106495714D01*
X112388095Y-106305238D01*
X112483333Y-106210000D01*
X112578571Y-106162380D01*
X112769047Y-106162380D01*
X112864285Y-106210000D01*
X112959523Y-106305238D01*
X113007142Y-106495714D01*
X113007142Y-106829047D01*
X112959523Y-107019523D01*
X112864285Y-107114761D01*
X112769047Y-107162380D01*
X112578571Y-107162380D01*
X113959523Y-107162380D02*
X113388095Y-107162380D01*
X113673809Y-107162380D02*
X113673809Y-106162380D01*
X113578571Y-106305238D01*
X113483333Y-106400476D01*
X113388095Y-106448095D01*
X82148095Y-135972380D02*
X82148095Y-136781904D01*
X82195714Y-136877142D01*
X82243333Y-136924761D01*
X82338571Y-136972380D01*
X82529047Y-136972380D01*
X82624285Y-136924761D01*
X82671904Y-136877142D01*
X82719523Y-136781904D01*
X82719523Y-135972380D01*
X83148095Y-136067619D02*
X83195714Y-136020000D01*
X83290952Y-135972380D01*
X83529047Y-135972380D01*
X83624285Y-136020000D01*
X83671904Y-136067619D01*
X83719523Y-136162857D01*
X83719523Y-136258095D01*
X83671904Y-136400952D01*
X83100476Y-136972380D01*
X83719523Y-136972380D01*
X86258095Y-155962380D02*
X86258095Y-154962380D01*
X86258095Y-155438571D02*
X86829523Y-155438571D01*
X86829523Y-155962380D02*
X86829523Y-154962380D01*
X87210476Y-154962380D02*
X87829523Y-154962380D01*
X87496190Y-155343333D01*
X87639047Y-155343333D01*
X87734285Y-155390952D01*
X87781904Y-155438571D01*
X87829523Y-155533809D01*
X87829523Y-155771904D01*
X87781904Y-155867142D01*
X87734285Y-155914761D01*
X87639047Y-155962380D01*
X87353333Y-155962380D01*
X87258095Y-155914761D01*
X87210476Y-155867142D01*
X187858095Y-54362380D02*
X187858095Y-53362380D01*
X187858095Y-53838571D02*
X188429523Y-53838571D01*
X188429523Y-54362380D02*
X188429523Y-53362380D01*
X188858095Y-53457619D02*
X188905714Y-53410000D01*
X189000952Y-53362380D01*
X189239047Y-53362380D01*
X189334285Y-53410000D01*
X189381904Y-53457619D01*
X189429523Y-53552857D01*
X189429523Y-53648095D01*
X189381904Y-53790952D01*
X188810476Y-54362380D01*
X189429523Y-54362380D01*
X86258095Y-54362380D02*
X86258095Y-53362380D01*
X86258095Y-53838571D02*
X86829523Y-53838571D01*
X86829523Y-54362380D02*
X86829523Y-53362380D01*
X87829523Y-54362380D02*
X87258095Y-54362380D01*
X87543809Y-54362380D02*
X87543809Y-53362380D01*
X87448571Y-53505238D01*
X87353333Y-53600476D01*
X87258095Y-53648095D01*
M02*
