G04 #@! TF.GenerationSoftware,KiCad,Pcbnew,(5.1.6)-1*
G04 #@! TF.CreationDate,2021-11-06T14:38:14-07:00*
G04 #@! TF.ProjectId,High current 4x1 LED mux,48696768-2063-4757-9272-656e74203478,rev?*
G04 #@! TF.SameCoordinates,Original*
G04 #@! TF.FileFunction,Copper,L2,Bot*
G04 #@! TF.FilePolarity,Positive*
%FSLAX46Y46*%
G04 Gerber Fmt 4.6, Leading zero omitted, Abs format (unit mm)*
G04 Created by KiCad (PCBNEW (5.1.6)-1) date 2021-11-06 14:38:14*
%MOMM*%
%LPD*%
G01*
G04 APERTURE LIST*
G04 #@! TA.AperFunction,ComponentPad*
%ADD10C,10.000000*%
G04 #@! TD*
G04 #@! TA.AperFunction,ViaPad*
%ADD11C,0.800000*%
G04 #@! TD*
G04 #@! TA.AperFunction,Conductor*
%ADD12C,0.254000*%
G04 #@! TD*
G04 APERTURE END LIST*
D10*
X188610000Y-147580000D03*
X87000000Y-147600000D03*
X188600000Y-46000000D03*
X87000000Y-46000000D03*
D11*
X164000000Y-33200000D03*
X156000000Y-33200000D03*
X172000000Y-33200000D03*
X80200000Y-33200000D03*
X148000000Y-33200000D03*
X188000000Y-33200000D03*
X180000000Y-33200000D03*
X142000000Y-33200000D03*
X126000000Y-33200000D03*
X134000000Y-33200000D03*
X118000000Y-33200000D03*
X195800000Y-33200000D03*
X99400000Y-33200000D03*
X105600000Y-33200000D03*
X88000000Y-33200000D03*
X112000000Y-33200000D03*
X195800000Y-74000000D03*
X195800000Y-90000000D03*
X195800000Y-50000000D03*
X195800000Y-66000000D03*
X195800000Y-33200000D03*
X195800000Y-58000000D03*
X195800000Y-98000000D03*
X195800000Y-82000000D03*
X195800000Y-106000000D03*
X195800000Y-42000000D03*
X195800000Y-154000000D03*
X195800000Y-146000000D03*
X195800000Y-158800000D03*
X195800000Y-122000000D03*
X195800000Y-130000000D03*
X195800000Y-114000000D03*
X195800000Y-138000000D03*
X80200000Y-33200000D03*
X80200000Y-42000000D03*
X80200000Y-50000000D03*
X80200000Y-58000000D03*
X80200000Y-66000000D03*
X80200000Y-74000000D03*
X80200000Y-82000000D03*
X80200000Y-90000000D03*
X80200000Y-98000000D03*
X80200000Y-106000000D03*
X80200000Y-114000000D03*
X80200000Y-122000000D03*
X80200000Y-130000000D03*
X80200000Y-138000000D03*
X80200000Y-146000000D03*
X80200000Y-154000000D03*
X80200000Y-158800000D03*
X188000000Y-158800000D03*
X180000000Y-158800000D03*
X172000000Y-158800000D03*
X164000000Y-158800000D03*
X156000000Y-158800000D03*
X148000000Y-158800000D03*
X142000000Y-158800000D03*
X134000000Y-158800000D03*
X126000000Y-158800000D03*
X118000000Y-158800000D03*
X112000000Y-158800000D03*
X88000000Y-158800000D03*
X99400000Y-158800000D03*
X105600000Y-158800000D03*
X99200000Y-111000000D03*
X99200000Y-123600000D03*
X99200000Y-117400000D03*
X105200000Y-111000000D03*
X111600000Y-111000000D03*
X111600000Y-116800000D03*
X117000000Y-125000000D03*
X106800000Y-123400000D03*
X87850000Y-122610000D03*
X87980000Y-108450000D03*
X87850000Y-90720000D03*
X87900000Y-72390000D03*
X94940000Y-72360000D03*
X95070000Y-90660000D03*
X95010000Y-108520000D03*
X95080000Y-122600000D03*
X97040000Y-139700000D03*
X111430000Y-126140000D03*
X111530000Y-128830000D03*
X111800000Y-131230000D03*
X130140000Y-142780000D03*
X115530000Y-141960000D03*
X111820000Y-133650000D03*
X116050000Y-149450000D03*
X127760000Y-151110000D03*
X143810000Y-150280000D03*
X165290000Y-150640000D03*
X179490000Y-144940000D03*
X90030000Y-55240000D03*
X88150000Y-136650000D03*
X94610000Y-136650000D03*
X104740000Y-134340000D03*
X105350000Y-125060000D03*
X99380000Y-154360000D03*
X105590000Y-154380000D03*
X99380000Y-149540000D03*
X105610000Y-149540000D03*
X86570000Y-131600000D03*
X108680000Y-106380000D03*
X97680000Y-131260000D03*
X153070000Y-146960000D03*
X99430000Y-40390000D03*
X138280000Y-139390000D03*
X141980000Y-146100000D03*
X158940000Y-140200000D03*
X102500000Y-35000000D03*
X105000000Y-37500000D03*
X107500000Y-35000000D03*
X110000000Y-37500000D03*
X112500000Y-35000000D03*
X117500000Y-35000000D03*
X120000000Y-37500000D03*
X122500000Y-35000000D03*
X102500000Y-40000000D03*
X107500000Y-40000000D03*
X112500000Y-40000000D03*
X117500000Y-40000000D03*
X122500000Y-40000000D03*
X125000000Y-37500000D03*
X127500000Y-35000000D03*
X127500000Y-40000000D03*
X132500000Y-35000000D03*
X132500000Y-40000000D03*
X135000000Y-37500000D03*
X137500000Y-35000000D03*
X137500000Y-40000000D03*
X140000000Y-37500000D03*
X142500000Y-35000000D03*
X142500000Y-40000000D03*
X145000000Y-37500000D03*
X147500000Y-35000000D03*
X147500000Y-40000000D03*
X152500000Y-35000000D03*
X152500000Y-40000000D03*
X155000000Y-37500000D03*
X157500000Y-35000000D03*
X157500000Y-40000000D03*
X160000000Y-37500000D03*
X162500000Y-35000000D03*
X162500000Y-40000000D03*
X167500000Y-35000000D03*
X167500000Y-40000000D03*
X170000000Y-37500000D03*
X170000000Y-42500000D03*
X120000000Y-122500000D03*
X120000000Y-127500000D03*
X122500000Y-125000000D03*
X125000000Y-122500000D03*
X130000000Y-122500000D03*
X135000000Y-122500000D03*
X132500000Y-125000000D03*
X127500000Y-125000000D03*
X125000000Y-127500000D03*
X130000000Y-127500000D03*
X122500000Y-130000000D03*
X127500000Y-130000000D03*
X132500000Y-130000000D03*
X130000000Y-132500000D03*
X125000000Y-132500000D03*
X122500000Y-135000000D03*
X127500000Y-135000000D03*
X132500000Y-135000000D03*
X135000000Y-132500000D03*
X137500000Y-130000000D03*
X137500000Y-135000000D03*
X140000000Y-132500000D03*
X142500000Y-130000000D03*
X142500000Y-135000000D03*
X145000000Y-132500000D03*
X145000000Y-127500000D03*
X142500000Y-125000000D03*
X140000000Y-122500000D03*
X145000000Y-122500000D03*
X147500000Y-125000000D03*
X150000000Y-122500000D03*
X150000000Y-127500000D03*
X147500000Y-130000000D03*
X150000000Y-132500000D03*
X147500000Y-135000000D03*
X152500000Y-125000000D03*
X152500000Y-130000000D03*
X152500000Y-135000000D03*
X155000000Y-122500000D03*
X155000000Y-127500000D03*
X155000000Y-132500000D03*
X157500000Y-135000000D03*
X157500000Y-130000000D03*
X157500000Y-125000000D03*
X160000000Y-122500000D03*
X160000000Y-127500000D03*
X160000000Y-132500000D03*
X162500000Y-135000000D03*
X162500000Y-130000000D03*
X162500000Y-125000000D03*
X165000000Y-122500000D03*
X165000000Y-127500000D03*
X165000000Y-132500000D03*
X167500000Y-125000000D03*
X167500000Y-130000000D03*
X167500000Y-135000000D03*
X115000000Y-37500000D03*
X130000000Y-37500000D03*
X150000000Y-37500000D03*
X165000000Y-37500000D03*
X172500000Y-35000000D03*
X172500000Y-40000000D03*
X175000000Y-37500000D03*
X177500000Y-35000000D03*
X177500000Y-40000000D03*
X175000000Y-42500000D03*
D12*
G36*
X196138000Y-159238000D02*
G01*
X174206317Y-159238000D01*
X174410621Y-159197361D01*
X174716726Y-159070569D01*
X174992212Y-158886494D01*
X175226494Y-158652212D01*
X175410569Y-158376726D01*
X175537361Y-158070621D01*
X175602000Y-157745662D01*
X175602000Y-157414338D01*
X175537361Y-157089379D01*
X175410569Y-156783274D01*
X175226494Y-156507788D01*
X174992212Y-156273506D01*
X174716726Y-156089431D01*
X174410621Y-155962639D01*
X174085662Y-155898000D01*
X173754338Y-155898000D01*
X173429379Y-155962639D01*
X173123274Y-156089431D01*
X172847788Y-156273506D01*
X172613506Y-156507788D01*
X172429431Y-156783274D01*
X172302639Y-157089379D01*
X172238000Y-157414338D01*
X172238000Y-157745662D01*
X172302639Y-158070621D01*
X172429431Y-158376726D01*
X172613506Y-158652212D01*
X172847788Y-158886494D01*
X173123274Y-159070569D01*
X173429379Y-159197361D01*
X173633683Y-159238000D01*
X144236317Y-159238000D01*
X144440621Y-159197361D01*
X144746726Y-159070569D01*
X145022212Y-158886494D01*
X145256494Y-158652212D01*
X145440569Y-158376726D01*
X145567361Y-158070621D01*
X145632000Y-157745662D01*
X145632000Y-157414338D01*
X145567361Y-157089379D01*
X145440569Y-156783274D01*
X145256494Y-156507788D01*
X145022212Y-156273506D01*
X144746726Y-156089431D01*
X144440621Y-155962639D01*
X144115662Y-155898000D01*
X143784338Y-155898000D01*
X143459379Y-155962639D01*
X143153274Y-156089431D01*
X142877788Y-156273506D01*
X142643506Y-156507788D01*
X142459431Y-156783274D01*
X142332639Y-157089379D01*
X142268000Y-157414338D01*
X142268000Y-157745662D01*
X142332639Y-158070621D01*
X142459431Y-158376726D01*
X142643506Y-158652212D01*
X142877788Y-158886494D01*
X143153274Y-159070569D01*
X143459379Y-159197361D01*
X143663683Y-159238000D01*
X114266317Y-159238000D01*
X114470621Y-159197361D01*
X114776726Y-159070569D01*
X115052212Y-158886494D01*
X115286494Y-158652212D01*
X115470569Y-158376726D01*
X115597361Y-158070621D01*
X115662000Y-157745662D01*
X115662000Y-157414338D01*
X115597361Y-157089379D01*
X115470569Y-156783274D01*
X115286494Y-156507788D01*
X115052212Y-156273506D01*
X114776726Y-156089431D01*
X114470621Y-155962639D01*
X114145662Y-155898000D01*
X113814338Y-155898000D01*
X113489379Y-155962639D01*
X113183274Y-156089431D01*
X112907788Y-156273506D01*
X112673506Y-156507788D01*
X112489431Y-156783274D01*
X112362639Y-157089379D01*
X112298000Y-157414338D01*
X112298000Y-157745662D01*
X112362639Y-158070621D01*
X112489431Y-158376726D01*
X112673506Y-158652212D01*
X112907788Y-158886494D01*
X113183274Y-159070569D01*
X113489379Y-159197361D01*
X113693683Y-159238000D01*
X79862000Y-159238000D01*
X79862000Y-156888015D01*
X101363000Y-156888015D01*
X101363000Y-157111985D01*
X101406695Y-157331651D01*
X101492404Y-157538571D01*
X101616835Y-157724795D01*
X101775205Y-157883165D01*
X101961429Y-158007596D01*
X102168349Y-158093305D01*
X102388015Y-158137000D01*
X102611985Y-158137000D01*
X102831651Y-158093305D01*
X103038571Y-158007596D01*
X103224795Y-157883165D01*
X103383165Y-157724795D01*
X103507596Y-157538571D01*
X103593305Y-157331651D01*
X103637000Y-157111985D01*
X103637000Y-156888015D01*
X103593305Y-156668349D01*
X103507596Y-156461429D01*
X103383165Y-156275205D01*
X103224795Y-156116835D01*
X103038571Y-155992404D01*
X102831651Y-155906695D01*
X102611985Y-155863000D01*
X102388015Y-155863000D01*
X102168349Y-155906695D01*
X101961429Y-155992404D01*
X101775205Y-156116835D01*
X101616835Y-156275205D01*
X101492404Y-156461429D01*
X101406695Y-156668349D01*
X101363000Y-156888015D01*
X79862000Y-156888015D01*
X79862000Y-147074351D01*
X81663000Y-147074351D01*
X81663000Y-148125649D01*
X81868098Y-149156745D01*
X82270412Y-150128017D01*
X82854482Y-151002139D01*
X83597861Y-151745518D01*
X84471983Y-152329588D01*
X85443255Y-152731902D01*
X86474351Y-152937000D01*
X87525649Y-152937000D01*
X88556745Y-152731902D01*
X89410739Y-152378166D01*
X101263000Y-152378166D01*
X101263000Y-152621834D01*
X101310538Y-152860819D01*
X101403785Y-153085939D01*
X101539160Y-153288541D01*
X101711459Y-153460840D01*
X101914061Y-153596215D01*
X102139181Y-153689462D01*
X102378166Y-153737000D01*
X102621834Y-153737000D01*
X102860819Y-153689462D01*
X103085939Y-153596215D01*
X103288541Y-153460840D01*
X103460840Y-153288541D01*
X103596215Y-153085939D01*
X103689462Y-152860819D01*
X103737000Y-152621834D01*
X103737000Y-152378166D01*
X103689462Y-152139181D01*
X103596215Y-151914061D01*
X103460840Y-151711459D01*
X103288541Y-151539160D01*
X103085939Y-151403785D01*
X102860819Y-151310538D01*
X102621834Y-151263000D01*
X102378166Y-151263000D01*
X102139181Y-151310538D01*
X101914061Y-151403785D01*
X101711459Y-151539160D01*
X101539160Y-151711459D01*
X101403785Y-151914061D01*
X101310538Y-152139181D01*
X101263000Y-152378166D01*
X89410739Y-152378166D01*
X89528017Y-152329588D01*
X90402139Y-151745518D01*
X91145518Y-151002139D01*
X91729588Y-150128017D01*
X92131902Y-149156745D01*
X92337000Y-148125649D01*
X92337000Y-147074351D01*
X92333022Y-147054351D01*
X183273000Y-147054351D01*
X183273000Y-148105649D01*
X183478098Y-149136745D01*
X183880412Y-150108017D01*
X184464482Y-150982139D01*
X185207861Y-151725518D01*
X186081983Y-152309588D01*
X187053255Y-152711902D01*
X188084351Y-152917000D01*
X189135649Y-152917000D01*
X190166745Y-152711902D01*
X191138017Y-152309588D01*
X192012139Y-151725518D01*
X192755518Y-150982139D01*
X193339588Y-150108017D01*
X193741902Y-149136745D01*
X193947000Y-148105649D01*
X193947000Y-147054351D01*
X193741902Y-146023255D01*
X193339588Y-145051983D01*
X192755518Y-144177861D01*
X192012139Y-143434482D01*
X191138017Y-142850412D01*
X190166745Y-142448098D01*
X189135649Y-142243000D01*
X188084351Y-142243000D01*
X187053255Y-142448098D01*
X186081983Y-142850412D01*
X185207861Y-143434482D01*
X184464482Y-144177861D01*
X183880412Y-145051983D01*
X183478098Y-146023255D01*
X183273000Y-147054351D01*
X92333022Y-147054351D01*
X92131902Y-146043255D01*
X91729588Y-145071983D01*
X91145518Y-144197861D01*
X90402139Y-143454482D01*
X89528017Y-142870412D01*
X88556745Y-142468098D01*
X87525649Y-142263000D01*
X86474351Y-142263000D01*
X85443255Y-142468098D01*
X84471983Y-142870412D01*
X83597861Y-143454482D01*
X82854482Y-144197861D01*
X82270412Y-145071983D01*
X81868098Y-146043255D01*
X81663000Y-147074351D01*
X79862000Y-147074351D01*
X79862000Y-91770481D01*
X97064295Y-91770481D01*
X97069475Y-91865745D01*
X97088653Y-91928964D01*
X97119795Y-91987227D01*
X97161705Y-92038295D01*
X109547459Y-104424049D01*
X111665419Y-107119635D01*
X111863073Y-116607019D01*
X111873906Y-116685041D01*
X111896763Y-116747025D01*
X111931273Y-116803358D01*
X111976109Y-116851877D01*
X117263000Y-121551336D01*
X117263000Y-126400000D01*
X117269475Y-126465745D01*
X117288653Y-126528964D01*
X117319795Y-126587227D01*
X117361705Y-126638295D01*
X119463000Y-128739590D01*
X119463000Y-135800000D01*
X119469089Y-135863770D01*
X119487888Y-135927103D01*
X119518682Y-135985550D01*
X119560286Y-136036868D01*
X119611103Y-136079082D01*
X119669179Y-136110572D01*
X119732282Y-136130126D01*
X135332282Y-139330126D01*
X135402042Y-139336994D01*
X168402042Y-139136994D01*
X168469497Y-139129756D01*
X168532494Y-139109862D01*
X168590399Y-139078060D01*
X168640987Y-139035572D01*
X168682315Y-138984031D01*
X168712793Y-138925418D01*
X168731250Y-138861985D01*
X168736978Y-138796171D01*
X168538986Y-121372863D01*
X173194792Y-118075000D01*
X173235475Y-118041082D01*
X173277983Y-117990511D01*
X173309809Y-117932618D01*
X173329728Y-117869629D01*
X173336977Y-117803964D01*
X173535904Y-100895170D01*
X178888975Y-91973385D01*
X178908145Y-91936440D01*
X178928842Y-91873702D01*
X178936902Y-91808132D01*
X180055303Y-45474351D01*
X183263000Y-45474351D01*
X183263000Y-46525649D01*
X183468098Y-47556745D01*
X183870412Y-48528017D01*
X184454482Y-49402139D01*
X185197861Y-50145518D01*
X186071983Y-50729588D01*
X187043255Y-51131902D01*
X188074351Y-51337000D01*
X189125649Y-51337000D01*
X190156745Y-51131902D01*
X191128017Y-50729588D01*
X192002139Y-50145518D01*
X192745518Y-49402139D01*
X193329588Y-48528017D01*
X193731902Y-47556745D01*
X193937000Y-46525649D01*
X193937000Y-45474351D01*
X193731902Y-44443255D01*
X193329588Y-43471983D01*
X192745518Y-42597861D01*
X192002139Y-41854482D01*
X191128017Y-41270412D01*
X190156745Y-40868098D01*
X189125649Y-40663000D01*
X188074351Y-40663000D01*
X187043255Y-40868098D01*
X186071983Y-41270412D01*
X185197861Y-41854482D01*
X184454482Y-42597861D01*
X183870412Y-43471983D01*
X183468098Y-44443255D01*
X183263000Y-45474351D01*
X180055303Y-45474351D01*
X180336902Y-33808132D01*
X180330525Y-33734255D01*
X180311347Y-33671036D01*
X180280205Y-33612773D01*
X180238295Y-33561705D01*
X180187227Y-33519795D01*
X180128964Y-33488653D01*
X180065745Y-33469475D01*
X180000000Y-33463000D01*
X102500000Y-33463000D01*
X102463459Y-33464987D01*
X102398803Y-33478553D01*
X102338037Y-33504472D01*
X102283494Y-33541748D01*
X102237272Y-33588948D01*
X102201146Y-33644260D01*
X102176505Y-33705556D01*
X102164295Y-33770481D01*
X102111284Y-34373350D01*
X102030190Y-34427535D01*
X101927535Y-34530190D01*
X101846879Y-34650900D01*
X101791323Y-34785025D01*
X101763000Y-34927412D01*
X101763000Y-35072588D01*
X101791323Y-35214975D01*
X101846879Y-35349100D01*
X101927535Y-35469810D01*
X102007812Y-35550087D01*
X97064295Y-91770481D01*
X79862000Y-91770481D01*
X79862000Y-45474351D01*
X81663000Y-45474351D01*
X81663000Y-46525649D01*
X81868098Y-47556745D01*
X82270412Y-48528017D01*
X82854482Y-49402139D01*
X83597861Y-50145518D01*
X84471983Y-50729588D01*
X85443255Y-51131902D01*
X86474351Y-51337000D01*
X87525649Y-51337000D01*
X88556745Y-51131902D01*
X89528017Y-50729588D01*
X90402139Y-50145518D01*
X91145518Y-49402139D01*
X91729588Y-48528017D01*
X92131902Y-47556745D01*
X92337000Y-46525649D01*
X92337000Y-45474351D01*
X92131902Y-44443255D01*
X91729588Y-43471983D01*
X91145518Y-42597861D01*
X90402139Y-41854482D01*
X89528017Y-41270412D01*
X88556745Y-40868098D01*
X87525649Y-40663000D01*
X86474351Y-40663000D01*
X85443255Y-40868098D01*
X84471983Y-41270412D01*
X83597861Y-41854482D01*
X82854482Y-42597861D01*
X82270412Y-43471983D01*
X81868098Y-44443255D01*
X81663000Y-45474351D01*
X79862000Y-45474351D01*
X79862000Y-32862000D01*
X196138001Y-32862000D01*
X196138000Y-159238000D01*
G37*
X196138000Y-159238000D02*
X174206317Y-159238000D01*
X174410621Y-159197361D01*
X174716726Y-159070569D01*
X174992212Y-158886494D01*
X175226494Y-158652212D01*
X175410569Y-158376726D01*
X175537361Y-158070621D01*
X175602000Y-157745662D01*
X175602000Y-157414338D01*
X175537361Y-157089379D01*
X175410569Y-156783274D01*
X175226494Y-156507788D01*
X174992212Y-156273506D01*
X174716726Y-156089431D01*
X174410621Y-155962639D01*
X174085662Y-155898000D01*
X173754338Y-155898000D01*
X173429379Y-155962639D01*
X173123274Y-156089431D01*
X172847788Y-156273506D01*
X172613506Y-156507788D01*
X172429431Y-156783274D01*
X172302639Y-157089379D01*
X172238000Y-157414338D01*
X172238000Y-157745662D01*
X172302639Y-158070621D01*
X172429431Y-158376726D01*
X172613506Y-158652212D01*
X172847788Y-158886494D01*
X173123274Y-159070569D01*
X173429379Y-159197361D01*
X173633683Y-159238000D01*
X144236317Y-159238000D01*
X144440621Y-159197361D01*
X144746726Y-159070569D01*
X145022212Y-158886494D01*
X145256494Y-158652212D01*
X145440569Y-158376726D01*
X145567361Y-158070621D01*
X145632000Y-157745662D01*
X145632000Y-157414338D01*
X145567361Y-157089379D01*
X145440569Y-156783274D01*
X145256494Y-156507788D01*
X145022212Y-156273506D01*
X144746726Y-156089431D01*
X144440621Y-155962639D01*
X144115662Y-155898000D01*
X143784338Y-155898000D01*
X143459379Y-155962639D01*
X143153274Y-156089431D01*
X142877788Y-156273506D01*
X142643506Y-156507788D01*
X142459431Y-156783274D01*
X142332639Y-157089379D01*
X142268000Y-157414338D01*
X142268000Y-157745662D01*
X142332639Y-158070621D01*
X142459431Y-158376726D01*
X142643506Y-158652212D01*
X142877788Y-158886494D01*
X143153274Y-159070569D01*
X143459379Y-159197361D01*
X143663683Y-159238000D01*
X114266317Y-159238000D01*
X114470621Y-159197361D01*
X114776726Y-159070569D01*
X115052212Y-158886494D01*
X115286494Y-158652212D01*
X115470569Y-158376726D01*
X115597361Y-158070621D01*
X115662000Y-157745662D01*
X115662000Y-157414338D01*
X115597361Y-157089379D01*
X115470569Y-156783274D01*
X115286494Y-156507788D01*
X115052212Y-156273506D01*
X114776726Y-156089431D01*
X114470621Y-155962639D01*
X114145662Y-155898000D01*
X113814338Y-155898000D01*
X113489379Y-155962639D01*
X113183274Y-156089431D01*
X112907788Y-156273506D01*
X112673506Y-156507788D01*
X112489431Y-156783274D01*
X112362639Y-157089379D01*
X112298000Y-157414338D01*
X112298000Y-157745662D01*
X112362639Y-158070621D01*
X112489431Y-158376726D01*
X112673506Y-158652212D01*
X112907788Y-158886494D01*
X113183274Y-159070569D01*
X113489379Y-159197361D01*
X113693683Y-159238000D01*
X79862000Y-159238000D01*
X79862000Y-156888015D01*
X101363000Y-156888015D01*
X101363000Y-157111985D01*
X101406695Y-157331651D01*
X101492404Y-157538571D01*
X101616835Y-157724795D01*
X101775205Y-157883165D01*
X101961429Y-158007596D01*
X102168349Y-158093305D01*
X102388015Y-158137000D01*
X102611985Y-158137000D01*
X102831651Y-158093305D01*
X103038571Y-158007596D01*
X103224795Y-157883165D01*
X103383165Y-157724795D01*
X103507596Y-157538571D01*
X103593305Y-157331651D01*
X103637000Y-157111985D01*
X103637000Y-156888015D01*
X103593305Y-156668349D01*
X103507596Y-156461429D01*
X103383165Y-156275205D01*
X103224795Y-156116835D01*
X103038571Y-155992404D01*
X102831651Y-155906695D01*
X102611985Y-155863000D01*
X102388015Y-155863000D01*
X102168349Y-155906695D01*
X101961429Y-155992404D01*
X101775205Y-156116835D01*
X101616835Y-156275205D01*
X101492404Y-156461429D01*
X101406695Y-156668349D01*
X101363000Y-156888015D01*
X79862000Y-156888015D01*
X79862000Y-147074351D01*
X81663000Y-147074351D01*
X81663000Y-148125649D01*
X81868098Y-149156745D01*
X82270412Y-150128017D01*
X82854482Y-151002139D01*
X83597861Y-151745518D01*
X84471983Y-152329588D01*
X85443255Y-152731902D01*
X86474351Y-152937000D01*
X87525649Y-152937000D01*
X88556745Y-152731902D01*
X89410739Y-152378166D01*
X101263000Y-152378166D01*
X101263000Y-152621834D01*
X101310538Y-152860819D01*
X101403785Y-153085939D01*
X101539160Y-153288541D01*
X101711459Y-153460840D01*
X101914061Y-153596215D01*
X102139181Y-153689462D01*
X102378166Y-153737000D01*
X102621834Y-153737000D01*
X102860819Y-153689462D01*
X103085939Y-153596215D01*
X103288541Y-153460840D01*
X103460840Y-153288541D01*
X103596215Y-153085939D01*
X103689462Y-152860819D01*
X103737000Y-152621834D01*
X103737000Y-152378166D01*
X103689462Y-152139181D01*
X103596215Y-151914061D01*
X103460840Y-151711459D01*
X103288541Y-151539160D01*
X103085939Y-151403785D01*
X102860819Y-151310538D01*
X102621834Y-151263000D01*
X102378166Y-151263000D01*
X102139181Y-151310538D01*
X101914061Y-151403785D01*
X101711459Y-151539160D01*
X101539160Y-151711459D01*
X101403785Y-151914061D01*
X101310538Y-152139181D01*
X101263000Y-152378166D01*
X89410739Y-152378166D01*
X89528017Y-152329588D01*
X90402139Y-151745518D01*
X91145518Y-151002139D01*
X91729588Y-150128017D01*
X92131902Y-149156745D01*
X92337000Y-148125649D01*
X92337000Y-147074351D01*
X92333022Y-147054351D01*
X183273000Y-147054351D01*
X183273000Y-148105649D01*
X183478098Y-149136745D01*
X183880412Y-150108017D01*
X184464482Y-150982139D01*
X185207861Y-151725518D01*
X186081983Y-152309588D01*
X187053255Y-152711902D01*
X188084351Y-152917000D01*
X189135649Y-152917000D01*
X190166745Y-152711902D01*
X191138017Y-152309588D01*
X192012139Y-151725518D01*
X192755518Y-150982139D01*
X193339588Y-150108017D01*
X193741902Y-149136745D01*
X193947000Y-148105649D01*
X193947000Y-147054351D01*
X193741902Y-146023255D01*
X193339588Y-145051983D01*
X192755518Y-144177861D01*
X192012139Y-143434482D01*
X191138017Y-142850412D01*
X190166745Y-142448098D01*
X189135649Y-142243000D01*
X188084351Y-142243000D01*
X187053255Y-142448098D01*
X186081983Y-142850412D01*
X185207861Y-143434482D01*
X184464482Y-144177861D01*
X183880412Y-145051983D01*
X183478098Y-146023255D01*
X183273000Y-147054351D01*
X92333022Y-147054351D01*
X92131902Y-146043255D01*
X91729588Y-145071983D01*
X91145518Y-144197861D01*
X90402139Y-143454482D01*
X89528017Y-142870412D01*
X88556745Y-142468098D01*
X87525649Y-142263000D01*
X86474351Y-142263000D01*
X85443255Y-142468098D01*
X84471983Y-142870412D01*
X83597861Y-143454482D01*
X82854482Y-144197861D01*
X82270412Y-145071983D01*
X81868098Y-146043255D01*
X81663000Y-147074351D01*
X79862000Y-147074351D01*
X79862000Y-91770481D01*
X97064295Y-91770481D01*
X97069475Y-91865745D01*
X97088653Y-91928964D01*
X97119795Y-91987227D01*
X97161705Y-92038295D01*
X109547459Y-104424049D01*
X111665419Y-107119635D01*
X111863073Y-116607019D01*
X111873906Y-116685041D01*
X111896763Y-116747025D01*
X111931273Y-116803358D01*
X111976109Y-116851877D01*
X117263000Y-121551336D01*
X117263000Y-126400000D01*
X117269475Y-126465745D01*
X117288653Y-126528964D01*
X117319795Y-126587227D01*
X117361705Y-126638295D01*
X119463000Y-128739590D01*
X119463000Y-135800000D01*
X119469089Y-135863770D01*
X119487888Y-135927103D01*
X119518682Y-135985550D01*
X119560286Y-136036868D01*
X119611103Y-136079082D01*
X119669179Y-136110572D01*
X119732282Y-136130126D01*
X135332282Y-139330126D01*
X135402042Y-139336994D01*
X168402042Y-139136994D01*
X168469497Y-139129756D01*
X168532494Y-139109862D01*
X168590399Y-139078060D01*
X168640987Y-139035572D01*
X168682315Y-138984031D01*
X168712793Y-138925418D01*
X168731250Y-138861985D01*
X168736978Y-138796171D01*
X168538986Y-121372863D01*
X173194792Y-118075000D01*
X173235475Y-118041082D01*
X173277983Y-117990511D01*
X173309809Y-117932618D01*
X173329728Y-117869629D01*
X173336977Y-117803964D01*
X173535904Y-100895170D01*
X178888975Y-91973385D01*
X178908145Y-91936440D01*
X178928842Y-91873702D01*
X178936902Y-91808132D01*
X180055303Y-45474351D01*
X183263000Y-45474351D01*
X183263000Y-46525649D01*
X183468098Y-47556745D01*
X183870412Y-48528017D01*
X184454482Y-49402139D01*
X185197861Y-50145518D01*
X186071983Y-50729588D01*
X187043255Y-51131902D01*
X188074351Y-51337000D01*
X189125649Y-51337000D01*
X190156745Y-51131902D01*
X191128017Y-50729588D01*
X192002139Y-50145518D01*
X192745518Y-49402139D01*
X193329588Y-48528017D01*
X193731902Y-47556745D01*
X193937000Y-46525649D01*
X193937000Y-45474351D01*
X193731902Y-44443255D01*
X193329588Y-43471983D01*
X192745518Y-42597861D01*
X192002139Y-41854482D01*
X191128017Y-41270412D01*
X190156745Y-40868098D01*
X189125649Y-40663000D01*
X188074351Y-40663000D01*
X187043255Y-40868098D01*
X186071983Y-41270412D01*
X185197861Y-41854482D01*
X184454482Y-42597861D01*
X183870412Y-43471983D01*
X183468098Y-44443255D01*
X183263000Y-45474351D01*
X180055303Y-45474351D01*
X180336902Y-33808132D01*
X180330525Y-33734255D01*
X180311347Y-33671036D01*
X180280205Y-33612773D01*
X180238295Y-33561705D01*
X180187227Y-33519795D01*
X180128964Y-33488653D01*
X180065745Y-33469475D01*
X180000000Y-33463000D01*
X102500000Y-33463000D01*
X102463459Y-33464987D01*
X102398803Y-33478553D01*
X102338037Y-33504472D01*
X102283494Y-33541748D01*
X102237272Y-33588948D01*
X102201146Y-33644260D01*
X102176505Y-33705556D01*
X102164295Y-33770481D01*
X102111284Y-34373350D01*
X102030190Y-34427535D01*
X101927535Y-34530190D01*
X101846879Y-34650900D01*
X101791323Y-34785025D01*
X101763000Y-34927412D01*
X101763000Y-35072588D01*
X101791323Y-35214975D01*
X101846879Y-35349100D01*
X101927535Y-35469810D01*
X102007812Y-35550087D01*
X97064295Y-91770481D01*
X79862000Y-91770481D01*
X79862000Y-45474351D01*
X81663000Y-45474351D01*
X81663000Y-46525649D01*
X81868098Y-47556745D01*
X82270412Y-48528017D01*
X82854482Y-49402139D01*
X83597861Y-50145518D01*
X84471983Y-50729588D01*
X85443255Y-51131902D01*
X86474351Y-51337000D01*
X87525649Y-51337000D01*
X88556745Y-51131902D01*
X89528017Y-50729588D01*
X90402139Y-50145518D01*
X91145518Y-49402139D01*
X91729588Y-48528017D01*
X92131902Y-47556745D01*
X92337000Y-46525649D01*
X92337000Y-45474351D01*
X92131902Y-44443255D01*
X91729588Y-43471983D01*
X91145518Y-42597861D01*
X90402139Y-41854482D01*
X89528017Y-41270412D01*
X88556745Y-40868098D01*
X87525649Y-40663000D01*
X86474351Y-40663000D01*
X85443255Y-40868098D01*
X84471983Y-41270412D01*
X83597861Y-41854482D01*
X82854482Y-42597861D01*
X82270412Y-43471983D01*
X81868098Y-44443255D01*
X81663000Y-45474351D01*
X79862000Y-45474351D01*
X79862000Y-32862000D01*
X196138001Y-32862000D01*
X196138000Y-159238000D01*
G36*
X105527412Y-33937000D02*
G01*
X105672588Y-33937000D01*
X105722861Y-33927000D01*
X111877139Y-33927000D01*
X111927412Y-33937000D01*
X112072588Y-33937000D01*
X112122861Y-33927000D01*
X117877139Y-33927000D01*
X117927412Y-33937000D01*
X118072588Y-33937000D01*
X118122861Y-33927000D01*
X125877139Y-33927000D01*
X125927412Y-33937000D01*
X126072588Y-33937000D01*
X126122861Y-33927000D01*
X133877139Y-33927000D01*
X133927412Y-33937000D01*
X134072588Y-33937000D01*
X134122861Y-33927000D01*
X141877139Y-33927000D01*
X141927412Y-33937000D01*
X142072588Y-33937000D01*
X142122861Y-33927000D01*
X147877139Y-33927000D01*
X147927412Y-33937000D01*
X148072588Y-33937000D01*
X148122861Y-33927000D01*
X155877139Y-33927000D01*
X155927412Y-33937000D01*
X156072588Y-33937000D01*
X156122861Y-33927000D01*
X163877139Y-33927000D01*
X163927412Y-33937000D01*
X164072588Y-33937000D01*
X164122861Y-33927000D01*
X171877139Y-33927000D01*
X171927412Y-33937000D01*
X172072588Y-33937000D01*
X172122861Y-33927000D01*
X179869898Y-33927000D01*
X178473846Y-91763412D01*
X173091098Y-100734659D01*
X173080444Y-100757160D01*
X173074383Y-100781308D01*
X173073009Y-100798506D01*
X172873770Y-117733780D01*
X168126592Y-121096365D01*
X168107784Y-121112677D01*
X168092520Y-121132346D01*
X168081387Y-121154614D01*
X168074811Y-121178626D01*
X168073008Y-121201443D01*
X168271557Y-138673776D01*
X138784759Y-138852484D01*
X138749810Y-138817535D01*
X138629100Y-138736879D01*
X138494975Y-138681323D01*
X138352588Y-138653000D01*
X138207412Y-138653000D01*
X138065025Y-138681323D01*
X137930900Y-138736879D01*
X137810190Y-138817535D01*
X137769085Y-138858640D01*
X135412511Y-138872922D01*
X119927000Y-135696406D01*
X119927000Y-128600000D01*
X119924560Y-128575224D01*
X119917333Y-128551399D01*
X119905597Y-128529443D01*
X119889803Y-128510197D01*
X117727000Y-126347394D01*
X117727000Y-125122861D01*
X117737000Y-125072588D01*
X117737000Y-124927412D01*
X117727000Y-124877139D01*
X117727000Y-121400000D01*
X117724560Y-121375224D01*
X117717333Y-121351399D01*
X117705597Y-121329443D01*
X117684374Y-121305079D01*
X112325817Y-116541917D01*
X112218706Y-111400605D01*
X112253121Y-111349100D01*
X112308677Y-111214975D01*
X112337000Y-111072588D01*
X112337000Y-110927412D01*
X112308677Y-110785025D01*
X112253121Y-110650900D01*
X112201477Y-110573610D01*
X112126972Y-106997355D01*
X112124017Y-106972634D01*
X112116295Y-106948966D01*
X112099862Y-106921537D01*
X109899862Y-104121537D01*
X109889803Y-104110197D01*
X97531702Y-91752096D01*
X102616323Y-33927000D01*
X105477139Y-33927000D01*
X105527412Y-33937000D01*
G37*
X105527412Y-33937000D02*
X105672588Y-33937000D01*
X105722861Y-33927000D01*
X111877139Y-33927000D01*
X111927412Y-33937000D01*
X112072588Y-33937000D01*
X112122861Y-33927000D01*
X117877139Y-33927000D01*
X117927412Y-33937000D01*
X118072588Y-33937000D01*
X118122861Y-33927000D01*
X125877139Y-33927000D01*
X125927412Y-33937000D01*
X126072588Y-33937000D01*
X126122861Y-33927000D01*
X133877139Y-33927000D01*
X133927412Y-33937000D01*
X134072588Y-33937000D01*
X134122861Y-33927000D01*
X141877139Y-33927000D01*
X141927412Y-33937000D01*
X142072588Y-33937000D01*
X142122861Y-33927000D01*
X147877139Y-33927000D01*
X147927412Y-33937000D01*
X148072588Y-33937000D01*
X148122861Y-33927000D01*
X155877139Y-33927000D01*
X155927412Y-33937000D01*
X156072588Y-33937000D01*
X156122861Y-33927000D01*
X163877139Y-33927000D01*
X163927412Y-33937000D01*
X164072588Y-33937000D01*
X164122861Y-33927000D01*
X171877139Y-33927000D01*
X171927412Y-33937000D01*
X172072588Y-33937000D01*
X172122861Y-33927000D01*
X179869898Y-33927000D01*
X178473846Y-91763412D01*
X173091098Y-100734659D01*
X173080444Y-100757160D01*
X173074383Y-100781308D01*
X173073009Y-100798506D01*
X172873770Y-117733780D01*
X168126592Y-121096365D01*
X168107784Y-121112677D01*
X168092520Y-121132346D01*
X168081387Y-121154614D01*
X168074811Y-121178626D01*
X168073008Y-121201443D01*
X168271557Y-138673776D01*
X138784759Y-138852484D01*
X138749810Y-138817535D01*
X138629100Y-138736879D01*
X138494975Y-138681323D01*
X138352588Y-138653000D01*
X138207412Y-138653000D01*
X138065025Y-138681323D01*
X137930900Y-138736879D01*
X137810190Y-138817535D01*
X137769085Y-138858640D01*
X135412511Y-138872922D01*
X119927000Y-135696406D01*
X119927000Y-128600000D01*
X119924560Y-128575224D01*
X119917333Y-128551399D01*
X119905597Y-128529443D01*
X119889803Y-128510197D01*
X117727000Y-126347394D01*
X117727000Y-125122861D01*
X117737000Y-125072588D01*
X117737000Y-124927412D01*
X117727000Y-124877139D01*
X117727000Y-121400000D01*
X117724560Y-121375224D01*
X117717333Y-121351399D01*
X117705597Y-121329443D01*
X117684374Y-121305079D01*
X112325817Y-116541917D01*
X112218706Y-111400605D01*
X112253121Y-111349100D01*
X112308677Y-111214975D01*
X112337000Y-111072588D01*
X112337000Y-110927412D01*
X112308677Y-110785025D01*
X112253121Y-110650900D01*
X112201477Y-110573610D01*
X112126972Y-106997355D01*
X112124017Y-106972634D01*
X112116295Y-106948966D01*
X112099862Y-106921537D01*
X109899862Y-104121537D01*
X109889803Y-104110197D01*
X97531702Y-91752096D01*
X102616323Y-33927000D01*
X105477139Y-33927000D01*
X105527412Y-33937000D01*
M02*
