M48
INCH,TZ
T1C0.0157
T2C0.2598
%
G90
G05
T1
X31575Y-13071
X31575Y-13071
X31575Y-16535
X31575Y-19685
X31575Y-22835
X31575Y-25984
X31575Y-29134
X31575Y-32283
X31575Y-35433
X31575Y-38583
X31575Y-41732
X31575Y-44882
X31575Y-48031
X31575Y-51181
X31575Y-54331
X31575Y-57480
X31575Y-60630
X31575Y-62520
X34083Y-51811
X34587Y-35717
X34587Y-48272
X34606Y-28500
X34638Y-42697
X34646Y-13071
X34646Y-62520
X34705Y-53799
X35445Y-21748
X37248Y-53799
X37378Y-28488
X37406Y-42724
X37429Y-35693
X37433Y-48268
X38205Y-55000
X38457Y-51677
X39055Y-43701
X39055Y-46220
X39055Y-48661
X39126Y-58874
X39126Y-60772
X39134Y-13071
X39134Y-62520
X39146Y-15902
X40354Y-13780
X40354Y-15748
X41236Y-52890
X41339Y-14764
X41417Y-43701
X41476Y-49236
X41571Y-60780
X41575Y-13071
X41575Y-62520
X41579Y-58874
X42047Y-48583
X42323Y-13780
X42323Y-15748
X42787Y-41882
X43307Y-14764
X43870Y-49661
X43909Y-50720
X43937Y-43701
X43937Y-45984
X44016Y-51665
X44024Y-52618
X44094Y-13071
X44094Y-62520
X44291Y-13780
X44291Y-15748
X45276Y-14764
X45484Y-55890
X45689Y-58839
X46063Y-49213
X46260Y-13780
X46260Y-15748
X46457Y-13071
X46457Y-62520
X47244Y-14764
X47244Y-48228
X47244Y-50197
X48228Y-13780
X48228Y-15748
X48228Y-49213
X48228Y-51181
X48228Y-53150
X49213Y-14764
X49213Y-48228
X49213Y-50197
X49213Y-52165
X49606Y-13071
X49606Y-62520
X50197Y-13780
X50197Y-15748
X50197Y-49213
X50197Y-51181
X50197Y-53150
X50299Y-59492
X51181Y-14764
X51181Y-48228
X51181Y-50197
X51181Y-52165
X51236Y-56213
X52165Y-13780
X52165Y-15748
X52165Y-49213
X52165Y-51181
X52165Y-53150
X52756Y-13071
X52756Y-62520
X53150Y-14764
X53150Y-48228
X53150Y-52165
X54134Y-13780
X54134Y-15748
X54134Y-51181
X54134Y-53150
X54441Y-54878
X55118Y-14764
X55118Y-48228
X55118Y-52165
X55898Y-57520
X55906Y-13071
X55906Y-62520
X56102Y-13780
X56102Y-15748
X56102Y-49213
X56102Y-51181
X56102Y-53150
X56618Y-59165
X57087Y-14764
X57087Y-48228
X57087Y-50197
X57087Y-52165
X58071Y-13780
X58071Y-15748
X58071Y-49213
X58071Y-51181
X58071Y-53150
X58268Y-13071
X58268Y-62520
X59055Y-14764
X59055Y-48228
X59055Y-50197
X59055Y-52165
X60039Y-13780
X60039Y-15748
X60039Y-49213
X60039Y-51181
X60039Y-53150
X60264Y-57858
X61024Y-14764
X61024Y-48228
X61024Y-50197
X61024Y-52165
X61417Y-13071
X61417Y-62520
X62008Y-13780
X62008Y-15748
X62008Y-49213
X62008Y-51181
X62008Y-53150
X62575Y-55197
X62992Y-14764
X62992Y-48228
X62992Y-50197
X62992Y-52165
X63976Y-13780
X63976Y-15748
X63976Y-49213
X63976Y-51181
X63976Y-53150
X64567Y-13071
X64567Y-62520
X64961Y-14764
X64961Y-48228
X64961Y-50197
X64961Y-52165
X65075Y-59307
X65945Y-13780
X65945Y-15748
X65945Y-49213
X65945Y-51181
X65945Y-53150
X66929Y-14764
X66929Y-16732
X67717Y-13071
X67717Y-62520
X67913Y-13780
X67913Y-15748
X68898Y-14764
X68898Y-16732
X69882Y-13780
X69882Y-15748
X70665Y-57063
X70866Y-13071
X70866Y-62520
X74016Y-13071
X74016Y-62520
X77087Y-13071
X77087Y-13071
X77087Y-16535
X77087Y-19685
X77087Y-22835
X77087Y-25984
X77087Y-29134
X77087Y-32283
X77087Y-35433
X77087Y-38583
X77087Y-41732
X77087Y-44882
X77087Y-48031
X77087Y-51181
X77087Y-54331
X77087Y-57480
X77087Y-60630
X77087Y-62520
T2
X74252Y-18110
X74256Y-58102
X34252Y-18110
X34252Y-58110
T0
M30
