G04 #@! TF.GenerationSoftware,KiCad,Pcbnew,(5.1.6)-1*
G04 #@! TF.CreationDate,2022-06-13T23:48:11-07:00*
G04 #@! TF.ProjectId,High current 4x1 LED mux,48696768-2063-4757-9272-656e74203478,rev?*
G04 #@! TF.SameCoordinates,Original*
G04 #@! TF.FileFunction,Copper,L2,Bot*
G04 #@! TF.FilePolarity,Positive*
%FSLAX46Y46*%
G04 Gerber Fmt 4.6, Leading zero omitted, Abs format (unit mm)*
G04 Created by KiCad (PCBNEW (5.1.6)-1) date 2022-06-13 23:48:11*
%MOMM*%
%LPD*%
G01*
G04 APERTURE LIST*
G04 #@! TA.AperFunction,ComponentPad*
%ADD10C,10.000000*%
G04 #@! TD*
G04 #@! TA.AperFunction,ViaPad*
%ADD11C,0.800000*%
G04 #@! TD*
G04 #@! TA.AperFunction,Conductor*
%ADD12C,0.254000*%
G04 #@! TD*
G04 APERTURE END LIST*
D10*
X188610000Y-147580000D03*
X87000000Y-147600000D03*
X188600000Y-46000000D03*
X87000000Y-46000000D03*
D11*
X164000000Y-33200000D03*
X156000000Y-33200000D03*
X172000000Y-33200000D03*
X80200000Y-33200000D03*
X148000000Y-33200000D03*
X188000000Y-33200000D03*
X180000000Y-33200000D03*
X142000000Y-33200000D03*
X126000000Y-33200000D03*
X134000000Y-33200000D03*
X118000000Y-33200000D03*
X195800000Y-33200000D03*
X99400000Y-33200000D03*
X105600000Y-33200000D03*
X88000000Y-33200000D03*
X112000000Y-33200000D03*
X195800000Y-74000000D03*
X195800000Y-90000000D03*
X195800000Y-50000000D03*
X195800000Y-66000000D03*
X195800000Y-33200000D03*
X195800000Y-58000000D03*
X195800000Y-98000000D03*
X195800000Y-82000000D03*
X195800000Y-106000000D03*
X195800000Y-42000000D03*
X195800000Y-154000000D03*
X195800000Y-146000000D03*
X195800000Y-158800000D03*
X195800000Y-122000000D03*
X195800000Y-130000000D03*
X195800000Y-114000000D03*
X195800000Y-138000000D03*
X80200000Y-33200000D03*
X80200000Y-42000000D03*
X80200000Y-50000000D03*
X80200000Y-58000000D03*
X80200000Y-66000000D03*
X80200000Y-74000000D03*
X80200000Y-82000000D03*
X80200000Y-90000000D03*
X80200000Y-98000000D03*
X80200000Y-106000000D03*
X80200000Y-114000000D03*
X80200000Y-122000000D03*
X80200000Y-130000000D03*
X80200000Y-138000000D03*
X80200000Y-146000000D03*
X80200000Y-154000000D03*
X80200000Y-158800000D03*
X188000000Y-158800000D03*
X180000000Y-158800000D03*
X172000000Y-158800000D03*
X164000000Y-158800000D03*
X156000000Y-158800000D03*
X148000000Y-158800000D03*
X142000000Y-158800000D03*
X134000000Y-158800000D03*
X126000000Y-158800000D03*
X118000000Y-158800000D03*
X112000000Y-158800000D03*
X88000000Y-158800000D03*
X99400000Y-158800000D03*
X105600000Y-158800000D03*
X99200000Y-111000000D03*
X99200000Y-123600000D03*
X99200000Y-117400000D03*
X105200000Y-111000000D03*
X110840000Y-111310000D03*
X110930000Y-116910000D03*
X116440000Y-124410000D03*
X106800000Y-123400000D03*
X87850000Y-122610000D03*
X87980000Y-108450000D03*
X87850000Y-90720000D03*
X87900000Y-72390000D03*
X94940000Y-72360000D03*
X95070000Y-90660000D03*
X95010000Y-108520000D03*
X95080000Y-122600000D03*
X97040000Y-139700000D03*
X111430000Y-126140000D03*
X111530000Y-128830000D03*
X111800000Y-131230000D03*
X130140000Y-142780000D03*
X115530000Y-141960000D03*
X111820000Y-133650000D03*
X116050000Y-149450000D03*
X127760000Y-151110000D03*
X143810000Y-150280000D03*
X165290000Y-150640000D03*
X179490000Y-144940000D03*
X90030000Y-55240000D03*
X88150000Y-136650000D03*
X94610000Y-136650000D03*
X104740000Y-134340000D03*
X105350000Y-125060000D03*
X99380000Y-154360000D03*
X105590000Y-154380000D03*
X99380000Y-149540000D03*
X105610000Y-149540000D03*
X86570000Y-131600000D03*
X108680000Y-106380000D03*
X97680000Y-131260000D03*
X153070000Y-146960000D03*
X100440000Y-37860000D03*
X138770000Y-140220000D03*
X141980000Y-146100000D03*
X158940000Y-140200000D03*
X102800000Y-35070000D03*
X105000000Y-37500000D03*
X107500000Y-35000000D03*
X110000000Y-37500000D03*
X112500000Y-35000000D03*
X117500000Y-35000000D03*
X120000000Y-37500000D03*
X122500000Y-35000000D03*
X102500000Y-40000000D03*
X107500000Y-40000000D03*
X112500000Y-40000000D03*
X117500000Y-40000000D03*
X122500000Y-40000000D03*
X125000000Y-37500000D03*
X127500000Y-35000000D03*
X127500000Y-40000000D03*
X132500000Y-35000000D03*
X132500000Y-40000000D03*
X135000000Y-37500000D03*
X137500000Y-35000000D03*
X137500000Y-40000000D03*
X140000000Y-37500000D03*
X142500000Y-35000000D03*
X142500000Y-40000000D03*
X145000000Y-37500000D03*
X147500000Y-35000000D03*
X147500000Y-40000000D03*
X152500000Y-35000000D03*
X152500000Y-40000000D03*
X155000000Y-37500000D03*
X157500000Y-35000000D03*
X157500000Y-40000000D03*
X160000000Y-37500000D03*
X162500000Y-35000000D03*
X162500000Y-40000000D03*
X167500000Y-35000000D03*
X167500000Y-40000000D03*
X170000000Y-37500000D03*
X170000000Y-42500000D03*
X120000000Y-122500000D03*
X120150000Y-127340000D03*
X122500000Y-125000000D03*
X125000000Y-122500000D03*
X130000000Y-122500000D03*
X135000000Y-122500000D03*
X132500000Y-125000000D03*
X127500000Y-125000000D03*
X125000000Y-127500000D03*
X130000000Y-127500000D03*
X122500000Y-130000000D03*
X127500000Y-130000000D03*
X132500000Y-130000000D03*
X130000000Y-132500000D03*
X125000000Y-132500000D03*
X122470000Y-134780000D03*
X127500000Y-134780000D03*
X132550000Y-134790000D03*
X135000000Y-132500000D03*
X137500000Y-130000000D03*
X137500000Y-135000000D03*
X140000000Y-132500000D03*
X142500000Y-130000000D03*
X142500000Y-135000000D03*
X145000000Y-132500000D03*
X145000000Y-127500000D03*
X142500000Y-125000000D03*
X140000000Y-122500000D03*
X145000000Y-122500000D03*
X147500000Y-125000000D03*
X150000000Y-122500000D03*
X150000000Y-127500000D03*
X147500000Y-130000000D03*
X150000000Y-132500000D03*
X147500000Y-135000000D03*
X152500000Y-125000000D03*
X152500000Y-130000000D03*
X152500000Y-135000000D03*
X155000000Y-122500000D03*
X155000000Y-127500000D03*
X155000000Y-132500000D03*
X157500000Y-135000000D03*
X157500000Y-130000000D03*
X157500000Y-125000000D03*
X160000000Y-122500000D03*
X160000000Y-127500000D03*
X160000000Y-132500000D03*
X162500000Y-135000000D03*
X162500000Y-130000000D03*
X162500000Y-125000000D03*
X165000000Y-122500000D03*
X165000000Y-127500000D03*
X165000000Y-132500000D03*
X167500000Y-125000000D03*
X167500000Y-130000000D03*
X167500000Y-135000000D03*
X115000000Y-37500000D03*
X130000000Y-37500000D03*
X150000000Y-37500000D03*
X165000000Y-37500000D03*
X172500000Y-35000000D03*
X172500000Y-40000000D03*
X175000000Y-37500000D03*
X177500000Y-35000000D03*
X177500000Y-40000000D03*
X175000000Y-42500000D03*
X140000000Y-137500000D03*
X145000000Y-137500000D03*
X150000000Y-137500000D03*
X155000000Y-137500000D03*
X160000000Y-137500000D03*
X165000000Y-137500000D03*
X135000000Y-42500000D03*
X150000000Y-42500000D03*
X117500000Y-42500000D03*
X117500000Y-47500000D03*
X135000000Y-47500000D03*
X150000000Y-47500000D03*
X167500000Y-47500000D03*
D12*
G36*
X196138000Y-159238000D02*
G01*
X174206317Y-159238000D01*
X174410621Y-159197361D01*
X174716726Y-159070569D01*
X174992212Y-158886494D01*
X175226494Y-158652212D01*
X175410569Y-158376726D01*
X175537361Y-158070621D01*
X175602000Y-157745662D01*
X175602000Y-157414338D01*
X175537361Y-157089379D01*
X175410569Y-156783274D01*
X175226494Y-156507788D01*
X174992212Y-156273506D01*
X174716726Y-156089431D01*
X174410621Y-155962639D01*
X174085662Y-155898000D01*
X173754338Y-155898000D01*
X173429379Y-155962639D01*
X173123274Y-156089431D01*
X172847788Y-156273506D01*
X172613506Y-156507788D01*
X172429431Y-156783274D01*
X172302639Y-157089379D01*
X172238000Y-157414338D01*
X172238000Y-157745662D01*
X172302639Y-158070621D01*
X172429431Y-158376726D01*
X172613506Y-158652212D01*
X172847788Y-158886494D01*
X173123274Y-159070569D01*
X173429379Y-159197361D01*
X173633683Y-159238000D01*
X144236317Y-159238000D01*
X144440621Y-159197361D01*
X144746726Y-159070569D01*
X145022212Y-158886494D01*
X145256494Y-158652212D01*
X145440569Y-158376726D01*
X145567361Y-158070621D01*
X145632000Y-157745662D01*
X145632000Y-157414338D01*
X145567361Y-157089379D01*
X145440569Y-156783274D01*
X145256494Y-156507788D01*
X145022212Y-156273506D01*
X144746726Y-156089431D01*
X144440621Y-155962639D01*
X144115662Y-155898000D01*
X143784338Y-155898000D01*
X143459379Y-155962639D01*
X143153274Y-156089431D01*
X142877788Y-156273506D01*
X142643506Y-156507788D01*
X142459431Y-156783274D01*
X142332639Y-157089379D01*
X142268000Y-157414338D01*
X142268000Y-157745662D01*
X142332639Y-158070621D01*
X142459431Y-158376726D01*
X142643506Y-158652212D01*
X142877788Y-158886494D01*
X143153274Y-159070569D01*
X143459379Y-159197361D01*
X143663683Y-159238000D01*
X114266317Y-159238000D01*
X114470621Y-159197361D01*
X114776726Y-159070569D01*
X115052212Y-158886494D01*
X115286494Y-158652212D01*
X115470569Y-158376726D01*
X115597361Y-158070621D01*
X115662000Y-157745662D01*
X115662000Y-157414338D01*
X115597361Y-157089379D01*
X115470569Y-156783274D01*
X115286494Y-156507788D01*
X115052212Y-156273506D01*
X114776726Y-156089431D01*
X114470621Y-155962639D01*
X114145662Y-155898000D01*
X113814338Y-155898000D01*
X113489379Y-155962639D01*
X113183274Y-156089431D01*
X112907788Y-156273506D01*
X112673506Y-156507788D01*
X112489431Y-156783274D01*
X112362639Y-157089379D01*
X112298000Y-157414338D01*
X112298000Y-157745662D01*
X112362639Y-158070621D01*
X112489431Y-158376726D01*
X112673506Y-158652212D01*
X112907788Y-158886494D01*
X113183274Y-159070569D01*
X113489379Y-159197361D01*
X113693683Y-159238000D01*
X79862000Y-159238000D01*
X79862000Y-156888015D01*
X101363000Y-156888015D01*
X101363000Y-157111985D01*
X101406695Y-157331651D01*
X101492404Y-157538571D01*
X101616835Y-157724795D01*
X101775205Y-157883165D01*
X101961429Y-158007596D01*
X102168349Y-158093305D01*
X102388015Y-158137000D01*
X102611985Y-158137000D01*
X102831651Y-158093305D01*
X103038571Y-158007596D01*
X103224795Y-157883165D01*
X103383165Y-157724795D01*
X103507596Y-157538571D01*
X103593305Y-157331651D01*
X103637000Y-157111985D01*
X103637000Y-156888015D01*
X103593305Y-156668349D01*
X103507596Y-156461429D01*
X103383165Y-156275205D01*
X103224795Y-156116835D01*
X103038571Y-155992404D01*
X102831651Y-155906695D01*
X102611985Y-155863000D01*
X102388015Y-155863000D01*
X102168349Y-155906695D01*
X101961429Y-155992404D01*
X101775205Y-156116835D01*
X101616835Y-156275205D01*
X101492404Y-156461429D01*
X101406695Y-156668349D01*
X101363000Y-156888015D01*
X79862000Y-156888015D01*
X79862000Y-147074351D01*
X81663000Y-147074351D01*
X81663000Y-148125649D01*
X81868098Y-149156745D01*
X82270412Y-150128017D01*
X82854482Y-151002139D01*
X83597861Y-151745518D01*
X84471983Y-152329588D01*
X85443255Y-152731902D01*
X86474351Y-152937000D01*
X87525649Y-152937000D01*
X88556745Y-152731902D01*
X89410739Y-152378166D01*
X101263000Y-152378166D01*
X101263000Y-152621834D01*
X101310538Y-152860819D01*
X101403785Y-153085939D01*
X101539160Y-153288541D01*
X101711459Y-153460840D01*
X101914061Y-153596215D01*
X102139181Y-153689462D01*
X102378166Y-153737000D01*
X102621834Y-153737000D01*
X102860819Y-153689462D01*
X103085939Y-153596215D01*
X103288541Y-153460840D01*
X103460840Y-153288541D01*
X103596215Y-153085939D01*
X103689462Y-152860819D01*
X103737000Y-152621834D01*
X103737000Y-152378166D01*
X103689462Y-152139181D01*
X103596215Y-151914061D01*
X103460840Y-151711459D01*
X103288541Y-151539160D01*
X103085939Y-151403785D01*
X102860819Y-151310538D01*
X102621834Y-151263000D01*
X102378166Y-151263000D01*
X102139181Y-151310538D01*
X101914061Y-151403785D01*
X101711459Y-151539160D01*
X101539160Y-151711459D01*
X101403785Y-151914061D01*
X101310538Y-152139181D01*
X101263000Y-152378166D01*
X89410739Y-152378166D01*
X89528017Y-152329588D01*
X90402139Y-151745518D01*
X91145518Y-151002139D01*
X91729588Y-150128017D01*
X92131902Y-149156745D01*
X92337000Y-148125649D01*
X92337000Y-147074351D01*
X92333022Y-147054351D01*
X183273000Y-147054351D01*
X183273000Y-148105649D01*
X183478098Y-149136745D01*
X183880412Y-150108017D01*
X184464482Y-150982139D01*
X185207861Y-151725518D01*
X186081983Y-152309588D01*
X187053255Y-152711902D01*
X188084351Y-152917000D01*
X189135649Y-152917000D01*
X190166745Y-152711902D01*
X191138017Y-152309588D01*
X192012139Y-151725518D01*
X192755518Y-150982139D01*
X193339588Y-150108017D01*
X193741902Y-149136745D01*
X193947000Y-148105649D01*
X193947000Y-147054351D01*
X193741902Y-146023255D01*
X193339588Y-145051983D01*
X192755518Y-144177861D01*
X192012139Y-143434482D01*
X191138017Y-142850412D01*
X190166745Y-142448098D01*
X189135649Y-142243000D01*
X188084351Y-142243000D01*
X187053255Y-142448098D01*
X186081983Y-142850412D01*
X185207861Y-143434482D01*
X184464482Y-144177861D01*
X183880412Y-145051983D01*
X183478098Y-146023255D01*
X183273000Y-147054351D01*
X92333022Y-147054351D01*
X92131902Y-146043255D01*
X91729588Y-145071983D01*
X91145518Y-144197861D01*
X90402139Y-143454482D01*
X89528017Y-142870412D01*
X88556745Y-142468098D01*
X87525649Y-142263000D01*
X86474351Y-142263000D01*
X85443255Y-142468098D01*
X84471983Y-142870412D01*
X83597861Y-143454482D01*
X82854482Y-144197861D01*
X82270412Y-145071983D01*
X81868098Y-146043255D01*
X81663000Y-147074351D01*
X79862000Y-147074351D01*
X79862000Y-91727114D01*
X96475870Y-91727114D01*
X96490812Y-91980849D01*
X96543564Y-92154748D01*
X96629228Y-92315014D01*
X96744512Y-92455488D01*
X109105322Y-104816298D01*
X111079655Y-107329085D01*
X111273201Y-116619308D01*
X111303001Y-116833926D01*
X111365873Y-117004427D01*
X111460800Y-117159386D01*
X111584135Y-117292848D01*
X116673000Y-121816284D01*
X116673000Y-126400000D01*
X116690812Y-126580849D01*
X116743564Y-126754748D01*
X116829228Y-126915014D01*
X116944512Y-127055488D01*
X118873000Y-128983976D01*
X118873000Y-135800000D01*
X118889748Y-135975416D01*
X118941460Y-136149627D01*
X119026166Y-136310401D01*
X119140609Y-136451562D01*
X119280392Y-136567683D01*
X119440144Y-136654302D01*
X119613725Y-136708092D01*
X135213725Y-139908092D01*
X135405618Y-139926983D01*
X168405618Y-139726983D01*
X168591168Y-139707074D01*
X168764456Y-139652350D01*
X168923739Y-139564871D01*
X169062894Y-139447997D01*
X169176575Y-139306222D01*
X169260412Y-139144993D01*
X169311184Y-138970506D01*
X169326940Y-138789467D01*
X169132463Y-121675501D01*
X173535822Y-118556455D01*
X173647732Y-118463154D01*
X173764660Y-118324045D01*
X173852204Y-118164798D01*
X173906998Y-117991532D01*
X173926936Y-117810905D01*
X174123984Y-101061791D01*
X179394896Y-92276938D01*
X179451273Y-92166964D01*
X179506508Y-91993838D01*
X179526905Y-91813262D01*
X180189929Y-45474351D01*
X183263000Y-45474351D01*
X183263000Y-46525649D01*
X183468098Y-47556745D01*
X183870412Y-48528017D01*
X184454482Y-49402139D01*
X185197861Y-50145518D01*
X186071983Y-50729588D01*
X187043255Y-51131902D01*
X188074351Y-51337000D01*
X189125649Y-51337000D01*
X190156745Y-51131902D01*
X191128017Y-50729588D01*
X192002139Y-50145518D01*
X192745518Y-49402139D01*
X193329588Y-48528017D01*
X193731902Y-47556745D01*
X193937000Y-46525649D01*
X193937000Y-45474351D01*
X193731902Y-44443255D01*
X193329588Y-43471983D01*
X192745518Y-42597861D01*
X192002139Y-41854482D01*
X191128017Y-41270412D01*
X190156745Y-40868098D01*
X189125649Y-40663000D01*
X188074351Y-40663000D01*
X187043255Y-40868098D01*
X186071983Y-41270412D01*
X185197861Y-41854482D01*
X184454482Y-42597861D01*
X183870412Y-43471983D01*
X183468098Y-44443255D01*
X183263000Y-45474351D01*
X180189929Y-45474351D01*
X180346905Y-34503262D01*
X180329188Y-34309151D01*
X180276436Y-34135252D01*
X180190772Y-33974986D01*
X180075488Y-33834512D01*
X179935014Y-33719228D01*
X179774748Y-33633564D01*
X179600849Y-33580812D01*
X179420000Y-33563000D01*
X101920000Y-33563000D01*
X101811196Y-33569407D01*
X101633688Y-33608323D01*
X101467183Y-33681121D01*
X101318079Y-33785003D01*
X101192107Y-33915979D01*
X101094107Y-34069013D01*
X101027846Y-34238226D01*
X100995870Y-34417114D01*
X96475870Y-91727114D01*
X79862000Y-91727114D01*
X79862000Y-45474351D01*
X81663000Y-45474351D01*
X81663000Y-46525649D01*
X81868098Y-47556745D01*
X82270412Y-48528017D01*
X82854482Y-49402139D01*
X83597861Y-50145518D01*
X84471983Y-50729588D01*
X85443255Y-51131902D01*
X86474351Y-51337000D01*
X87525649Y-51337000D01*
X88556745Y-51131902D01*
X89528017Y-50729588D01*
X90402139Y-50145518D01*
X91145518Y-49402139D01*
X91729588Y-48528017D01*
X92131902Y-47556745D01*
X92337000Y-46525649D01*
X92337000Y-45474351D01*
X92131902Y-44443255D01*
X91729588Y-43471983D01*
X91145518Y-42597861D01*
X90402139Y-41854482D01*
X89528017Y-41270412D01*
X88556745Y-40868098D01*
X87525649Y-40663000D01*
X86474351Y-40663000D01*
X85443255Y-40868098D01*
X84471983Y-41270412D01*
X83597861Y-41854482D01*
X82854482Y-42597861D01*
X82270412Y-43471983D01*
X81868098Y-44443255D01*
X81663000Y-45474351D01*
X79862000Y-45474351D01*
X79862000Y-32862000D01*
X196138001Y-32862000D01*
X196138000Y-159238000D01*
G37*
X196138000Y-159238000D02*
X174206317Y-159238000D01*
X174410621Y-159197361D01*
X174716726Y-159070569D01*
X174992212Y-158886494D01*
X175226494Y-158652212D01*
X175410569Y-158376726D01*
X175537361Y-158070621D01*
X175602000Y-157745662D01*
X175602000Y-157414338D01*
X175537361Y-157089379D01*
X175410569Y-156783274D01*
X175226494Y-156507788D01*
X174992212Y-156273506D01*
X174716726Y-156089431D01*
X174410621Y-155962639D01*
X174085662Y-155898000D01*
X173754338Y-155898000D01*
X173429379Y-155962639D01*
X173123274Y-156089431D01*
X172847788Y-156273506D01*
X172613506Y-156507788D01*
X172429431Y-156783274D01*
X172302639Y-157089379D01*
X172238000Y-157414338D01*
X172238000Y-157745662D01*
X172302639Y-158070621D01*
X172429431Y-158376726D01*
X172613506Y-158652212D01*
X172847788Y-158886494D01*
X173123274Y-159070569D01*
X173429379Y-159197361D01*
X173633683Y-159238000D01*
X144236317Y-159238000D01*
X144440621Y-159197361D01*
X144746726Y-159070569D01*
X145022212Y-158886494D01*
X145256494Y-158652212D01*
X145440569Y-158376726D01*
X145567361Y-158070621D01*
X145632000Y-157745662D01*
X145632000Y-157414338D01*
X145567361Y-157089379D01*
X145440569Y-156783274D01*
X145256494Y-156507788D01*
X145022212Y-156273506D01*
X144746726Y-156089431D01*
X144440621Y-155962639D01*
X144115662Y-155898000D01*
X143784338Y-155898000D01*
X143459379Y-155962639D01*
X143153274Y-156089431D01*
X142877788Y-156273506D01*
X142643506Y-156507788D01*
X142459431Y-156783274D01*
X142332639Y-157089379D01*
X142268000Y-157414338D01*
X142268000Y-157745662D01*
X142332639Y-158070621D01*
X142459431Y-158376726D01*
X142643506Y-158652212D01*
X142877788Y-158886494D01*
X143153274Y-159070569D01*
X143459379Y-159197361D01*
X143663683Y-159238000D01*
X114266317Y-159238000D01*
X114470621Y-159197361D01*
X114776726Y-159070569D01*
X115052212Y-158886494D01*
X115286494Y-158652212D01*
X115470569Y-158376726D01*
X115597361Y-158070621D01*
X115662000Y-157745662D01*
X115662000Y-157414338D01*
X115597361Y-157089379D01*
X115470569Y-156783274D01*
X115286494Y-156507788D01*
X115052212Y-156273506D01*
X114776726Y-156089431D01*
X114470621Y-155962639D01*
X114145662Y-155898000D01*
X113814338Y-155898000D01*
X113489379Y-155962639D01*
X113183274Y-156089431D01*
X112907788Y-156273506D01*
X112673506Y-156507788D01*
X112489431Y-156783274D01*
X112362639Y-157089379D01*
X112298000Y-157414338D01*
X112298000Y-157745662D01*
X112362639Y-158070621D01*
X112489431Y-158376726D01*
X112673506Y-158652212D01*
X112907788Y-158886494D01*
X113183274Y-159070569D01*
X113489379Y-159197361D01*
X113693683Y-159238000D01*
X79862000Y-159238000D01*
X79862000Y-156888015D01*
X101363000Y-156888015D01*
X101363000Y-157111985D01*
X101406695Y-157331651D01*
X101492404Y-157538571D01*
X101616835Y-157724795D01*
X101775205Y-157883165D01*
X101961429Y-158007596D01*
X102168349Y-158093305D01*
X102388015Y-158137000D01*
X102611985Y-158137000D01*
X102831651Y-158093305D01*
X103038571Y-158007596D01*
X103224795Y-157883165D01*
X103383165Y-157724795D01*
X103507596Y-157538571D01*
X103593305Y-157331651D01*
X103637000Y-157111985D01*
X103637000Y-156888015D01*
X103593305Y-156668349D01*
X103507596Y-156461429D01*
X103383165Y-156275205D01*
X103224795Y-156116835D01*
X103038571Y-155992404D01*
X102831651Y-155906695D01*
X102611985Y-155863000D01*
X102388015Y-155863000D01*
X102168349Y-155906695D01*
X101961429Y-155992404D01*
X101775205Y-156116835D01*
X101616835Y-156275205D01*
X101492404Y-156461429D01*
X101406695Y-156668349D01*
X101363000Y-156888015D01*
X79862000Y-156888015D01*
X79862000Y-147074351D01*
X81663000Y-147074351D01*
X81663000Y-148125649D01*
X81868098Y-149156745D01*
X82270412Y-150128017D01*
X82854482Y-151002139D01*
X83597861Y-151745518D01*
X84471983Y-152329588D01*
X85443255Y-152731902D01*
X86474351Y-152937000D01*
X87525649Y-152937000D01*
X88556745Y-152731902D01*
X89410739Y-152378166D01*
X101263000Y-152378166D01*
X101263000Y-152621834D01*
X101310538Y-152860819D01*
X101403785Y-153085939D01*
X101539160Y-153288541D01*
X101711459Y-153460840D01*
X101914061Y-153596215D01*
X102139181Y-153689462D01*
X102378166Y-153737000D01*
X102621834Y-153737000D01*
X102860819Y-153689462D01*
X103085939Y-153596215D01*
X103288541Y-153460840D01*
X103460840Y-153288541D01*
X103596215Y-153085939D01*
X103689462Y-152860819D01*
X103737000Y-152621834D01*
X103737000Y-152378166D01*
X103689462Y-152139181D01*
X103596215Y-151914061D01*
X103460840Y-151711459D01*
X103288541Y-151539160D01*
X103085939Y-151403785D01*
X102860819Y-151310538D01*
X102621834Y-151263000D01*
X102378166Y-151263000D01*
X102139181Y-151310538D01*
X101914061Y-151403785D01*
X101711459Y-151539160D01*
X101539160Y-151711459D01*
X101403785Y-151914061D01*
X101310538Y-152139181D01*
X101263000Y-152378166D01*
X89410739Y-152378166D01*
X89528017Y-152329588D01*
X90402139Y-151745518D01*
X91145518Y-151002139D01*
X91729588Y-150128017D01*
X92131902Y-149156745D01*
X92337000Y-148125649D01*
X92337000Y-147074351D01*
X92333022Y-147054351D01*
X183273000Y-147054351D01*
X183273000Y-148105649D01*
X183478098Y-149136745D01*
X183880412Y-150108017D01*
X184464482Y-150982139D01*
X185207861Y-151725518D01*
X186081983Y-152309588D01*
X187053255Y-152711902D01*
X188084351Y-152917000D01*
X189135649Y-152917000D01*
X190166745Y-152711902D01*
X191138017Y-152309588D01*
X192012139Y-151725518D01*
X192755518Y-150982139D01*
X193339588Y-150108017D01*
X193741902Y-149136745D01*
X193947000Y-148105649D01*
X193947000Y-147054351D01*
X193741902Y-146023255D01*
X193339588Y-145051983D01*
X192755518Y-144177861D01*
X192012139Y-143434482D01*
X191138017Y-142850412D01*
X190166745Y-142448098D01*
X189135649Y-142243000D01*
X188084351Y-142243000D01*
X187053255Y-142448098D01*
X186081983Y-142850412D01*
X185207861Y-143434482D01*
X184464482Y-144177861D01*
X183880412Y-145051983D01*
X183478098Y-146023255D01*
X183273000Y-147054351D01*
X92333022Y-147054351D01*
X92131902Y-146043255D01*
X91729588Y-145071983D01*
X91145518Y-144197861D01*
X90402139Y-143454482D01*
X89528017Y-142870412D01*
X88556745Y-142468098D01*
X87525649Y-142263000D01*
X86474351Y-142263000D01*
X85443255Y-142468098D01*
X84471983Y-142870412D01*
X83597861Y-143454482D01*
X82854482Y-144197861D01*
X82270412Y-145071983D01*
X81868098Y-146043255D01*
X81663000Y-147074351D01*
X79862000Y-147074351D01*
X79862000Y-91727114D01*
X96475870Y-91727114D01*
X96490812Y-91980849D01*
X96543564Y-92154748D01*
X96629228Y-92315014D01*
X96744512Y-92455488D01*
X109105322Y-104816298D01*
X111079655Y-107329085D01*
X111273201Y-116619308D01*
X111303001Y-116833926D01*
X111365873Y-117004427D01*
X111460800Y-117159386D01*
X111584135Y-117292848D01*
X116673000Y-121816284D01*
X116673000Y-126400000D01*
X116690812Y-126580849D01*
X116743564Y-126754748D01*
X116829228Y-126915014D01*
X116944512Y-127055488D01*
X118873000Y-128983976D01*
X118873000Y-135800000D01*
X118889748Y-135975416D01*
X118941460Y-136149627D01*
X119026166Y-136310401D01*
X119140609Y-136451562D01*
X119280392Y-136567683D01*
X119440144Y-136654302D01*
X119613725Y-136708092D01*
X135213725Y-139908092D01*
X135405618Y-139926983D01*
X168405618Y-139726983D01*
X168591168Y-139707074D01*
X168764456Y-139652350D01*
X168923739Y-139564871D01*
X169062894Y-139447997D01*
X169176575Y-139306222D01*
X169260412Y-139144993D01*
X169311184Y-138970506D01*
X169326940Y-138789467D01*
X169132463Y-121675501D01*
X173535822Y-118556455D01*
X173647732Y-118463154D01*
X173764660Y-118324045D01*
X173852204Y-118164798D01*
X173906998Y-117991532D01*
X173926936Y-117810905D01*
X174123984Y-101061791D01*
X179394896Y-92276938D01*
X179451273Y-92166964D01*
X179506508Y-91993838D01*
X179526905Y-91813262D01*
X180189929Y-45474351D01*
X183263000Y-45474351D01*
X183263000Y-46525649D01*
X183468098Y-47556745D01*
X183870412Y-48528017D01*
X184454482Y-49402139D01*
X185197861Y-50145518D01*
X186071983Y-50729588D01*
X187043255Y-51131902D01*
X188074351Y-51337000D01*
X189125649Y-51337000D01*
X190156745Y-51131902D01*
X191128017Y-50729588D01*
X192002139Y-50145518D01*
X192745518Y-49402139D01*
X193329588Y-48528017D01*
X193731902Y-47556745D01*
X193937000Y-46525649D01*
X193937000Y-45474351D01*
X193731902Y-44443255D01*
X193329588Y-43471983D01*
X192745518Y-42597861D01*
X192002139Y-41854482D01*
X191128017Y-41270412D01*
X190156745Y-40868098D01*
X189125649Y-40663000D01*
X188074351Y-40663000D01*
X187043255Y-40868098D01*
X186071983Y-41270412D01*
X185197861Y-41854482D01*
X184454482Y-42597861D01*
X183870412Y-43471983D01*
X183468098Y-44443255D01*
X183263000Y-45474351D01*
X180189929Y-45474351D01*
X180346905Y-34503262D01*
X180329188Y-34309151D01*
X180276436Y-34135252D01*
X180190772Y-33974986D01*
X180075488Y-33834512D01*
X179935014Y-33719228D01*
X179774748Y-33633564D01*
X179600849Y-33580812D01*
X179420000Y-33563000D01*
X101920000Y-33563000D01*
X101811196Y-33569407D01*
X101633688Y-33608323D01*
X101467183Y-33681121D01*
X101318079Y-33785003D01*
X101192107Y-33915979D01*
X101094107Y-34069013D01*
X101027846Y-34238226D01*
X100995870Y-34417114D01*
X96475870Y-91727114D01*
X79862000Y-91727114D01*
X79862000Y-45474351D01*
X81663000Y-45474351D01*
X81663000Y-46525649D01*
X81868098Y-47556745D01*
X82270412Y-48528017D01*
X82854482Y-49402139D01*
X83597861Y-50145518D01*
X84471983Y-50729588D01*
X85443255Y-51131902D01*
X86474351Y-51337000D01*
X87525649Y-51337000D01*
X88556745Y-51131902D01*
X89528017Y-50729588D01*
X90402139Y-50145518D01*
X91145518Y-49402139D01*
X91729588Y-48528017D01*
X92131902Y-47556745D01*
X92337000Y-46525649D01*
X92337000Y-45474351D01*
X92131902Y-44443255D01*
X91729588Y-43471983D01*
X91145518Y-42597861D01*
X90402139Y-41854482D01*
X89528017Y-41270412D01*
X88556745Y-40868098D01*
X87525649Y-40663000D01*
X86474351Y-40663000D01*
X85443255Y-40868098D01*
X84471983Y-41270412D01*
X83597861Y-41854482D01*
X82854482Y-42597861D01*
X82270412Y-43471983D01*
X81868098Y-44443255D01*
X81663000Y-45474351D01*
X79862000Y-45474351D01*
X79862000Y-32862000D01*
X196138001Y-32862000D01*
X196138000Y-159238000D01*
G36*
X178473502Y-91763985D02*
G01*
X173091098Y-100734659D01*
X173080444Y-100757160D01*
X173074383Y-100781308D01*
X173073009Y-100798506D01*
X172873770Y-117733780D01*
X168126592Y-121096365D01*
X168107784Y-121112677D01*
X168092520Y-121132346D01*
X168081387Y-121154614D01*
X168074811Y-121178626D01*
X168073008Y-121201443D01*
X168271557Y-138673776D01*
X135412511Y-138872922D01*
X119927000Y-135696406D01*
X119927000Y-128600000D01*
X119924560Y-128575224D01*
X119917333Y-128551399D01*
X119905597Y-128529443D01*
X119889803Y-128510197D01*
X117727000Y-126347394D01*
X117727000Y-124741791D01*
X117767000Y-124540698D01*
X117767000Y-124279302D01*
X117727000Y-124078209D01*
X117727000Y-121400000D01*
X117724560Y-121375224D01*
X117717333Y-121351399D01*
X117705597Y-121329443D01*
X117684374Y-121305079D01*
X112325817Y-116541917D01*
X112126972Y-106997355D01*
X112124017Y-106972634D01*
X112116295Y-106948966D01*
X112099862Y-106921537D01*
X109899862Y-104121537D01*
X109889803Y-104110197D01*
X97531211Y-91751605D01*
X102037378Y-34617000D01*
X179291170Y-34617000D01*
X178473502Y-91763985D01*
G37*
X178473502Y-91763985D02*
X173091098Y-100734659D01*
X173080444Y-100757160D01*
X173074383Y-100781308D01*
X173073009Y-100798506D01*
X172873770Y-117733780D01*
X168126592Y-121096365D01*
X168107784Y-121112677D01*
X168092520Y-121132346D01*
X168081387Y-121154614D01*
X168074811Y-121178626D01*
X168073008Y-121201443D01*
X168271557Y-138673776D01*
X135412511Y-138872922D01*
X119927000Y-135696406D01*
X119927000Y-128600000D01*
X119924560Y-128575224D01*
X119917333Y-128551399D01*
X119905597Y-128529443D01*
X119889803Y-128510197D01*
X117727000Y-126347394D01*
X117727000Y-124741791D01*
X117767000Y-124540698D01*
X117767000Y-124279302D01*
X117727000Y-124078209D01*
X117727000Y-121400000D01*
X117724560Y-121375224D01*
X117717333Y-121351399D01*
X117705597Y-121329443D01*
X117684374Y-121305079D01*
X112325817Y-116541917D01*
X112126972Y-106997355D01*
X112124017Y-106972634D01*
X112116295Y-106948966D01*
X112099862Y-106921537D01*
X109899862Y-104121537D01*
X109889803Y-104110197D01*
X97531211Y-91751605D01*
X102037378Y-34617000D01*
X179291170Y-34617000D01*
X178473502Y-91763985D01*
M02*
