G04 #@! TF.GenerationSoftware,KiCad,Pcbnew,(5.1.6)-1*
G04 #@! TF.CreationDate,2022-06-13T23:48:11-07:00*
G04 #@! TF.ProjectId,High current 4x1 LED mux,48696768-2063-4757-9272-656e74203478,rev?*
G04 #@! TF.SameCoordinates,Original*
G04 #@! TF.FileFunction,Paste,Top*
G04 #@! TF.FilePolarity,Positive*
%FSLAX46Y46*%
G04 Gerber Fmt 4.6, Leading zero omitted, Abs format (unit mm)*
G04 Created by KiCad (PCBNEW (5.1.6)-1) date 2022-06-13 23:48:11*
%MOMM*%
%LPD*%
G01*
G04 APERTURE LIST*
%ADD10R,1.727200X0.533400*%
%ADD11R,1.650000X3.000000*%
%ADD12R,1.000000X1.900000*%
%ADD13R,1.000000X2.510000*%
%ADD14R,0.650000X0.400000*%
%ADD15R,2.000000X2.000000*%
%ADD16R,3.000000X1.650000*%
%ADD17R,2.159000X1.955800*%
%ADD18R,0.900000X2.170000*%
%ADD19R,1.100000X4.600000*%
%ADD20R,5.250000X4.550000*%
%ADD21R,6.220000X3.180000*%
%ADD22R,0.560000X2.540000*%
G04 APERTURE END LIST*
D10*
X109069800Y-133815000D03*
X109069800Y-132545000D03*
X109069800Y-131275000D03*
X109069800Y-130005000D03*
X109069800Y-128735000D03*
X109069800Y-127465000D03*
X109069800Y-126195000D03*
X109069800Y-124925000D03*
X99570200Y-124925000D03*
X99570200Y-126195000D03*
X99570200Y-127465000D03*
X99570200Y-128735000D03*
X99570200Y-130005000D03*
X99570200Y-131275000D03*
X99570200Y-132545000D03*
X99570200Y-133815000D03*
D11*
X135845000Y-119680000D03*
X140415000Y-119680000D03*
X138130000Y-116580000D03*
X140415000Y-126390000D03*
X138130000Y-123290000D03*
X135845000Y-126390000D03*
D12*
X93440000Y-133350000D03*
X88360000Y-133350000D03*
X90900000Y-136650000D03*
X85820000Y-136650000D03*
D13*
X90800000Y-80557500D03*
X85720000Y-80557500D03*
X93340000Y-83867500D03*
X88260000Y-83867500D03*
X90800000Y-98270000D03*
X85720000Y-98270000D03*
X93340000Y-101580000D03*
X88260000Y-101580000D03*
X90800000Y-62845000D03*
X85720000Y-62845000D03*
X93340000Y-66155000D03*
X88260000Y-66155000D03*
X90800000Y-115982500D03*
X85720000Y-115982500D03*
X93340000Y-119292500D03*
X88260000Y-119292500D03*
D14*
X115270000Y-130580000D03*
X115270000Y-131880000D03*
X113370000Y-131230000D03*
X113370000Y-131880000D03*
X113370000Y-130580000D03*
D15*
X108000000Y-157000000D03*
X108000000Y-150800000D03*
X97000000Y-150800000D03*
X97000000Y-157000000D03*
D16*
X114540000Y-42695000D03*
X114540000Y-47265000D03*
X117640000Y-44980000D03*
X107830000Y-47265000D03*
X110930000Y-44980000D03*
X107830000Y-42695000D03*
D17*
X154320000Y-105068500D03*
X154320000Y-101131500D03*
X121320000Y-105068500D03*
X121320000Y-101131500D03*
D18*
X101270000Y-136480000D03*
X100050000Y-136480000D03*
D17*
X137820000Y-105068500D03*
X137820000Y-101131500D03*
D16*
X130956666Y-42695000D03*
X130956666Y-47265000D03*
X134056666Y-44980000D03*
X124246666Y-47265000D03*
X127346666Y-44980000D03*
X124246666Y-42695000D03*
D17*
X170820000Y-105068500D03*
X170820000Y-101131500D03*
D19*
X160005000Y-106750000D03*
X165085000Y-106750000D03*
D20*
X165320000Y-95175000D03*
X159770000Y-100025000D03*
X159770000Y-95175000D03*
X165320000Y-100025000D03*
X132353333Y-99950000D03*
X126803333Y-95100000D03*
X126803333Y-99950000D03*
X132353333Y-95100000D03*
D19*
X132118333Y-106675000D03*
X127038333Y-106675000D03*
D14*
X115270000Y-125490000D03*
X115270000Y-126790000D03*
X113370000Y-126140000D03*
X113370000Y-126790000D03*
X113370000Y-125490000D03*
D21*
X115170000Y-152990000D03*
X172730000Y-152990000D03*
D22*
X115887500Y-144540000D03*
X117157500Y-144540000D03*
X118427500Y-144540000D03*
X119697500Y-144540000D03*
X120967500Y-144540000D03*
X122237500Y-144540000D03*
X123507500Y-144540000D03*
X124777500Y-144540000D03*
X131632500Y-144540000D03*
X132902500Y-144540000D03*
X134172500Y-144540000D03*
X135442500Y-144540000D03*
X136712500Y-144540000D03*
X137982500Y-144540000D03*
X139252500Y-144540000D03*
X140522500Y-144540000D03*
X147377500Y-144540000D03*
X148647500Y-144540000D03*
X149917500Y-144540000D03*
X151187500Y-144540000D03*
X152457500Y-144540000D03*
X153727500Y-144540000D03*
X154997500Y-144540000D03*
X156267500Y-144540000D03*
X163122500Y-144540000D03*
X164392500Y-144540000D03*
X165662500Y-144540000D03*
X166932500Y-144540000D03*
X168202500Y-144540000D03*
X169472500Y-144540000D03*
X170742500Y-144540000D03*
X172012500Y-144540000D03*
D16*
X163790000Y-42695000D03*
X163790000Y-47265000D03*
X166890000Y-44980000D03*
X157080000Y-47265000D03*
X160180000Y-44980000D03*
X157080000Y-42695000D03*
X147373332Y-42565000D03*
X147373332Y-47135000D03*
X150473332Y-44850000D03*
X140663332Y-47135000D03*
X143763332Y-44850000D03*
X140663332Y-42565000D03*
D20*
X148836666Y-100025000D03*
X143286666Y-95175000D03*
X143286666Y-100025000D03*
X148836666Y-95175000D03*
D19*
X148601666Y-106750000D03*
X143521666Y-106750000D03*
D20*
X115870000Y-99950000D03*
X110320000Y-95100000D03*
X110320000Y-99950000D03*
X115870000Y-95100000D03*
D19*
X115635000Y-106675000D03*
X110555000Y-106675000D03*
M02*
